<svg xmlns="http://www.w3.org/2000/svg" width="284.47" height="285.26" viewBox="0 0 284.47 285.26">
  <defs>
    <style>
      .cls-1 {
        fill: #a97c50;
      }

      .cls-2 {
        fill: #3c2415;
      }

      .cls-3 {
        fill: #ef4136;
      }

      .cls-4 {
        fill: #f9ed32;
      }

      .cls-5 {
        fill: #da1c5c;
      }

      .cls-6 {
        fill: #fff;
      }

      .cls-7 {
        fill: #27aae1;
      }

      .cls-8 {
        fill: #00a651;
      }

      .cls-9 {
        fill: #2b3990;
      }
    </style>
  </defs>
  <g id="Flute">
    <g>
      <path class="cls-1" d="M25.44,74.94H55.85V293.85c0,8.76-2.11,10.86-10.87,10.87-3.84,0-7.67.08-11.5,0-5.17-.14-7.66-2.54-8-7.59-.11-1.49,0-3,0-4.5V74.94Z" transform="translate(-13.1 -19.49)"/>
      <path class="cls-1" d="M63.67,74.84H93.93v193.3c0,8.08-1.85,9.91-10,9.95-4,0-8,.08-12,0-5.68-.16-8-2.58-8.21-8.35,0-.83,0-1.67,0-2.5V74.84Z" transform="translate(-13.1 -19.49)"/>
      <path class="cls-2" d="M13.1,70.25V49.33H297.57V70.25ZM85.83,59.81A6.72,6.72,0,0,0,79,52.76a7,7,0,1,0,0,14A6.73,6.73,0,0,0,85.83,59.81ZM124,59.63c-.08-4.19-2.81-6.91-6.91-6.88a7,7,0,1,0,.33,14C121.5,66.67,124.08,63.86,124,59.63Zm114.93.1a6.67,6.67,0,0,0-6.86-7,7,7,0,1,0,.1,14A6.66,6.66,0,0,0,238.94,59.73Zm24.24-.36a7.17,7.17,0,0,0,6.53,7.42c4.19.27,7.06-2.2,7.36-6.33.31-4.33-2-7.29-6-7.68A7.1,7.1,0,0,0,263.18,59.37Zm-215.55.4a6.91,6.91,0,0,0-6.93-7c-4.24-.06-7.13,2.94-7,7.29a6.61,6.61,0,0,0,7,6.76A7,7,0,0,0,47.63,59.77Zm114.85-.19a6.89,6.89,0,0,0-7.1-6.83c-4.25,0-7,3.06-6.75,7.5.2,4.14,3,6.7,7.17,6.54A6.91,6.91,0,0,0,162.48,59.58Zm38.37.15a7.15,7.15,0,0,0-7-7c-4.29,0-7.09,2.93-6.92,7.35.15,4.15,2.94,6.8,7.05,6.7A7.13,7.13,0,0,0,200.85,59.73Z" transform="translate(-13.1 -19.49)"/>
      <path class="cls-1" d="M101.89,74.83H132c.1,1.89.27,3.65.27,5.4q0,86.47,0,172.93c0,9-1.72,10.64-10.88,10.65-3.67,0-7.33,0-11,0-5.81-.09-8.38-2.71-8.5-8.63-.05-2.83,0-5.67,0-8.5V74.83Z" transform="translate(-13.1 -19.49)"/>
      <path class="cls-1" d="M140.17,74.92H170.8v5.61q0,78.47,0,156.94c0,9.05-2.05,11.06-11.23,11.07-3.67,0-7.34.08-11,0-5.62-.15-8.1-2.67-8.39-8.33,0-.83,0-1.67,0-2.5V74.92Z" transform="translate(-13.1 -19.49)"/>
      <path class="cls-1" d="M178.7,74.84H209v5.5q0,72,0,144c0,7.94-2.17,10.15-10,10.19-3.67,0-7.33,0-11,0-6.94-.07-9.24-2.33-9.24-9.33q0-49.24,0-98.49,0-23,0-46Z" transform="translate(-13.1 -19.49)"/>
      <path class="cls-1" d="M216.88,74.85h30.2V212.17c0,9.2-1.49,10.64-10.75,10.65-4,0-8,.08-12,0-4.85-.13-7.19-2.55-7.44-7.47,0-1.16,0-2.33,0-3.5v-137Z" transform="translate(-13.1 -19.49)"/>
      <path class="cls-1" d="M255,74.86h30.62v5.47q0,56.43,0,112.86c0,9.56-1.93,11.48-11.28,11.48-3.33,0-6.66,0-10,0-6.61-.07-9.33-2.76-9.34-9.44q0-32.21,0-64.41Z" transform="translate(-13.1 -19.49)"/>
      <path class="cls-1" d="M170.78,44.64H140.47c0-6.5-.3-12.91.12-19.27.23-3.49,2.94-5.55,6.54-5.63,5.48-.13,11-.16,16.44,0,4.64.13,6.93,3.09,7.14,7.38C171,32.72,170.78,38.36,170.78,44.64Z" transform="translate(-13.1 -19.49)"/>
      <path class="cls-1" d="M255,44.52c0-5.92-.12-11.39,0-16.85.14-5.17,3-7.88,8.13-8,4.81-.08,9.63,0,14.44,0s7.6,2.46,7.84,7.13c.29,5.77.07,11.56.07,17.71Z" transform="translate(-13.1 -19.49)"/>
      <path class="cls-1" d="M208.91,44.72h-30c0-6.59-.27-13,.11-19.42.21-3.58,2.94-5.5,6.55-5.57,5.48-.11,11-.16,16.46,0a6.56,6.56,0,0,1,6.83,6.58C209.16,32.26,208.91,38.24,208.91,44.72Z" transform="translate(-13.1 -19.49)"/>
      <path class="cls-1" d="M216.91,44.51c0-6.2-.21-12.16.07-18.1.19-3.95,2.58-6.53,6.7-6.66,5.48-.18,11-.17,16.45,0,4.37.12,6.74,2.69,6.86,7,.17,5.79,0,11.59,0,17.8Z" transform="translate(-13.1 -19.49)"/>
      <path class="cls-1" d="M55.82,44.72h-30c0-6.71-.5-13.33.3-19.79.24-2,3.86-4.66,6.21-5,5.39-.75,11-.36,16.44-.2,4.4.13,6.74,2.94,7,7C56.05,32.55,55.82,38.36,55.82,44.72Z" transform="translate(-13.1 -19.49)"/>
      <path class="cls-1" d="M93.84,44.64H63.79c0-6.37-.28-12.49.1-18.57.24-3.92,2.87-6.28,7-6.35,5.32-.1,10.65-.08,16,0,3.85.05,6.64,2.12,6.89,5.85C94.15,31.81,93.84,38.1,93.84,44.64Z" transform="translate(-13.1 -19.49)"/>
      <path class="cls-1" d="M101.94,44.51c0-6.2-.24-12.17.08-18.1a6.59,6.59,0,0,1,6.77-6.66c5.49-.2,11-.16,16.48,0,4.08.11,6.66,2.4,6.85,6.47.26,6,.06,11.94.06,18.31Z" transform="translate(-13.1 -19.49)"/>
    </g>
  </g>
  <g id="Buttons">
    <path class="cls-3" d="M85.83,59.81a6.73,6.73,0,0,1-6.88,7,7,7,0,1,1,0-14A6.72,6.72,0,0,1,85.83,59.81Z" transform="translate(-13.1 -19.49)"/>
    <path class="cls-4" d="M124,59.63c.07,4.23-2.51,7-6.58,7.17a7,7,0,1,1-.33-14C121.2,52.72,123.93,55.44,124,59.63Z" transform="translate(-13.1 -19.49)"/>
    <path class="cls-5" d="M238.94,59.73a6.66,6.66,0,0,1-6.76,7.07,7,7,0,1,1-.1-14A6.67,6.67,0,0,1,238.94,59.73Z" transform="translate(-13.1 -19.49)"/>
    <path class="cls-6" d="M263.18,59.37a7.1,7.1,0,0,1,7.88-6.59c4,.39,6.32,3.35,6,7.68-.3,4.13-3.17,6.6-7.36,6.33A7.17,7.17,0,0,1,263.18,59.37Z" transform="translate(-13.1 -19.49)"/>
    <path class="cls-7" d="M47.63,59.77a7,7,0,0,1-6.9,7,6.61,6.61,0,0,1-7-6.76c-.13-4.35,2.76-7.35,7-7.29A6.91,6.91,0,0,1,47.63,59.77Z" transform="translate(-13.1 -19.49)"/>
    <path class="cls-8" d="M162.48,59.58a6.91,6.91,0,0,1-6.68,7.21c-4.16.16-7-2.4-7.17-6.54-.22-4.44,2.5-7.47,6.75-7.5A6.89,6.89,0,0,1,162.48,59.58Z" transform="translate(-13.1 -19.49)"/>
    <path class="cls-9" d="M200.85,59.73a7.13,7.13,0,0,1-6.91,7.07c-4.11.1-6.9-2.55-7.05-6.7-.17-4.42,2.63-7.39,6.92-7.35A7.15,7.15,0,0,1,200.85,59.73Z" transform="translate(-13.1 -19.49)"/>
  </g>
</svg>
