<?xml version="1.0" encoding="UTF-8" standalone="no"?>
<svg
   xmlns:dc="http://purl.org/dc/elements/1.1/"
   xmlns:cc="http://creativecommons.org/ns#"
   xmlns:rdf="http://www.w3.org/1999/02/22-rdf-syntax-ns#"
   xmlns:svg="http://www.w3.org/2000/svg"
   xmlns="http://www.w3.org/2000/svg"
   xmlns:sodipodi="http://sodipodi.sourceforge.net/DTD/sodipodi-0.dtd"
   xmlns:inkscape="http://www.inkscape.org/namespaces/inkscape"
   sodipodi:docname="aphrodite.svg"
   inkscape:version="1.0 (4035a4fb49, 2020-05-01)"
   width="256.0px"
   height="256.0px"
   viewBox="0 0 256.0 256.0"
   version="1.1"
   id="SVGRoot">
  <defs
     id="defs948">
    <inkscape:path-effect
       effect="skeletal"
       id="path-effect1890"
       is_visible="true"
       lpeversion="1"
       pattern="m 237.64084,34.070746 c 0,-4.220819 -3.19408,-7.64641 -7.12962,-7.64641 -3.93554,0 -7.1296,3.425591 -7.1296,7.64641 0,4.220817 3.19406,7.646408 7.1296,7.646408 3.93554,0 7.12962,-3.425591 7.12962,-7.646408 z"
       copytype="single_stretched"
       prop_scale="1.41421"
       scale_y_rel="false"
       spacing="0"
       normal_offset="0"
       tang_offset="0"
       prop_units="false"
       vertical_pattern="false"
       hide_knot="false"
       fuse_tolerance="0" />
    <inkscape:path-effect
       fuse_tolerance="0"
       hide_knot="false"
       vertical_pattern="false"
       prop_units="false"
       tang_offset="0"
       normal_offset="0"
       spacing="0"
       scale_y_rel="false"
       prop_scale="1.41421"
       copytype="single_stretched"
       pattern="m -43.697906,-11.263804 c 0,-4.220817 3.194062,-7.646408 7.129603,-7.646408 3.93554,0 7.129602,3.425591 7.129602,7.646408 0,4.2208171 -3.194062,7.6464079 -7.129602,7.6464079 -3.935541,0 -7.129603,-3.4255908 -7.129603,-7.6464079 z"
       lpeversion="1"
       is_visible="true"
       id="path-effect1871"
       effect="skeletal" />
    <inkscape:path-effect
       fuse_tolerance="0"
       hide_knot="false"
       vertical_pattern="false"
       prop_units="false"
       tang_offset="0"
       normal_offset="0"
       spacing="0"
       scale_y_rel="false"
       prop_scale="1.41421"
       copytype="single_stretched"
       pattern="m 33.246662,101.87743 c 0,-2.760003 2.24,-5.000003 5,-5.000003 2.76,0 5,2.24 5,5.000003 0,2.76 -2.24,5 -5,5 -2.76,0 -5,-2.24 -5,-5 z"
       lpeversion="1"
       is_visible="true"
       id="path-effect1867"
       effect="skeletal" />
    <inkscape:path-effect
       fuse_tolerance="0"
       hide_knot="false"
       vertical_pattern="false"
       prop_units="false"
       tang_offset="0"
       normal_offset="0"
       spacing="0"
       scale_y_rel="false"
       prop_scale="1.41421"
       copytype="single_stretched"
       pattern="m 30.122277,99.536083 c 0,-2.76 2.24,-5 5,-5 2.76,0 5,2.24 5,5 0,2.760007 -2.24,5.000007 -5,5.000007 -2.76,0 -5,-2.24 -5,-5.000007 z"
       lpeversion="1"
       is_visible="true"
       id="path-effect1863"
       effect="skeletal" />
    <inkscape:path-effect
       fuse_tolerance="0"
       hide_knot="false"
       vertical_pattern="false"
       prop_units="false"
       tang_offset="0"
       normal_offset="0"
       spacing="0"
       scale_y_rel="false"
       prop_scale="1.41421"
       copytype="single_stretched"
       pattern="M 0,5 C 0,2.24 2.24,0 5,0 7.76,0 10,2.24 10,5 10,7.76 7.76,10 5,10 2.24,10 0,7.76 0,5 Z"
       lpeversion="1"
       is_visible="true"
       id="path-effect1859"
       effect="skeletal" />
    <inkscape:path-effect
       fuse_tolerance="0"
       hide_knot="false"
       vertical_pattern="false"
       prop_units="false"
       tang_offset="0"
       normal_offset="0"
       spacing="0"
       scale_y_rel="false"
       prop_scale="1.41421"
       copytype="single_stretched"
       pattern="M 0,5 C 0,2.24 2.24,0 5,0 7.76,0 10,2.24 10,5 10,7.76 7.76,10 5,10 2.24,10 0,7.76 0,5 Z"
       lpeversion="1"
       is_visible="true"
       id="path-effect1853"
       effect="skeletal" />
    <marker
       inkscape:isstock="true"
       style="overflow:visible;"
       id="Arrow1Mend"
       refX="0.0"
       refY="0.0"
       orient="auto"
       inkscape:stockid="Arrow1Mend">
      <path
         transform="scale(0.4) rotate(180) translate(10,0)"
         style="fill-rule:evenodd;stroke:#000000;stroke-width:1pt;stroke-opacity:1;fill:#000000;fill-opacity:1"
         d="M 0.0,0.0 L 5.0,-5.0 L -12.5,0.0 L 5.0,5.0 L 0.0,0.0 z "
         id="path1558" />
    </marker>
    <marker
       inkscape:isstock="true"
       style="overflow:visible"
       id="Arrow1Lstart"
       refX="0.0"
       refY="0.0"
       orient="auto"
       inkscape:stockid="Arrow1Lstart">
      <path
         transform="scale(0.8) translate(12.5,0)"
         style="fill-rule:evenodd;stroke:#005b00;stroke-width:1pt;stroke-opacity:1;fill:#005b00;fill-opacity:1"
         d="M 0.0,0.0 L 5.0,-5.0 L -12.5,0.0 L 5.0,5.0 L 0.0,0.0 z "
         id="path1549" />
    </marker>
    <inkscape:path-effect
       fuse_tolerance="0"
       hide_knot="false"
       vertical_pattern="false"
       prop_units="false"
       tang_offset="0"
       normal_offset="0"
       spacing="0"
       scale_y_rel="false"
       prop_scale="1.41421"
       copytype="single_stretched"
       pattern="M 0,5 C 0,2.24 2.24,0 5,0 7.76,0 10,2.24 10,5 10,7.76 7.76,10 5,10 2.24,10 0,7.76 0,5 Z"
       lpeversion="1"
       is_visible="true"
       id="path-effect966"
       effect="skeletal" />
  </defs>
  <sodipodi:namedview
     inkscape:window-maximized="1"
     inkscape:window-y="-8"
     inkscape:window-x="-8"
     inkscape:window-height="1017"
     inkscape:window-width="1920"
     showgrid="true"
     inkscape:document-rotation="0"
     inkscape:current-layer="layer1"
     inkscape:document-units="px"
     inkscape:cy="139.38763"
     inkscape:cx="97.90203"
     inkscape:zoom="2.8"
     inkscape:pageshadow="2"
     inkscape:pageopacity="0.0"
     borderopacity="1.0"
     bordercolor="#666666"
     pagecolor="#ffffff"
     id="base">
    <inkscape:grid
       type="xygrid"
       id="grid957" />
  </sodipodi:namedview>
  <metadata
     id="metadata951">
    <rdf:RDF>
      <cc:Work
         rdf:about="">
        <dc:format>image/svg+xml</dc:format>
        <dc:type
           rdf:resource="http://purl.org/dc/dcmitype/StillImage" />
        <dc:title></dc:title>
      </cc:Work>
    </rdf:RDF>
  </metadata>
  <g
     id="layer1"
     inkscape:groupmode="layer"
     inkscape:label="Layer 1">
    <path
       sodipodi:nodetypes="ccc"
       inkscape:original-d="m 138.88348,241.86051 c -24.22236,-42.92446 -60.643721,-73.60414 -89.999998,-120 -64.44499,-89.823216 48.316147,-148.795996 85.658668,-26.074602"
       inkscape:path-effect="#path-effect1871"
       id="path1869"
       d="m 138.88348,241.86051 c -1.51642,0.85572 -6.27147,-4.60785 -14.46918,-14.09212 -8.1977,-9.48427 -20.21623,-22.77848 -35.163438,-39.10403 C 74.944549,173.11829 55.634495,151.66636 40.098226,127.78413 32.329192,117.60574 25.388297,105.24128 21.632727,91.402761 18.975699,81.612149 18.024352,71.481338 19.209919,61.266659 21.538231,42.853217 33.388775,26.946338 49.585077,19.886116 c 8.569654,-3.442108 17.505431,-4.166934 25.684404,-2.856843 0,0 1.4e-5,6e-6 1.4e-5,6e-6 10.283422,1.703456 19.06565,6.129241 25.960895,11.411457 10.27573,7.863617 17.2759,17.466665 21.94582,25.821552 13.53772,24.122414 13.82661,40.774871 11.36594,41.523622 -2.46067,0.74875 -7.72333,-14.687624 -22.72463,-34.072832 C 106.64901,55.063779 99.829834,47.610507 91.452667,42.470438 85.878039,39.060736 79.37868,36.324909 72.803715,35.814566 c 0,3e-6 -1e-5,-10e-7 -1e-5,-10e-7 -5.159921,-0.440473 -10.6223,0.299823 -15.303783,2.53728 -8.80551,3.656622 -15.532714,14.194711 -17.052588,25.650473 -1.028931,6.976947 -0.190224,14.262211 2.055147,21.731047 3.159548,10.509685 8.974835,20.926195 15.166257,30.203525 13.541151,22.052 32.21643,45.39129 44.697802,61.72332 14.27077,18.5775 23.49766,32.1872 30.05385,44.67622 6.02788,11.48261 7.97951,18.66836 6.46309,19.52408 z"
       style="fill:#000000;stroke:none;stroke-width:1.4767px;stroke-linecap:butt;stroke-linejoin:miter;stroke-opacity:1" />
    <path
       style="fill:#000000;stroke:none;stroke-width:1.4767px;stroke-linecap:butt;stroke-linejoin:miter;stroke-opacity:1"
       d="m 135,110 c 1.76671,0.53759 5.2986,-5.99414 11.4054,-16.92188 5.573,-9.972541 15.35259,-27.276422 30.28673,-38.278275 5.03408,-3.716155 10.77226,-7.028999 16.60313,-8.095551 4.16114,-0.756494 8.57494,-0.714551 11.93523,0.82833 3.03396,1.189807 5.88295,3.732817 7.81982,6.829771 2.37239,3.586602 3.46163,8.530078 3.7967,13.915286 0.232,4.351212 -0.30279,8.910647 -1.37907,13.612504 -0.6371,2.783213 -1.45463,5.575646 -2.384,8.339917 -3.58239,10.406858 -9.23656,20.207298 -15.34941,29.153098 -37.91398,59.44601 -62.97217,104.74204 -58.85105,107.47731 4.12023,2.73468 36.08312,-37.87768 75.97405,-95.65807 7.2458,-9.67272 13.99154,-20.95699 18.59237,-33.806296 1.25094,-3.432139 2.32522,-7.027459 3.15161,-10.75707 1.39527,-6.297104 2.0461,-12.806985 1.74158,-19.413856 -0.33835,-8.367918 -2.76821,-16.838715 -7.5849,-24.342011 -4.44148,-6.742412 -10.89262,-11.795733 -18.352,-14.53147 -8.28206,-2.811805 -16.56836,-2.651954 -23.77919,-0.606852 -9.64113,2.744759 -17.44695,7.887315 -23.4062,13.425321 -17.35195,16.205732 -25.04855,36.11477 -28.36506,48.012721 C 133.29537,101.95572 133.23329,109.46241 135,110 Z"
       id="path1869-3"
       inkscape:path-effect="#path-effect1890"
       inkscape:original-d="M 138.88348,226.86051 206.29603,125.29282 C 270.74102,35.469598 172.34254,-12.721392 135,110"
       sodipodi:nodetypes="ccc" />
  </g>
</svg>
