<?xml version="1.0" encoding="UTF-8" standalone="no"?>
<svg
   xmlns:dc="http://purl.org/dc/elements/1.1/"
   xmlns:cc="http://creativecommons.org/ns#"
   xmlns:rdf="http://www.w3.org/1999/02/22-rdf-syntax-ns#"
   xmlns:svg="http://www.w3.org/2000/svg"
   xmlns="http://www.w3.org/2000/svg"
   xmlns:sodipodi="http://sodipodi.sourceforge.net/DTD/sodipodi-0.dtd"
   xmlns:inkscape="http://www.inkscape.org/namespaces/inkscape"
   sodipodi:docname="ares.svg"
   inkscape:version="1.0 (4035a4fb49, 2020-05-01)"
   width="256.0px"
   height="256.0px"
   viewBox="0 0 256.0 256.0"
   version="1.1"
   id="SVGRoot">
  <defs
     id="defs10">
    <inkscape:path-effect
       fuse_tolerance="0"
       hide_knot="false"
       vertical_pattern="false"
       prop_units="false"
       tang_offset="0"
       normal_offset="0"
       spacing="0"
       scale_y_rel="false"
       prop_scale="1"
       copytype="single_stretched"
       pattern="m 42.030683,-27.429732 c 0.862045,-2.621923 3.689613,-4.050231 6.311535,-3.188186 2.621923,0.862044 4.050231,3.689612 3.188186,6.311535 -0.862044,2.621923 -3.689612,4.05023 -6.311535,3.188186 -2.621923,-0.862045 -4.05023,-3.689612 -3.188186,-6.311535 z"
       lpeversion="1"
       is_visible="true"
       id="path-effect946"
       effect="skeletal" />
    <inkscape:path-effect
       fuse_tolerance="0"
       hide_knot="false"
       vertical_pattern="false"
       prop_units="false"
       tang_offset="0"
       normal_offset="0"
       spacing="0"
       scale_y_rel="false"
       prop_scale="1"
       copytype="single_stretched"
       pattern="M 0,5 C 0,2.24 2.24,0 5,0 7.76,0 10,2.24 10,5 10,7.76 7.76,10 5,10 2.24,10 0,7.76 0,5 Z"
       lpeversion="1"
       is_visible="true"
       id="path-effect942"
       effect="skeletal" />
    <inkscape:path-effect
       fuse_tolerance="0"
       hide_knot="false"
       vertical_pattern="false"
       prop_units="false"
       tang_offset="0"
       normal_offset="0"
       spacing="0"
       scale_y_rel="false"
       prop_scale="1"
       copytype="single_stretched"
       pattern="m 42.030683,-27.429732 c 0.862045,-2.621923 3.689613,-4.050231 6.311535,-3.188186 2.621923,0.862044 4.050231,3.689612 3.188186,6.311535 -0.862044,2.621923 -3.689612,4.05023 -6.311535,3.188186 -2.621923,-0.862045 -4.05023,-3.689612 -3.188186,-6.311535 z"
       lpeversion="1"
       is_visible="true"
       id="path-effect938"
       effect="skeletal" />
    <inkscape:path-effect
       fuse_tolerance="0"
       hide_knot="false"
       vertical_pattern="false"
       prop_units="false"
       tang_offset="0"
       normal_offset="0"
       spacing="0"
       scale_y_rel="false"
       prop_scale="1"
       copytype="single_stretched"
       pattern="M 0,5 C 0,2.24 2.24,0 5,0 7.76,0 10,2.24 10,5 10,7.76 7.76,10 5,10 2.24,10 0,7.76 0,5 Z"
       lpeversion="1"
       is_visible="true"
       id="path-effect934"
       effect="skeletal" />
    <inkscape:path-effect
       end_linecap_type="zerowidth"
       scale_width="1"
       miter_limit="4"
       linejoin_type="extrp_arc"
       start_linecap_type="zerowidth"
       interpolator_beta="0.2"
       interpolator_type="CubicBezierJohan"
       sort_points="true"
       offset_points="1,0.5"
       lpeversion="1"
       is_visible="true"
       id="path-effect930"
       effect="powerstroke" />
    <inkscape:path-effect
       only_selected="false"
       apply_with_weight="true"
       apply_no_weight="true"
       helper_size="0"
       steps="2"
       weight="33.333333"
       lpeversion="1"
       is_visible="true"
       id="path-effect928"
       effect="bspline" />
    <inkscape:path-effect
       end_linecap_type="zerowidth"
       scale_width="1"
       miter_limit="4"
       linejoin_type="extrp_arc"
       start_linecap_type="zerowidth"
       interpolator_beta="0.2"
       interpolator_type="CubicBezierJohan"
       sort_points="true"
       offset_points="1,0.5"
       lpeversion="1"
       is_visible="true"
       id="path-effect924"
       effect="powerstroke" />
    <inkscape:path-effect
       only_selected="false"
       apply_with_weight="true"
       apply_no_weight="true"
       helper_size="0"
       steps="2"
       weight="33.333333"
       lpeversion="1"
       is_visible="true"
       id="path-effect922"
       effect="bspline" />
    <inkscape:path-effect
       end_linecap_type="zerowidth"
       scale_width="1"
       miter_limit="4"
       linejoin_type="extrp_arc"
       start_linecap_type="zerowidth"
       interpolator_beta="0.2"
       interpolator_type="CubicBezierJohan"
       sort_points="true"
       offset_points="1,0.5"
       lpeversion="1"
       is_visible="true"
       id="path-effect918"
       effect="powerstroke" />
    <inkscape:path-effect
       end_linecap_type="zerowidth"
       scale_width="1"
       miter_limit="4"
       linejoin_type="extrp_arc"
       start_linecap_type="zerowidth"
       interpolator_beta="0.2"
       interpolator_type="CubicBezierJohan"
       sort_points="true"
       offset_points="1,0.5"
       lpeversion="1"
       is_visible="true"
       id="path-effect912"
       effect="powerstroke" />
    <inkscape:path-effect
       end_linecap_type="zerowidth"
       scale_width="1"
       miter_limit="4"
       linejoin_type="extrp_arc"
       start_linecap_type="zerowidth"
       interpolator_beta="0.2"
       interpolator_type="CubicBezierJohan"
       sort_points="true"
       offset_points="2,0.5"
       lpeversion="1"
       is_visible="true"
       id="path-effect902"
       effect="powerstroke" />
    <inkscape:path-effect
       end_linecap_type="zerowidth"
       scale_width="1"
       miter_limit="4"
       linejoin_type="extrp_arc"
       start_linecap_type="zerowidth"
       interpolator_beta="0.2"
       interpolator_type="CubicBezierJohan"
       sort_points="true"
       offset_points="3,0.5"
       lpeversion="1"
       is_visible="true"
       id="path-effect75"
       effect="powerstroke" />
    <inkscape:path-effect
       end_linecap_type="zerowidth"
       scale_width="1"
       miter_limit="4"
       linejoin_type="extrp_arc"
       start_linecap_type="zerowidth"
       interpolator_beta="0.2"
       interpolator_type="CubicBezierJohan"
       sort_points="true"
       offset_points="1,0.5002658"
       lpeversion="1"
       is_visible="true"
       id="path-effect71"
       effect="powerstroke" />
    <inkscape:path-effect
       end_linecap_type="zerowidth"
       scale_width="1"
       miter_limit="4"
       linejoin_type="extrp_arc"
       start_linecap_type="zerowidth"
       interpolator_beta="0.2"
       interpolator_type="CubicBezierJohan"
       sort_points="true"
       offset_points="1,0.5"
       lpeversion="1"
       is_visible="true"
       id="path-effect67"
       effect="powerstroke" />
    <inkscape:path-effect
       end_linecap_type="zerowidth"
       scale_width="1"
       miter_limit="4"
       linejoin_type="extrp_arc"
       start_linecap_type="zerowidth"
       interpolator_beta="0.2"
       interpolator_type="CubicBezierJohan"
       sort_points="true"
       offset_points="1,0.5"
       lpeversion="1"
       is_visible="true"
       id="path-effect63"
       effect="powerstroke" />
    <inkscape:path-effect
       end_linecap_type="zerowidth"
       scale_width="1"
       miter_limit="4"
       linejoin_type="extrp_arc"
       start_linecap_type="zerowidth"
       interpolator_beta="0.2"
       interpolator_type="CubicBezierJohan"
       sort_points="true"
       offset_points="1,0.5"
       lpeversion="1"
       is_visible="true"
       id="path-effect59"
       effect="powerstroke" />
    <inkscape:path-effect
       fuse_tolerance="0"
       hide_knot="false"
       vertical_pattern="false"
       prop_units="false"
       tang_offset="0"
       normal_offset="0"
       spacing="0"
       scale_y_rel="false"
       prop_scale="1"
       copytype="single_stretched"
       pattern="M 0,5 C 0,2.24 2.24,0 5,0 7.76,0 10,2.24 10,5 10,7.76 7.76,10 5,10 2.24,10 0,7.76 0,5 Z"
       lpeversion="1"
       is_visible="true"
       id="path-effect55"
       effect="skeletal" />
    <inkscape:path-effect
       fuse_tolerance="0"
       hide_knot="false"
       vertical_pattern="false"
       prop_units="false"
       tang_offset="0"
       normal_offset="0"
       spacing="0"
       scale_y_rel="false"
       prop_scale="1"
       copytype="single_stretched"
       pattern="m 42.030683,-27.429732 c 0.862045,-2.621923 3.689613,-4.050231 6.311535,-3.188186 2.621923,0.862044 4.050231,3.689612 3.188186,6.311535 -0.862044,2.621923 -3.689612,4.05023 -6.311535,3.188186 -2.621923,-0.862045 -4.05023,-3.689612 -3.188186,-6.311535 z"
       lpeversion="1"
       is_visible="true"
       id="path-effect51"
       effect="skeletal" />
    <inkscape:path-effect
       fuse_tolerance="0"
       hide_knot="false"
       vertical_pattern="false"
       prop_units="false"
       tang_offset="0"
       normal_offset="0"
       spacing="0"
       scale_y_rel="false"
       prop_scale="1"
       copytype="single_stretched"
       pattern="m 42.030683,-27.429732 c 0.862045,-2.621923 3.689613,-4.050231 6.311535,-3.188186 2.621923,0.862044 4.050231,3.689612 3.188186,6.311535 -0.862044,2.621923 -3.689612,4.05023 -6.311535,3.188186 -2.621923,-0.862045 -4.05023,-3.689612 -3.188186,-6.311535 z"
       lpeversion="1"
       is_visible="true"
       id="path-effect47"
       effect="skeletal" />
    <inkscape:path-effect
       fuse_tolerance="0"
       hide_knot="false"
       vertical_pattern="false"
       prop_units="false"
       tang_offset="0"
       normal_offset="0"
       spacing="0"
       scale_y_rel="false"
       prop_scale="1"
       copytype="single_stretched"
       pattern="m -25,0 c 0,-2.76 2.24,-5 5,-5 2.76,0 5,2.24 5,5 0,2.76 -2.24,5 -5,5 -2.76,0 -5,-2.24 -5,-5 z"
       lpeversion="1"
       is_visible="true"
       id="path-effect43"
       effect="skeletal" />
  </defs>
  <sodipodi:namedview
     inkscape:window-maximized="1"
     inkscape:window-y="-8"
     inkscape:window-x="-8"
     inkscape:window-height="1017"
     inkscape:window-width="1920"
     showgrid="true"
     inkscape:document-rotation="0"
     inkscape:current-layer="layer2"
     inkscape:document-units="px"
     inkscape:cy="89.005159"
     inkscape:cx="171.5761"
     inkscape:zoom="2.8"
     inkscape:pageshadow="2"
     inkscape:pageopacity="0.0"
     borderopacity="1.0"
     bordercolor="#666666"
     pagecolor="#ffffff"
     id="base">
    <inkscape:grid
       type="xygrid"
       id="grid19" />
  </sodipodi:namedview>
  <metadata
     id="metadata13">
    <rdf:RDF>
      <cc:Work
         rdf:about="">
        <dc:format>image/svg+xml</dc:format>
        <dc:type
           rdf:resource="http://purl.org/dc/dcmitype/StillImage" />
        <dc:title></dc:title>
      </cc:Work>
    </rdf:RDF>
  </metadata>
  <g
     id="layer1"
     inkscape:groupmode="layer"
     inkscape:label="Layer 1" />
  <g
     inkscape:label="Layer 2"
     id="layer2"
     inkscape:groupmode="layer">
    <path
       sodipodi:nodetypes="cc"
       inkscape:original-d="M 32.855145,48.503196 C 192.98323,153.78376 219.92072,167.90367 219.92072,167.90367"
       inkscape:path-effect="#path-effect47"
       id="path45"
       d="m 38.370325,50.260112 c 17.647767,8.422967 70.344885,41.542709 119.116665,73.572278 11.68051,7.67087 22.16063,14.64516 30.89971,20.57449 0,0 0,0 0,1e-5 20.52177,13.49745 32.228,22.19866 31.53614,23.49295 0,0 0,0 0,0 0,0 0,0 0,0 0,0 0,10e-6 0,10e-6 0,0 0,0 0,0 0,0 0,0 0,0 0,0 0,0 0,0 0,0 0,0 0,0 0,0 0,0 0,0 0,0 0,0 0,0 0,0 0,0 0,0 0,0 0,0 0,0 -0.002,0.004 -0.002,0.004 -0.005,0.009 0,0 0,0 0,0 -0.2628,0.44307 -2.05733,-0.0288 -5.54173,-1.53023 -6.13318,-2.64281 -16.70182,-8.13087 -29.97833,-15.47362 C 158.95002,136.3431 126.36036,115.99188 94.116538,94.31598 45.212817,61.440461 21.58182,42.247258 38.370325,50.260112 Z"
       style="fill:#000000;stroke:none;stroke-width:1px;stroke-linecap:butt;stroke-linejoin:miter;stroke-opacity:1" />
    <path
       sodipodi:nodetypes="ccc"
       inkscape:original-d="m 70.854027,60.996592 c 0,0 -1.626511,-11.061395 -37.998882,-12.493396 6.441208,28.434327 20.690789,33.119346 20.690789,33.119346"
       inkscape:path-effect="#path-effect51"
       id="path49"
       d="m 68.688031,60.046313 c -1.381238,-0.853337 -2.269297,-1.242025 -4.73294,-2.214188 -3.437385,-1.629649 -6.9895,-3.088213 -12.095475,-4.363379 -5.213713,-1.302073 -10.217666,-1.99155 -16.664386,-3.01964 0,0 -3e-6,-10e-7 -3e-6,-10e-7 1.184965,3.318928 2.493431,6.566282 4.011184,9.675779 2.830817,5.799637 5.720621,9.746138 8.56422,13.175544 0,0 10e-7,10e-7 10e-7,10e-7 3.983565,4.104628 6.302531,7.255348 5.78041,8.312148 0,0 -1e-6,2e-6 -1e-6,2e-6 0,0 -10e-7,2e-6 -10e-7,2e-6 0,0 -10e-7,2e-6 -10e-7,2e-6 0,0 -1e-6,10e-7 -1e-6,10e-7 0,0 -10e-7,10e-7 -10e-7,10e-7 0,0 0,10e-7 0,10e-7 0,0 -10e-7,2e-6 -10e-7,2e-6 0,0 -1e-6,10e-7 -1e-6,10e-7 -0.0048,0.0094 -0.0052,0.01011 -0.01085,0.02091 0,0 -10e-7,2e-6 -10e-7,2e-6 0,0 -1e-6,1e-6 -1e-6,1e-6 -0.240498,0.441957 -1.005354,0.504225 -2.408318,0.0885 C 49.361359,81.197379 46.739755,79.95981 43.43146,78.120349 36.956377,71.690314 32.392197,60.763955 30.515072,46.557297 c 1e-6,0 0,-3e-6 0,-3e-6 4.828159,-0.304594 9.917564,-0.482551 15.021052,-0.148786 9.875975,0.645883 16.831682,3.067174 21.45168,6.308722 0,0 2e-6,2e-6 2e-6,2e-6 2.437542,1.906337 3.790587,3.999939 4.29252,5.654196 0.23006,0.761749 0.258476,1.405771 0.160181,1.858814 -0.05205,0.220231 -0.130964,0.394299 -0.231127,0.522551 -0.05019,0.06426 -0.104785,0.115732 -0.163058,0.155691 -0.1236,0.08453 -0.256692,0.114629 -0.39845,0.107013 0,0 0,0 0,0 -0.06643,-0.0037 -0.135647,-0.0158 -0.207355,-0.03499 -0.136911,-0.03665 -0.295755,-0.103116 -0.462913,-0.192664 l 0,0 0,0 c -0.246944,-0.124839 -0.79218,-0.436968 -1.215146,-0.695396 -0.02457,-0.01527 -0.04937,-0.03065 -0.07443,-0.04613 z"
       style="fill:#000000;stroke:none;stroke-width:1px;stroke-linecap:butt;stroke-linejoin:miter;stroke-opacity:1" />
    <path
       sodipodi:nodetypes="cc"
       inkscape:original-d="M 202.02909,46.228319 C 133.0586,61.148479 37.776146,46.200274 96.748532,206.3564"
       inkscape:path-effect="#path-effect938"
       id="path936"
       d="m 196.19671,49.005004 c -13.38449,4.277537 -21.1252,4.612667 -47.2724,10.085915 -7.76071,1.630141 -16.34996,3.639259 -24.57047,6.565204 0,1e-6 -1e-5,2e-6 -1e-5,3e-6 -6.97125,2.495145 -13.99817,5.692745 -20.04877,10.171898 -5.646805,4.156787 -10.557384,9.540216 -13.953972,15.802421 -4.039763,7.316426 -6.070383,15.871895 -6.908876,24.626005 -0.218183,2.32443 -0.349179,4.6561 -0.404802,6.99141 -0.252905,10.61828 1.074324,21.16164 2.534307,30.06902 2.953469,17.88688 9.293011,41.25847 10.369002,45.96688 1.837794,8.04195 1.41306,10.14891 -2.792035,1.71537 -3.694588,-7.40969 -10.990541,-24.97976 -15.694778,-46.10529 -2.573813,-11.49502 -4.627941,-25.15277 -3.654579,-39.41293 0.631488,-9.47576 2.854653,-19.461734 7.767177,-28.623757 4.100503,-7.535523 9.960281,-14.039663 16.948817,-19.027542 5.634319,-4.001194 11.747089,-7.02531 17.974069,-9.35801 1.63552,-0.612685 3.26401,-1.172094 4.87458,-1.684581 9.14638,-2.926455 18.25741,-4.646104 26.08956,-5.838104 16.04539,-2.453888 45.21773,-4.802378 47.46056,-4.961323 7.7662,-0.550376 10.70452,0.0063 1.28262,3.017411 z"
       style="fill:#000000;stroke:none;stroke-width:1px;stroke-linecap:butt;stroke-linejoin:miter;stroke-opacity:1" />
    <path
       sodipodi:nodetypes="cc"
       inkscape:original-d="M 194.15588,54.166365 C 168.82455,145.22052 130.31396,169.25088 99.871878,196.85668"
       inkscape:path-effect="#path-effect946"
       id="path944"
       d="m 194.46096,58.816753 c -0.96967,8.838823 -6.10947,30.80181 -17.17215,54.285157 -6.29717,13.36183 -14.39166,26.81589 -24.53919,39.24477 -1.84504,2.24823 -3.7426,4.42573 -5.68056,6.5386 -14.22944,15.51371 -32.36847,28.95369 -38.69006,33.38807 -8.11163,5.69004 -11.159067,6.64951 -6.29124,0.48516 3.44964,-4.36845 8.96016,-9.94659 17.14281,-18.14893 7.5522,-7.57037 17.53429,-17.52652 25.88076,-28.34686 8.86153,-11.42084 16.659,-23.89853 23.63608,-37.37852 0.10782,-0.20825 0.21537,-0.41656 0.32263,-0.62492 9.26768,-18.002174 17.19255,-38.486899 20.30915,-45.71492 3.81485,-8.847371 5.96563,-11.784313 5.08177,-3.727607 z"
       style="fill:#000000;stroke:none;stroke-width:1px;stroke-linecap:butt;stroke-linejoin:miter;stroke-opacity:1" />
  </g>
</svg>
