<?xml version="1.0" encoding="UTF-8" standalone="no"?>
<svg
   xmlns:dc="http://purl.org/dc/elements/1.1/"
   xmlns:cc="http://creativecommons.org/ns#"
   xmlns:rdf="http://www.w3.org/1999/02/22-rdf-syntax-ns#"
   xmlns:svg="http://www.w3.org/2000/svg"
   xmlns="http://www.w3.org/2000/svg"
   xmlns:sodipodi="http://sodipodi.sourceforge.net/DTD/sodipodi-0.dtd"
   xmlns:inkscape="http://www.inkscape.org/namespaces/inkscape"
   sodipodi:docname="hades.svg"
   inkscape:version="1.0 (4035a4fb49, 2020-05-01)"
   width="256.0px"
   height="256.0px"
   viewBox="0 0 256.0 256.0"
   version="1.1"
   id="SVGRoot">
  <defs
     id="defs1452">
    <inkscape:path-effect
       fuse_tolerance="0"
       hide_knot="false"
       vertical_pattern="false"
       prop_units="false"
       tang_offset="0"
       normal_offset="0"
       spacing="0"
       scale_y_rel="false"
       prop_scale="0.447499"
       copytype="single_stretched"
       pattern="M 0,5 C 0,2.24 2.24,0 5,0 7.76,0 10,2.24 10,5 10,7.76 7.76,10 5,10 2.24,10 0,7.76 0,5 Z"
       lpeversion="1"
       is_visible="true"
       id="path-effect2133"
       effect="skeletal" />
    <inkscape:path-effect
       fuse_tolerance="0"
       hide_knot="false"
       vertical_pattern="false"
       prop_units="false"
       tang_offset="0"
       normal_offset="0"
       spacing="0"
       scale_y_rel="false"
       prop_scale="0.447499"
       copytype="single_stretched"
       pattern="M 0,5 C 0,2.24 2.24,0 5,0 7.76,0 10,2.24 10,5 10,7.76 7.76,10 5,10 2.24,10 0,7.76 0,5 Z"
       lpeversion="1"
       is_visible="true"
       id="path-effect2129"
       effect="skeletal" />
    <inkscape:path-effect
       fuse_tolerance="0"
       hide_knot="false"
       vertical_pattern="false"
       prop_units="false"
       tang_offset="0"
       normal_offset="0"
       spacing="0"
       scale_y_rel="false"
       prop_scale="0.447499"
       copytype="single_stretched"
       pattern="M 0,5 C 0,2.24 2.24,0 5,0 7.76,0 10,2.24 10,5 10,7.76 7.76,10 5,10 2.24,10 0,7.76 0,5 Z"
       lpeversion="1"
       is_visible="true"
       id="path-effect2125"
       effect="skeletal" />
    <inkscape:path-effect
       fuse_tolerance="0"
       hide_knot="false"
       vertical_pattern="false"
       prop_units="false"
       tang_offset="0"
       normal_offset="0"
       spacing="0"
       scale_y_rel="false"
       prop_scale="0.447499"
       copytype="single_stretched"
       pattern="M 0,5 C 0,2.24 2.24,0 5,0 7.76,0 10,2.24 10,5 10,7.76 7.76,10 5,10 2.24,10 0,7.76 0,5 Z"
       lpeversion="1"
       is_visible="true"
       id="path-effect2121"
       effect="skeletal" />
    <inkscape:path-effect
       fuse_tolerance="0"
       hide_knot="false"
       vertical_pattern="false"
       prop_units="false"
       tang_offset="0"
       normal_offset="0"
       spacing="0"
       scale_y_rel="false"
       prop_scale="0.447499"
       copytype="single_stretched"
       pattern="M 0,5 C 0,2.24 2.24,0 5,0 7.76,0 10,2.24 10,5 10,7.76 7.76,10 5,10 2.24,10 0,7.76 0,5 Z"
       lpeversion="1"
       is_visible="true"
       id="path-effect2117"
       effect="skeletal" />
    <inkscape:path-effect
       fuse_tolerance="0"
       hide_knot="false"
       vertical_pattern="false"
       prop_units="false"
       tang_offset="0"
       normal_offset="0"
       spacing="0"
       scale_y_rel="false"
       prop_scale="0.447499"
       copytype="single_stretched"
       pattern="M 0,5 C 0,2.24 2.24,0 5,0 7.76,0 10,2.24 10,5 10,7.76 7.76,10 5,10 2.24,10 0,7.76 0,5 Z"
       lpeversion="1"
       is_visible="true"
       id="path-effect2113"
       effect="skeletal" />
    <inkscape:path-effect
       fuse_tolerance="0"
       hide_knot="false"
       vertical_pattern="false"
       prop_units="false"
       tang_offset="0"
       normal_offset="0"
       spacing="0"
       scale_y_rel="false"
       prop_scale="0.447499"
       copytype="single_stretched"
       pattern="M 0,5 C 0,2.24 2.24,0 5,0 7.76,0 10,2.24 10,5 10,7.76 7.76,10 5,10 2.24,10 0,7.76 0,5 Z"
       lpeversion="1"
       is_visible="true"
       id="path-effect2109"
       effect="skeletal" />
    <inkscape:path-effect
       fuse_tolerance="0"
       hide_knot="false"
       vertical_pattern="false"
       prop_units="false"
       tang_offset="0"
       normal_offset="0"
       spacing="0"
       scale_y_rel="false"
       prop_scale="0.447499"
       copytype="single_stretched"
       pattern="M 0,5 C 0,2.24 2.24,0 5,0 7.76,0 10,2.24 10,5 10,7.76 7.76,10 5,10 2.24,10 0,7.76 0,5 Z"
       lpeversion="1"
       is_visible="true"
       id="path-effect2105"
       effect="skeletal" />
    <inkscape:path-effect
       fuse_tolerance="0"
       hide_knot="false"
       vertical_pattern="false"
       prop_units="false"
       tang_offset="0"
       normal_offset="0"
       spacing="0"
       scale_y_rel="false"
       prop_scale="0.447499"
       copytype="single_stretched"
       pattern="M 0,5 C 0,2.24 2.24,0 5,0 7.76,0 10,2.24 10,5 10,7.76 7.76,10 5,10 2.24,10 0,7.76 0,5 Z"
       lpeversion="1"
       is_visible="true"
       id="path-effect2101"
       effect="skeletal" />
    <inkscape:path-effect
       fuse_tolerance="0"
       hide_knot="false"
       vertical_pattern="false"
       prop_units="false"
       tang_offset="0"
       normal_offset="0"
       spacing="0"
       scale_y_rel="false"
       prop_scale="0.447499"
       copytype="single_stretched"
       pattern="M 0,5 C 0,2.24 2.24,0 5,0 7.76,0 10,2.24 10,5 10,7.76 7.76,10 5,10 2.24,10 0,7.76 0,5 Z"
       lpeversion="1"
       is_visible="true"
       id="path-effect2097"
       effect="skeletal" />
    <inkscape:path-effect
       fuse_tolerance="0"
       hide_knot="false"
       vertical_pattern="false"
       prop_units="false"
       tang_offset="0"
       normal_offset="0"
       spacing="0"
       scale_y_rel="false"
       prop_scale="0.447499"
       copytype="single_stretched"
       pattern="M 0,5 C 0,2.24 2.24,0 5,0 7.76,0 10,2.24 10,5 10,7.76 7.76,10 5,10 2.24,10 0,7.76 0,5 Z"
       lpeversion="1"
       is_visible="true"
       id="path-effect2093"
       effect="skeletal" />
    <inkscape:path-effect
       fuse_tolerance="0"
       hide_knot="false"
       vertical_pattern="false"
       prop_units="false"
       tang_offset="0"
       normal_offset="0"
       spacing="0"
       scale_y_rel="false"
       prop_scale="0.447499"
       copytype="single_stretched"
       pattern="M 0,5 C 0,2.24 2.24,0 5,0 7.76,0 10,2.24 10,5 10,7.76 7.76,10 5,10 2.24,10 0,7.76 0,5 Z"
       lpeversion="1"
       is_visible="true"
       id="path-effect2089"
       effect="skeletal" />
    <inkscape:path-effect
       fuse_tolerance="0"
       hide_knot="false"
       vertical_pattern="false"
       prop_units="false"
       tang_offset="0"
       normal_offset="0"
       spacing="0"
       scale_y_rel="false"
       prop_scale="0.447499"
       copytype="single_stretched"
       pattern="M 0,5 C 0,2.24 2.24,0 5,0 7.76,0 10,2.24 10,5 10,7.76 7.76,10 5,10 2.24,10 0,7.76 0,5 Z"
       lpeversion="1"
       is_visible="true"
       id="path-effect2085"
       effect="skeletal" />
    <inkscape:path-effect
       fuse_tolerance="0"
       hide_knot="false"
       vertical_pattern="false"
       prop_units="false"
       tang_offset="0"
       normal_offset="0"
       spacing="0"
       scale_y_rel="false"
       prop_scale="0.447499"
       copytype="single_stretched"
       pattern="M 0,5 C 0,2.24 2.24,0 5,0 7.76,0 10,2.24 10,5 10,7.76 7.76,10 5,10 2.24,10 0,7.76 0,5 Z"
       lpeversion="1"
       is_visible="true"
       id="path-effect2081"
       effect="skeletal" />
    <inkscape:path-effect
       fuse_tolerance="0"
       hide_knot="false"
       vertical_pattern="false"
       prop_units="false"
       tang_offset="0"
       normal_offset="0"
       spacing="0"
       scale_y_rel="false"
       prop_scale="0.447499"
       copytype="single_stretched"
       pattern="M 0,5 C 0,2.24 2.24,0 5,0 7.76,0 10,2.24 10,5 10,7.76 7.76,10 5,10 2.24,10 0,7.76 0,5 Z"
       lpeversion="1"
       is_visible="true"
       id="path-effect1504"
       effect="skeletal" />
    <inkscape:path-effect
       fuse_tolerance="0"
       hide_knot="false"
       vertical_pattern="false"
       prop_units="false"
       tang_offset="0"
       normal_offset="0"
       spacing="0"
       scale_y_rel="false"
       prop_scale="0.447499"
       copytype="single_stretched"
       pattern="M 0,5 C 0,2.24 2.24,0 5,0 7.76,0 10,2.24 10,5 10,7.76 7.76,10 5,10 2.24,10 0,7.76 0,5 Z"
       lpeversion="1"
       is_visible="true"
       id="path-effect1500"
       effect="skeletal" />
    <inkscape:path-effect
       fuse_tolerance="0"
       hide_knot="false"
       vertical_pattern="false"
       prop_units="false"
       tang_offset="0"
       normal_offset="0"
       spacing="0"
       scale_y_rel="false"
       prop_scale="0.447499"
       copytype="single_stretched"
       pattern="M 0,5 C 0,2.24 2.24,0 5,0 7.76,0 10,2.24 10,5 10,7.76 7.76,10 5,10 2.24,10 0,7.76 0,5 Z"
       lpeversion="1"
       is_visible="true"
       id="path-effect1496"
       effect="skeletal" />
    <inkscape:path-effect
       fuse_tolerance="0"
       hide_knot="false"
       vertical_pattern="false"
       prop_units="false"
       tang_offset="0"
       normal_offset="0"
       spacing="0"
       scale_y_rel="false"
       prop_scale="0.44749872"
       copytype="single_stretched"
       pattern="M 0,5 C 0,2.24 2.24,0 5,0 7.76,0 10,2.24 10,5 10,7.76 7.76,10 5,10 2.24,10 0,7.76 0,5 Z"
       lpeversion="1"
       is_visible="true"
       id="path-effect1492"
       effect="skeletal" />
    <inkscape:path-effect
       fuse_tolerance="0"
       hide_knot="false"
       vertical_pattern="false"
       prop_units="false"
       tang_offset="0"
       normal_offset="0"
       spacing="0"
       scale_y_rel="false"
       prop_scale="1"
       copytype="single_stretched"
       pattern="M 0,5 C 0,2.24 2.24,0 5,0 7.76,0 10,2.24 10,5 10,7.76 7.76,10 5,10 2.24,10 0,7.76 0,5 Z"
       lpeversion="1"
       is_visible="true"
       id="path-effect1488"
       effect="skeletal" />
    <inkscape:path-effect
       fuse_tolerance="0"
       hide_knot="false"
       vertical_pattern="false"
       prop_units="false"
       tang_offset="0"
       normal_offset="0"
       spacing="0"
       scale_y_rel="false"
       prop_scale="1"
       copytype="single_stretched"
       pattern="M 0,5 C 0,2.24 2.24,0 5,0 7.76,0 10,2.24 10,5 10,7.76 7.76,10 5,10 2.24,10 0,7.76 0,5 Z"
       lpeversion="1"
       is_visible="true"
       id="path-effect1484"
       effect="skeletal" />
  </defs>
  <sodipodi:namedview
     inkscape:snap-global="false"
     inkscape:window-maximized="1"
     inkscape:window-y="-8"
     inkscape:window-x="-8"
     inkscape:window-height="1017"
     inkscape:window-width="1920"
     showgrid="true"
     inkscape:document-rotation="0"
     inkscape:current-layer="layer1"
     inkscape:document-units="px"
     inkscape:cy="181.93867"
     inkscape:cx="74.889573"
     inkscape:zoom="1.979899"
     inkscape:pageshadow="2"
     inkscape:pageopacity="0.0"
     borderopacity="1.0"
     bordercolor="#666666"
     pagecolor="#ffffff"
     id="base">
    <inkscape:grid
       type="xygrid"
       id="grid1461" />
  </sodipodi:namedview>
  <metadata
     id="metadata1455">
    <rdf:RDF>
      <cc:Work
         rdf:about="">
        <dc:format>image/svg+xml</dc:format>
        <dc:type
           rdf:resource="http://purl.org/dc/dcmitype/StillImage" />
        <dc:title></dc:title>
      </cc:Work>
    </rdf:RDF>
  </metadata>
  <g
     id="layer1"
     inkscape:groupmode="layer"
     inkscape:label="Layer 1">
    <path
       sodipodi:nodetypes="cscsssssscscscc"
       inkscape:original-d="m 43.392857,114.46429 c 0,0 -8.035714,-43.750004 11.785715,-63.392861 19.821428,-19.642858 57.857138,-26.25 57.857138,-26.25 0,0 40.89286,-0.357143 46.78572,3.75 5.89286,4.107142 30.71428,10.714285 36.96428,18.571428 6.25,7.857143 16.42858,13.035715 19.10715,32.142857 2.67857,19.107143 3.03571,27.321426 1.42857,30.892856 -1.60714,3.57143 -5,9.46429 -2.85714,13.75 2.14285,4.28572 -8.57143,12.5 2.5,18.03572 11.07142,5.53571 -7.67858,27.5 -7.67858,27.5 0,0 -36.78571,2.5 -39.10714,21.07142 -2.32143,18.57143 -91.607141,-2.32142 -91.607141,-2.32142 0,0 12.262138,-31.02846 -33.75,-24.82143 -7.172645,0.96759 -8.372329,-32.98405 -10.142039,-33.03572 0,0 14.963467,3.92857 8.356324,-15.17857"
       inkscape:path-effect="#path-effect1488"
       id="path1486"
       d="m 43.392854,114.46427 c -0.69341,0.0439 -1.902057,-8.59152 -3.496023,-24.318046 -0.02073,-5.990512 0.44286,-13.668774 2.562343,-21.637097 1.68792,-6.381493 4.79762,-13.684683 10.526617,-19.650414 C 57.987077,43.727677 64.026348,39.3854 70.923253,35.589285 76.90075,32.286259 83.348837,29.448907 90.285378,26.9701 l 1e-6,0 c 4.962653,-1.776141 10.149671,-3.36473 15.545931,-4.722328 l 0,0 c 1.54282,-0.388335 3.11371,-0.760044 4.70884,-1.102846 l 0,0 c 0.42725,-0.09182 0.86132,-0.182472 1.302,-0.270193 1e-5,-10e-7 3e-5,-3e-6 3e-5,-3e-6 0.24655,-0.03351 0.49616,-0.06726 0.74887,-0.101022 0,0 0,0 0,0 0.0284,-0.0054 0.0568,-0.01074 0.0852,-0.01603 0.01,-0.0018 0.0198,-0.0037 0.0297,-0.0055 -0.0449,-1.38e-4 21.689,0.08317 21.64407,0.08303 5.21083,0.149916 10.67705,0.388465 16.19851,0.983966 2.09137,0.222222 4.30051,0.51494 6.57593,1.011254 1.27994,0.173928 3.14239,0.68603 5.29537,2.012794 0,0 4e-5,2.2e-5 4e-5,2.2e-5 0.55469,0.399455 1.3698,0.769213 2.36734,1.246321 1.30926,0.60366 2.69476,1.166523 4.14759,1.745411 3.54659,1.409879 7.23654,2.773796 11.00135,4.28109 3.76156,1.500136 7.67742,3.154895 11.53069,5.211505 2.90158,1.442908 6.23533,3.48074 9.07476,6.827656 2.86916,3.61375 7.11419,7.016017 10.96712,11.834837 5.11379,6.56268 8.14718,14.466573 9.27563,22.609936 0.99817,6.94325 2.04619,14.247084 2.40643,21.730808 0.3321,3.07347 0.48969,7.2593 -1.31636,11.89661 -1.04939,2.36809 -2.10931,4.33951 -2.6254,6.07362 -0.32206,1.82066 -0.79381,3.20873 -0.3127,3.39153 0.74537,1.71077 0.97209,3.25657 0.77039,4.52496 -0.022,0.1722 -0.0461,0.33995 -0.0721,0.50326 -0.18049,1.13628 -0.44992,2.05605 -0.73323,2.76269 -0.71127,1.95005 -1.44544,3.39041 -1.76472,4.48706 -0.18598,1.07 -0.44314,1.76085 -0.23559,1.73945 -0.24641,0.31504 0.91834,0.82999 2.29514,1.79041 0,0 4e-5,2e-5 4e-5,2e-5 2.06898,0.98463 3.87229,2.70233 5.10365,5.0596 0,0 2e-5,5e-5 2e-5,5e-5 1.00788,2.28203 1.30753,4.48063 1.10457,6.38114 0,0 -1e-5,4e-5 -1e-5,4e-5 -0.43098,4.44894 -2.02549,8.17354 -3.7425,11.17675 -1.70143,3.15365 -3.64344,6.07671 -5.67758,8.80884 -1e-5,0 -1e-5,1e-5 -2e-5,2e-5 0.10477,-0.10913 -4.40029,4.58434 -4.29552,4.47521 0,0 -2e-5,2e-5 -2e-5,2e-5 0.29187,-0.064 -20.21192,4.41344 -19.92,4.34946 -4.39526,1.39887 -8.44096,3.02983 -11.61146,5.49784 -1.49387,1.1399 -2.78481,2.35613 -3.65972,3.69434 -0.85751,1.27726 -1.43942,2.73778 -1.619,4.17951 -0.30754,2.16352 -1.22168,4.08534 -2.60635,5.60424 0,0 -3e-5,3e-5 -3e-5,3e-5 -1.53597,1.60587 -3.19465,2.67038 -4.75814,3.31618 0,0 -2e-5,1e-5 -2e-5,1e-5 -4.2687,1.82423 -8.52287,2.38094 -12.27727,2.57538 -5.25796,0.35443 -10.40893,0.18913 -15.32237,-0.14615 -5.79124,-0.3889 -11.47224,-1.03624 -16.9547,-1.79055 -10.85918,-1.49299 -21.36177,-3.44887 -31.175948,-5.51774 -3.464109,-0.72989 -6.8599,-1.4795 -10.200118,-2.25509 -0.958209,-0.22249 -1.911667,-0.44707 -2.862955,-0.676 0,0 -1.8e-5,-1e-5 -1.8e-5,-1e-5 -0.252746,-0.0608 -0.506178,-0.12215 -0.760504,-0.18429 -0.0071,-0.0117 -1.567571,-2.5973 -1.574637,-2.60902 -4.7e-5,-9e-5 -6.2e-5,-1.1e-4 -7.6e-5,-1.3e-4 6.61e-4,9.2e-4 -0.210485,-0.29356 -0.209823,-0.29264 -0.02414,-0.0337 -0.04827,-0.0674 -0.07239,-0.10112 0.0088,0.007 -0.07849,-0.18052 -0.07219,-0.16697 0.01933,0.0447 -0.223119,-0.51655 -0.203792,-0.47184 -0.26003,-0.60268 -0.519721,-1.20761 -0.778639,-1.81472 0.09208,-0.24992 0.179876,-0.51445 0.266232,-0.79156 0.297573,-0.95771 0.528211,-1.93687 0.695877,-2.9247 0.449144,-2.92933 0.428785,-5.75823 -0.474277,-8.09599 -0.507007,-1.40235 -1.316646,-2.69549 -2.328988,-3.73745 -1.280957,-1.36301 -3.05051,-2.39359 -4.937135,-3.1813 -7.021696,-2.97776 -15.787597,-2.2831 -23.054595,-1.54524 -1.056009,0.11712 -2.059929,-0.0644 -2.945225,-0.50672 -0.925576,-0.49859 -1.601721,-1.08422 -2.055363,-1.66854 -1.236771,-1.55278 -1.926324,-3.14617 -2.365686,-4.51098 -1.44037,-4.14806 -2.081482,-8.38297 -2.571653,-11.95889 -0.545897,-3.88853 -1.002794,-8.48165 -1.36522,-11.68307 -0.158042,-1.36976 -0.281717,-2.55504 -0.502589,-3.7118 -0.07852,-0.36442 -0.115562,-0.6208 -0.174384,-0.77007 0,0 -3e-6,-1e-5 -3e-6,-1e-5 -0.03431,-0.0473 0.01434,0.002 0.134075,0.17254 0,0 8e-6,-6e-5 8e-6,-6e-5 0.05791,-0.43427 0.531912,-0.88642 1.414116,-1.31156 0,0 1.21e-4,-6e-5 1.21e-4,-6e-5 0.792209,-0.5422 1.564315,-1.04017 2.316511,-1.49572 1.370449,0.11005 2.571385,0.0442 3.542189,-0.39195 1.318922,-0.459 2.212566,-1.84149 2.590937,-3.13754 0.789396,-2.67329 0.216441,-5.90227 -0.01248,-7.36553 -0.27726,-1.77225 -0.399921,-2.72388 -0.185476,-2.79803 0.214444,-0.0741 0.765672,0.7062 1.488028,2.42507 0.61868,1.47217 1.763172,4.64307 1.280505,8.2613 -0.288207,1.98141 -1.4021,4.19109 -3.757658,5.51234 -1.611863,0.81488 -3.440049,1.15731 -5.293467,1.0973 -0.709899,-0.6611 -1.43601,-1.36969 -2.178322,-2.12762 -5.2e-5,-2e-5 8.7e-5,-8e-5 8.7e-5,-8e-5 1.014803,-0.42125 1.60015,-0.77587 1.742966,-1.10745 0,0 2e-5,-5e-5 2e-5,-5e-5 0.258815,0.33822 0.407036,0.59415 0.458664,0.7487 0,0 4e-6,2e-5 4e-6,2e-5 0.23695,0.54057 0.376645,1.01491 0.471541,1.39767 0.358936,1.34241 0.597075,2.63764 0.843283,3.97955 0.659025,3.56561 1.270635,7.42482 2.079345,11.4777 0.707463,3.49837 1.495394,7.42105 2.899012,10.81966 0.506195,1.14381 0.93583,2.15698 1.512812,2.70258 0.190137,0.16014 0.26659,0.25254 0.236769,0.18865 -0.101695,-0.0624 -0.208188,-0.0843 -0.39228,-0.0848 7.446737,-1.2473 17.057309,-2.26859 26.299058,0.96817 2.611918,0.93173 5.227715,2.39554 7.493233,4.54358 1.774258,1.71686 3.196488,3.8153 4.138031,6.16948 1.484042,3.8527 1.766638,7.96916 1.172592,11.87391 -0.184076,1.31649 -0.456403,2.63505 -0.822833,3.9432 -0.105681,0.37819 -0.223471,0.76676 -0.356469,1.16419 -0.319465,-0.43291 -0.641153,-0.86412 -0.965541,-1.29379 -0.08475,-0.11225 -0.169682,-0.2244 -0.254867,-0.33646 0.0014,0.002 -0.08957,-0.12752 -0.0882,-0.12557 -0.01527,-0.0247 -0.02806,-0.0557 -0.04085,-0.0868 3.68e-4,8.9e-4 -0.111827,-0.27065 -0.111459,-0.26976 -8e-6,-2e-5 -1.6e-5,-4e-5 -2.3e-5,-6e-5 -0.0036,-0.008 -1.185388,-2.51229 -1.188967,-2.51987 0.244592,0.0529 0.490712,0.10554 0.738626,0.15829 0,0 1.8e-5,0 1.8e-5,0 0.933069,0.19853 1.872184,0.39389 2.820492,0.58838 3.305647,0.67795 6.667356,1.33307 10.100981,1.972 9.730411,1.80978 20.096101,3.519 30.712941,4.7813 5.36178,0.63695 10.85517,1.17145 16.37588,1.4537 4.71294,0.23586 9.4648,0.33131 14.09415,-0.0572 3.44497,-0.34654 6.66258,-0.69346 9.09659,-1.90486 0,0 1e-5,-1e-5 1e-5,-1e-5 0.79676,-0.4232 1.41289,-0.74781 1.62254,-1.07915 0,0 1e-5,-1e-5 1e-5,-1e-5 0.1285,-0.16049 0.24111,-0.3718 0.21549,-0.46362 0.37348,-2.98274 1.43423,-5.81658 3.07144,-8.29036 1.6398,-2.44287 3.65161,-4.46068 5.81929,-6.08252 4.66924,-3.44523 9.87109,-5.67324 15.04156,-7.24741 0.25099,-0.0405 17.22082,-2.76091 17.47181,-2.80142 4e-5,-2e-5 5e-5,-4e-5 5e-5,-4e-5 0.0165,-0.0345 1.21777,-2.54937 1.23426,-2.58382 0,0 0,-1e-5 0,-1e-5 1.78417,-2.43916 3.42954,-4.92834 4.78614,-7.50166 1.33478,-2.71207 2.53547,-5.12323 2.56372,-7.19893 0,0 0,-1e-5 0,-1e-5 -0.0184,-0.72302 1e-4,-1.24157 -0.14242,-1.33537 0,0 0,0 0,0 0.0575,-0.0669 -0.24293,-0.25403 -0.59196,-0.47844 0,0 0,-1e-5 0,-1e-5 -2.63174,-1.04392 -5.44031,-3.3881 -7.22495,-7.31116 -0.93426,-3.16832 -0.72994,-5.99386 0.0881,-8.1322 0.68395,-2.10931 1.46692,-3.69622 1.90716,-4.91584 0.14256,-0.46563 0.25438,-0.7456 0.2605,-0.84226 8.8e-4,-0.0139 -4.2e-4,-0.024 -0.004,-0.0303 -0.0775,0.0582 0.0312,0.34403 0.23328,0.96818 -1.70733,-4.19607 -1.4213,-8.07815 -0.26806,-10.89418 0.93829,-2.83666 2.13697,-5.1606 3.04424,-7.14067 0.862,-1.29359 0.43117,-3.97797 0.46936,-7.34446 -0.29401,-6.843901 -1.28539,-13.852747 -2.23643,-20.813834 -0.95249,-6.7006 -3.25597,-13.049873 -7.15295,-17.97042 -2.84629,-3.718596 -7.07554,-7.171756 -10.8186,-11.87052 -1.12332,-1.634289 -3.47774,-2.90156 -6.09265,-4.450247 -3.30674,-1.826257 -6.89722,-3.379717 -10.53404,-4.894522 -3.45551,-1.434067 -7.47394,-2.984619 -10.92945,-4.418686 -1.49601,-0.617342 -3.02408,-1.267104 -4.57032,-2.003892 -1.0946,-0.505004 -2.35144,-1.150144 -3.68037,-2.063527 0,0 0,-3e-6 0,-3e-6 -0.0168,-0.185682 -0.82639,-0.257419 -2.10492,-0.666907 -1.75362,-0.422053 -3.64356,-0.694018 -5.60497,-0.944966 -5.09454,-0.643916 -10.30487,-0.960206 -15.39881,-1.209408 -0.0525,-0.0014 -20.69633,-0.5862 -20.74883,-0.587643 -0.01,0.0016 -0.0191,0.0032 -0.0286,0.0048 -0.0273,0.0046 -0.0545,0.0092 -0.0818,0.01386 0,1e-6 0,1e-6 0,1e-6 0.0359,0.0054 0.069,0.01176 0.0992,0.01887 0,0 1e-5,0 1e-5,0 -0.39219,0.06866 -0.78856,0.142003 -1.18869,0.218252 l 0,0 c -1.49331,0.284576 -2.98217,0.600164 -4.46116,0.934421 l 0,0 c -5.17301,1.169775 -10.15807,2.556319 -14.940461,4.12039 l 0,0 c -6.685586,2.190279 -12.845983,4.672556 -18.541814,7.584297 -6.571497,3.374287 -12.214304,7.07897 -16.850762,11.498595 -4.94588,4.613611 -7.973593,10.988184 -9.876175,16.718081 -2.348565,7.104306 -3.253606,14.355375 -3.685595,20.089292 0.388291,15.614632 0.276495,24.328912 -0.416729,24.372752 z"
       style="fill:#000000;stroke:none;stroke-width:1px;stroke-linecap:butt;stroke-linejoin:miter;stroke-opacity:1" />
    <path
       sodipodi:nodetypes="csc"
       inkscape:original-d="M 54.390401,67.585518 C 54.993148,65.67682 62.143964,82.83363 52.654201,96.090761 43.89326,108.32973 50.8233,114.33665 50.8233,114.33665"
       inkscape:path-effect="#path-effect1492"
       id="path1490"
       d="m 54.390401,67.585518 c -0.04204,-0.01328 -0.20717,-0.09876 -0.07043,-0.318319 0,0 0,0 0,0 0.07886,-0.0819 0.201038,-0.151351 0.344341,-0.132379 0.231452,0.0213 0.501855,0.144845 0.626719,0.273518 0.461106,0.328273 0.879176,0.851574 1.326815,1.604687 0.944851,1.559406 1.856001,3.842988 2.427651,6.931776 0.544991,2.897615 0.742869,6.435492 0.103059,10.236702 -0.347049,2.059338 -0.951507,4.167696 -1.857359,6.23679 -0.787413,1.798563 -1.753342,3.454794 -2.857373,4.946365 -3.580285,5.084892 -5.005779,8.605122 -4.651083,12.144132 l 0,0 c 0.105088,1.38418 0.437459,2.45856 0.715179,3.25973 l 0,0 c 0.141025,0.40629 0.270154,0.76253 0.335461,1.00734 l 0,0 c 0.03166,0.12843 0.05028,0.24143 0.05162,0.33241 l 0,0 c 0,0 0,0 0,0 -0.04283,0.0981 -0.05885,0.15481 -0.06384,0.18721 -0.0049,0.0318 0.0011,0.04 0.0021,0.0411 7.4e-5,8e-5 5.9e-5,7e-5 5.9e-5,7e-5 0,0 1.3e-5,10e-6 -7.9e-5,-5e-5 -0.0012,-8.2e-4 -0.01026,-0.006 -0.04148,0.002 -0.03189,0.008 -0.08665,0.0283 -0.179586,0.0778 0,0 0,0 0,0 l 0,0 c -0.09734,-0.003 -0.218894,-0.0344 -0.363508,-0.0974 l 0,0 c -0.271271,-0.11498 -0.61792,-0.34109 -0.998645,-0.69857 l 0,0 c -0.715458,-0.67278 -1.584938,-1.8491 -2.122891,-3.55567 l 0,0 c -1.240516,-4.18607 -0.258978,-9.71856 3.757464,-15.247836 0.87621,-1.274793 1.656187,-2.675439 2.317327,-4.190552 0.760038,-1.741756 1.311724,-3.517155 1.687014,-5.256707 0.699257,-3.240726 0.803716,-6.351529 0.689568,-9.012499 -0.141685,-2.998724 -0.439457,-4.871207 -0.770531,-6.630239 -0.166476,-0.785401 -0.238218,-1.311439 -0.332824,-1.698009 -0.0863,-0.145115 0.009,-0.252031 0.01954,-0.272769 0.05764,-0.0051 0.101272,-0.05951 0.12613,-0.09982 0,0 0,0 0,0 -0.0032,-0.07952 -0.17145,-0.05529 -0.220395,-0.07075 z"
       style="fill:#000000;stroke:none;stroke-width:1px;stroke-linecap:butt;stroke-linejoin:miter;stroke-opacity:1" />
    <path
       inkscape:original-d="m 206.78571,70.892857 c 0,0 -5.71428,25.535715 3.03572,34.464283"
       inkscape:path-effect="#path-effect1496"
       id="path1494"
       d="m 206.7857,70.892888 c 0.0356,0.0077 0.0689,0.02197 0.10122,0.04287 0,0 0,0 0,0 0.0308,0.02 0.0602,0.04598 0.0881,0.07775 0.0555,0.06327 0.1055,0.149771 0.15,0.258175 l 0,0 0,0 c 0.0884,0.214635 0.15655,0.516806 0.2067,0.896273 l 0,0 c 0.0985,0.745328 0.13044,1.803484 0.12175,3.093277 l 0,0 c -0.0164,2.480687 -0.1868,5.837285 -0.24777,9.626962 -0.017,1.192596 -0.0276,2.440998 -0.0142,3.695311 0.0289,2.695879 0.16614,5.020109 0.45155,7.250291 0.4426,3.087526 0.86345,4.862999 1.48923,6.673339 0.53796,1.55632 1.02046,2.52534 0.68916,2.85 -0.29869,0.29272 -1.41623,-0.10858 -2.74212,-1.6029 -1.36471,-1.53809 -2.6545,-3.933184 -3.40831,-7.163375 -0.59896,-2.419558 -0.92414,-5.075155 -0.95863,-7.956405 -0.0163,-1.361198 0.0332,-2.682582 0.12534,-3.940408 0.28539,-4.001862 1.00751,-7.449629 1.76342,-9.881564 l 0,0 c 0.39558,-1.273579 0.80186,-2.272067 1.17799,-2.946189 l 0,0 c 0.19067,-0.341733 0.37234,-0.598345 0.54095,-0.763455 l 0,0 1e-5,0 c 0.0847,-0.08278 0.16577,-0.142311 0.24285,-0.177776 0.0386,-0.01778 0.0762,-0.02947 0.11269,-0.03501 0,0 0,0 0,0 0.0382,-0.0057 0.0745,-0.0049 0.11008,0.0028 z"
       style="fill:#000000;stroke:none;stroke-width:1px;stroke-linecap:butt;stroke-linejoin:miter;stroke-opacity:1" />
    <path
       inkscape:original-d="m 120.89286,116.25 c 0,0 18.92857,-8.03571 24.82143,1.51786"
       inkscape:path-effect="#path-effect1500"
       id="path1498"
       d="m 120.8929,116.24998 c -0.2868,-1.03672 3.87781,-3.11547 9.76203,-4.96118 0,0 0,0 0,0 0.94035,-0.17959 1.94336,-0.31628 2.99063,-0.38054 2.19703,-0.1348 4.27422,0.0694 6.16234,0.6052 2.68235,0.76587 4.46971,2.34691 5.36713,3.68629 0.91026,1.35855 0.89806,2.3468 0.53926,2.56811 -0.39672,0.24471 -1.11993,-0.24441 -2.21403,-0.80077 -1.14587,-0.58268 -2.6188,-1.18694 -4.59571,-1.47711 -1.45795,-0.22339 -2.99852,-0.25374 -4.80834,-0.144 -0.85066,0.0516 -1.71208,0.13097 -2.53702,0.21394 0,0 0,0 0,0 -5.80178,1.38789 -10.37997,1.72508 -10.66629,0.69006 z"
       style="fill:#000000;stroke:none;stroke-width:1px;stroke-linecap:butt;stroke-linejoin:miter;stroke-opacity:1" />
    <path
       id="path1510"
       d="m 122.85714,132.58929 c 0,0 14.82143,0.0893 14.64286,4.19642 -0.17857,4.10715 -0.17857,7.5 1.25,8.48215 C 140.17857,146.25 145,162.5 145,162.5 c 0,0 0.17857,7.67857 -3.66071,9.73214 -3.83929,2.05357 -9.10715,4.19643 -11.07143,2.32143 -1.96429,-1.875 -3.21429,-3.48214 -6.25,-2.14286 -3.03572,1.33929 -3.30357,2.67858 -6.60715,1.69643 -3.30357,-0.98214 -7.41071,-4.46428 -7.76785,-8.125 -0.35715,-3.66071 1.42857,-4.73214 3.21428,-8.75 1.78572,-4.01785 2.41072,-9.73214 2.23215,-10.89285 -0.17858,-1.16072 3.66071,-3.75 5.08928,-7.14286 1.42857,-3.39286 2.67857,-6.60714 2.67857,-6.60714 z"
       style="fill:#000000;stroke:#000000;stroke-width:1px;stroke-linecap:butt;stroke-linejoin:miter;stroke-opacity:1;fill-opacity:1" />
    <path
       sodipodi:nodetypes="cssssc"
       id="path2073"
       d="m 64.553572,106.78571 c 0,0 -14.196429,1.78572 -11.160715,21.96429 3.035715,20.17857 25.461793,18.74059 34.017858,17.05357 8.41514,-1.65924 23.752205,-14.16593 27.232145,-17.05357 3.16367,-2.6252 5.98407,-13.57816 -19.196431,-20.80357 -19.941783,-5.72219 -30.780992,0.025 -30.892857,-1.16072 z"
       style="fill:#000000;stroke:#000000;stroke-width:1px;stroke-linecap:butt;stroke-linejoin:miter;stroke-opacity:1;fill-opacity:1" />
    <path
       sodipodi:nodetypes="cssssc"
       id="path2075"
       d="m 191.99211,116.54634 c 3.6414,1.4481 13.48476,9.29285 8.3969,21.71829 -5.77576,14.10542 -15.43616,12.30062 -22.41276,10.2278 -12.71488,-3.77772 -24.03711,-10.54375 -26.3271,-15.08916 -1.57732,-3.13081 10.796,-17.362 17.7408,-17.17259 6.9448,0.18941 22.60216,0.31566 22.60216,0.31566 z"
       style="fill:#000000;fill-opacity:1;stroke:#000000;stroke-width:1px;stroke-linecap:butt;stroke-linejoin:miter;stroke-opacity:1" />
    <path
       inkscape:original-d="m 60.714286,164.28571 0.714286,15.53572 c 0,0 -13.035715,-6.78572 -14.285715,2.32143 -1.25,9.10714 16.607143,14.10714 23.75,35.17857 7.142857,21.07143 17.678572,21.78571 19.464286,21.42857 1.785714,-0.35714 36.964287,-6.78571 40.892857,-5 3.92857,1.78571 37.14286,10.17857 44.10714,-6.25 6.96429,-16.42857 18.92857,-39.10714 27.14286,-45.17857 8.21429,-6.07143 -5.17857,-3.57143 -5.17857,-3.57143 0,0 -6.60714,1.42857 -8.03572,6.42857 -1.42857,5 -5,-7.85714 -5,-7.85714"
       inkscape:path-effect="#path-effect2081"
       id="path2079"
       d="m 60.714286,164.28571 c 0.366156,-0.0168 0.924642,5.60051 0.992205,15.96615 -5.1e-5,-3e-5 -7.7e-5,-2e-5 -7.7e-5,-2e-5 -0.02095,0.01 -0.04197,0.0195 -0.06295,0.0293 0.121256,-0.0564 -0.291224,0.13534 -0.169968,0.079 0.03028,-0.0141 -0.680907,0.31588 -0.650626,0.30181 0,0 -2.7e-5,1e-5 -2.7e-5,1e-5 -0.131801,-0.06 -0.266435,-0.1192 -0.404319,-0.17843 -0.469682,-0.20175 -0.955658,-0.39365 -1.459482,-0.5769 -1.366882,-0.49445 -2.869332,-0.94005 -4.41062,-1.1461 -1.434027,-0.1604 -2.98546,-0.22838 -4.095301,0.38121 -0.484305,0.24202 -0.921334,0.61724 -1.210975,1.07084 -0.379885,0.54899 -0.571424,1.29506 -0.683074,2.12467 -0.09909,0.83035 0.02897,1.72158 0.352331,2.55732 0.341662,0.90805 0.930938,1.77875 1.63711,2.67392 1.819316,2.28477 3.993751,4.09606 6.497145,6.46017 2.813746,2.64032 5.800803,5.64926 8.423127,9.08921 2.986235,3.92663 5.533129,8.48989 7.300883,13.56735 -2e-6,0 3e-6,10e-6 3e-6,10e-6 2.331253,6.47873 5.460118,13.66344 11.129292,17.67229 1.318587,0.946 2.737766,1.71722 4.20316,2.06924 0,0 8e-6,1e-5 8e-6,1e-5 0.833472,0.15417 1.477691,0.32785 1.829808,0.1972 0.734541,-0.14963 1.448063,-0.27733 2.146146,-0.40625 0,0 1.1e-5,0 1.1e-5,0 1.49021,-0.27554 2.987251,-0.54489 4.495494,-0.81095 0,0 1.1e-5,0 1.1e-5,0 4.280701,-0.75518 8.658711,-1.48599 13.095891,-2.16028 4.40809,-0.67062 8.96688,-1.32016 13.57959,-1.7467 0.58829,-0.0549 1.18404,-0.10718 1.78625,-0.15217 1.11407,-0.0832 2.24444,-0.14124 3.39356,-0.14701 0.61242,-0.005 1.27152,0.0111 1.97298,0.084 0.40397,0.0127 1.01014,0.12374 1.77318,0.43029 0.65719,0.31047 1.48968,0.53018 2.42213,0.80481 l 0,0 c 1.53599,0.43808 3.09985,0.80789 4.67385,1.13671 l 0,0 c 4.35501,0.90634 8.68127,1.47355 12.95498,1.60388 l 0,0 c 4.66971,0.12063 9.1385,-0.17612 13.12881,-1.61578 l 0,0 c 1.83817,-0.66124 3.53279,-1.53177 4.90739,-2.69434 1.38781,-1.15775 2.49288,-2.63971 3.19031,-4.25756 l 0,0 c 4.23389,-9.81287 8.74487,-18.62922 13.44138,-26.56829 l 0,0 c 2.46283,-4.16631 4.89866,-7.9456 7.56659,-11.45994 v 0 c 2.16238,-2.87769 4.35572,-5.49385 7.16736,-7.52292 l 0,0 c 0.77215,-0.56322 1.4435,-1.04699 1.91311,-1.61123 l 0,0 c 0.20025,-0.49469 0.32318,-0.30788 0.24566,-0.10845 l 0,0 c 0,0 0,10e-6 0,10e-6 0.2523,0.39248 0.22457,0.51071 0.18866,0.37522 l 0,0 c -0.22623,-0.11924 -0.60166,-0.15261 -1.05376,-0.2042 l 0,0 c -1.12051,-0.0975 -2.31401,-0.007 -3.46981,0.10401 l 0,0 -1e-5,0 0,0 c -0.46262,0.0459 -0.91868,0.0996 -1.36778,0.16052 l 0,0 c -0.13514,0.0183 -0.26848,0.0371 -0.40033,0.0567 l 0,0 c -0.0248,0.003 -0.0489,0.006 -0.0725,0.009 l 0,0 c -0.008,0.001 -0.016,0.002 -0.024,0.003 -0.003,4.2e-4 -0.006,8.5e-4 -0.009,0.001 -0.006,0.001 -0.012,0.002 -0.0178,0.003 -0.0156,0.003 -0.0313,0.006 -0.0471,0.01 0,0 -10e-6,1e-5 -10e-6,1e-5 -0.059,0.0125 -0.11862,0.0262 -0.17895,0.0408 -1e-5,0 -1e-5,0 -1e-5,1e-5 l 0,0 c -0.23705,0.0563 -0.47447,0.12163 -0.71125,0.1929 l 0,0 c -0.80639,0.24353 -1.56604,0.54467 -2.27233,0.89826 h 0 l 0,0 0,1e-5 c -2.14618,1.11615 -3.6743,2.61397 -4.21109,4.34996 l 0,0 c -0.0465,0.4417 -0.35285,1.08642 -1.07678,1.5911 l 0,0 c -0.3365,0.1639 -0.68425,0.18813 -1.0054,0.0869 l 0,0 c -0.33496,-0.12599 -0.56449,-0.2908 -0.70428,-0.44947 l 0,0 c -0.45402,-0.4692 -0.72969,-0.97573 -0.92755,-1.39709 l 0,0 c -0.32071,-0.64914 -0.57084,-1.2969 -0.77416,-1.86976 l 0,0 -1e-5,0 0,0 c -0.56655,-1.59249 -0.93885,-3.07441 -1.14234,-4.0049 l 0,0 c -0.13559,-0.61931 -0.21993,-1.10732 -0.2587,-1.44915 l 0,0 c -0.0211,-0.18598 -0.0289,-0.33003 -0.0239,-0.43149 l 0,0 c 0.003,-0.0526 0.009,-0.0936 0.0179,-0.12306 l 0,0 c 0,0 0,0 0,0 0.0214,-0.0196 0.0318,-0.0328 0.0367,-0.0413 0.005,-0.008 0.005,-0.0121 0.004,-0.0128 0,0 0,0 0,0 -1e-5,-7e-5 -1e-5,-6e-5 -1e-5,-6e-5 0,0 0,-1e-5 3e-5,6e-5 0,0 0,0 0,0 2.6e-4,6.6e-4 0.002,0.004 0.0105,0.009 0.009,0.005 0.0244,0.0106 0.0529,0.0162 0,0 0,0 0,0 l 0,0 c 0.0233,0.0201 0.0498,0.0517 0.0796,0.0947 l 0,0 c 0.0575,0.083 0.12744,0.2085 0.20996,0.37501 l 0,0 c 0.1533,0.30934 0.34701,0.75347 0.59228,1.33447 l 0,0 c 0.32221,0.7631 0.97551,2.37394 1.6255,3.73464 l 0,0 0,0 0,0 c 0.25224,0.52719 0.54293,1.1096 0.87586,1.65186 l 0,0 c 0.23715,0.37136 0.46171,0.73728 0.72198,0.93617 l 0,0 c 0.0856,0.0518 0.11154,0.0822 0.0786,0.0474 l 0,0 c -0.0819,-0.0293 -0.15979,-0.0245 -0.27268,0.0178 l 0,0 c 0.015,0.10205 -0.0256,-0.18835 0.17146,-0.60382 l 0,0 c 0.62079,-2.31452 2.35593,-4.42367 4.86892,-5.81402 l 0,0 1e-5,0 0,0 c 0.80078,-0.45723 1.66377,-0.85481 2.5811,-1.18274 l 0,0 c 0.26935,-0.0965 0.5475,-0.1882 0.83418,-0.27183 l 0,0 c 0,0 0,0 1e-5,0 0.083,-0.0237 0.1675,-0.047 0.25345,-0.0694 0,0 1e-5,0 1e-5,0 0.0229,-0.006 0.046,-0.0119 0.0691,-0.0177 0.009,-0.002 0.0175,-0.004 0.0262,-0.006 0.005,-9.8e-4 0.009,-0.002 0.0135,-0.003 0.0119,-0.003 0.0238,-0.005 0.0358,-0.008 l 0,0 c 0.0514,-0.0106 0.10241,-0.0209 0.15287,-0.0311 l 0,0 c 0.14328,-0.0285 0.28626,-0.0558 0.42913,-0.0823 l 0,0 c 0.47473,-0.0879 0.95775,-0.1682 1.44872,-0.24002 l 0,0 c 0,0 0,0 0,0 1.19827,-0.17981 2.53279,-0.33264 3.93307,-0.28255 l 0,0 c 0.53458,0.006 1.18315,0.0762 1.89802,0.32686 l 0,0 c 0.58434,0.10863 1.1925,0.67275 1.55091,1.73387 0,0 1e-5,3e-5 1e-5,3e-5 v 0 c 0.0209,1.20244 -0.36963,2.00788 -0.7989,2.33634 l 0,0 c -0.72649,0.89458 -1.55455,1.57871 -2.35557,2.17826 l 0,0 c -2.36185,1.79501 -4.21753,4.23396 -6.28689,7.09762 -2.46962,3.45603 -4.72704,7.17583 -7.05952,11.33023 -4.44115,7.91635 -8.71669,16.65586 -12.76398,26.37814 l 0,0 c -0.93433,2.23144 -2.39702,4.25169 -4.2769,5.85962 -1.8442,1.56174 -3.96547,2.70779 -6.18008,3.50545 l 0,0 c -4.7246,1.69747 -9.73493,2.12436 -14.70044,1.97796 l 0,0 c -4.57058,-0.11478 -9.15995,-0.69084 -13.73586,-1.63272 -1.65479,-0.33938 -3.32394,-0.73064 -4.99063,-1.20146 -0.91304,-0.24911 -1.95444,-0.54359 -3.0529,-1.03113 0.0851,-0.002 -0.063,0.0132 -0.40089,-0.0538 -0.4421,-0.05 -0.93542,-0.0569 -1.47656,-0.0569 -1.00572,0.003 -2.03043,0.0578 -3.07717,0.13671 -0.56576,0.0427 -1.13651,0.0923 -1.71093,0.14446 -4.46637,0.40952 -8.94508,1.04058 -13.32889,1.6908 -4.39836,0.65312 -8.74923,1.35756 -13.00902,2.08079 0,0 -1.1e-5,0 -1.1e-5,0 -1.501105,0.25488 -2.988644,0.51182 -4.467932,0.77387 0,0 -1.1e-5,1e-5 -1.1e-5,1e-5 -0.716449,0.12716 -1.404451,0.24437 -2.071187,0.37499 -1.495661,0.23876 -2.773772,0.0381 -3.750549,-0.27155 0,0 -1.3e-5,0 -1.3e-5,0 -2.138801,-0.57138 -4.039591,-1.59374 -5.662891,-2.81915 -6.728686,-5.14253 -10.174448,-13.00264 -12.352851,-19.8277 0,0 -4e-6,-1e-5 -4e-6,-1e-5 -1.541382,-4.68447 -3.812647,-8.94481 -6.499333,-12.64357 -2.348952,-3.24222 -5.144553,-6.19003 -7.821281,-8.85162 -2.362748,-2.335 -4.608445,-4.35881 -6.599965,-6.99408 -0.805893,-1.05714 -1.512914,-2.23227 -1.983844,-3.55307 -0.449815,-1.28494 -0.580403,-2.65132 -0.384974,-3.96681 0.158179,-1.13631 0.553713,-2.28261 1.259136,-3.29965 0.619823,-0.85871 1.443513,-1.50611 2.356267,-1.91005 1.968895,-0.81341 3.973353,-0.70585 5.595193,-0.36917 1.767559,0.33212 3.393914,0.90454 4.822733,1.52059 0.529483,0.22719 1.041353,0.46483 1.536335,0.71355 0.145281,0.073 0.290148,0.14748 0.434724,0.22431 0,0 -1.8e-5,1e-5 -1.8e-5,1e-5 -0.14381,0.13815 -0.286291,0.27597 -0.42753,0.4136 -0.03725,0.0363 -0.07441,0.0726 -0.111494,0.10885 -0.01382,0.0135 -0.02757,0.027 -0.04137,0.0404 0,0 -1.7e-5,2e-5 -1.7e-5,2e-5 -0.845624,-9.49724 -0.802473,-15.08844 -0.436317,-15.10527 z"
       style="fill:#000000;stroke:#000000;stroke-width:3.4;stroke-linecap:butt;stroke-linejoin:miter;stroke-opacity:1;stroke-miterlimit:4;stroke-dasharray:none" />
    <path
       inkscape:original-d="m 75.256365,170.2107 c 0,0 -4.419418,36.23923 6.69226,43.6891 11.111678,7.44988 1.262691,9.34391 17.046325,4.79823 15.78363,-4.54569 37.50191,-3.66181 48.10851,-1.38896 10.60661,2.27284 12.2481,5.80837 19.1929,-3.53554 6.9448,-9.34391 10.48034,-20.07678 10.2278,-28.158"
       inkscape:path-effect="#path-effect2093"
       id="path2091"
       d="m 75.256362,170.21072 c 0.539739,0.0232 0.727109,7.19871 0.601818,19.07477 0,0 0,1e-5 0,1e-5 0.258864,4.12126 0.712512,9.31238 2.100973,14.20066 0.534674,1.87892 1.205895,3.7895 2.187948,5.47284 0.790677,1.32383 1.736741,2.56248 2.912188,3.28422 1.952401,1.25183 3.993671,2.81734 5.66952,4.92318 0.427058,0.55048 0.791049,1.09861 1.120254,1.6255 0,0 3e-6,1e-5 3e-6,1e-5 0.252747,0.35288 0.323827,0.54027 0.305752,0.46202 0,0 -4e-6,0 -4e-6,0 -0.23861,-0.15651 -0.361302,-0.23823 -0.451192,-0.2258 0,0 -2e-6,0 -2e-6,0 0.149904,0.035 0.494541,-0.0813 1.044344,-0.18923 2.436015,-0.59211 4.948907,-1.454 7.641265,-2.24407 5.596901,-1.63747 11.459631,-2.59003 17.574971,-3.04312 3.04557,-0.22565 6.06229,-0.32081 9.0103,-0.33009 7.98029,-0.045 15.42322,0.45567 22.56417,2.05645 2.31127,0.52281 4.55369,1.20895 6.61386,1.83407 1.52325,0.43576 2.7801,0.86592 3.92056,0.85745 0.89597,0.0526 1.86468,-0.32347 2.68937,-0.88319 1.55136,-1.0489 2.87273,-2.73821 4.147,-4.34367 0,0 0,0 0,-1e-5 5.75352,-7.46068 8.54408,-13.98285 9.93323,-19.16122 1.33113,-4.96213 1.3338,-7.95511 1.68147,-7.96597 0.34767,-0.0109 1.01318,3.01626 0.20875,8.35775 -0.82831,5.50015 -3.30955,12.82944 -9.04965,20.83105 0,0 0,0 0,0 -1.19461,1.71633 -2.66755,3.69449 -4.72735,5.28435 -1.3229,1.00937 -3.00818,1.68427 -4.88282,1.73689 -1.87995,-0.008 -3.53366,-0.44647 -5.02481,-0.87875 -2.08707,-0.56915 -4.26453,-1.18091 -6.38003,-1.60675 -6.75722,-1.37731 -13.85035,-1.73775 -21.66156,-1.6685 -2.86822,0.0328 -5.78744,0.13492 -8.71301,0.34948 -5.87766,0.43105 -11.43367,1.29106 -16.693009,2.78018 -2.645868,0.74695 -5.113069,1.55811 -7.877993,2.18717 -0.535316,0.14701 -1.283237,0.28876 -2.236187,0.26703 0,0 -1.4e-5,0 -1.4e-5,0 -0.732436,-0.0206 -1.494572,-0.32273 -2.201674,-0.91485 0,0 -1.3e-5,-10e-6 -1.3e-5,-10e-6 -0.567533,-0.5891 -0.868952,-1.06984 -1.006756,-1.35162 0,0 -3e-6,0 -3e-6,0 -0.290005,-0.47956 -0.561668,-0.91523 -0.846282,-1.29199 -1.164518,-1.59469 -2.857465,-2.91932 -4.593788,-4.14058 -1.848948,-1.30611 -3.14875,-3.02633 -4.040878,-4.74349 -1.130675,-2.13455 -1.835103,-4.35027 -2.322648,-6.42594 -1.283927,-5.45245 -1.480914,-10.86944 -1.460603,-15.12197 0,0 0,0 0,0 0.899686,-11.93955 1.702615,-19.07749 2.24253,-19.05426 z"
       style="fill:#000000;stroke:none;stroke-width:1px;stroke-linecap:butt;stroke-linejoin:miter;stroke-opacity:1" />
    <path
       inkscape:original-d="m 91.473215,194.10714 c 0,0 -2.098215,7.36607 -0.178572,8.88393 1.919643,1.51786 4.821429,-0.0446 4.821429,-0.0446 0,0 1.919643,-4.33036 0.758928,-8.16964"
       inkscape:path-effect="#path-effect2097"
       id="path2095"
       d="m 91.473185,194.10724 c 0.04907,0.0135 0.09376,0.0343 0.13762,0.0634 0.04016,0.0268 0.07816,0.0601 0.114069,0.0996 0.07048,0.0777 0.133216,0.17978 0.188416,0.30434 l 0,0 0,0 c 0.106352,0.23837 0.186674,0.5598 0.246223,0.95128 l 0,0 c 0.110124,0.72419 0.144012,1.6139 0.188708,2.70257 l 0,0 c 0.03728,0.81602 0.06279,1.79266 0.223687,2.57159 l 0,0 c 0.293884,0.62821 0.188107,0.85134 0.086,0.4669 0.06141,0.11954 0.308878,0.13437 0.672339,0.12246 0.191826,-0.006 0.409002,-0.0196 0.632026,-0.029 0.275612,-0.0469 0.557212,-0.12237 0.837408,-0.21525 0,0 10e-7,0 10e-7,0 0.08912,-0.0301 0.171314,-0.059 0.246851,-0.0879 -0.14847,0.17428 -0.299987,0.34949 -0.454606,0.52544 l 0,0 c 0,0 -1e-6,0 -1e-6,0 -0.0153,0.026 -0.02994,0.0515 -0.04522,0.077 0,0 -10e-7,0 -10e-7,0 -0.03096,0.0273 -0.06212,0.0538 -0.09333,0.0807 0,0 -10e-7,1e-5 -10e-7,1e-5 -0.08388,0.0718 -0.167095,0.14152 -0.249302,0.20916 0,0 -2e-6,1e-5 -2e-6,1e-5 l 0,0 c 0.06911,-0.1426 0.136949,-0.2919 0.204304,-0.44504 0.242986,-0.55356 0.454012,-1.09724 0.640709,-1.62165 0.895628,-2.65462 1.216998,-4.92204 1.825921,-5.10613 0.717755,-0.217 2.423733,1.88552 1.944604,5.90987 -0.07417,0.69947 -0.209966,1.43783 -0.421912,2.1987 -0.05852,0.21056 -0.125143,0.42829 -0.201665,0.65189 l 0,0 c 0,0 -2e-6,10e-6 -2e-6,10e-6 -0.121453,0.16637 -0.24491,0.33505 -0.370222,0.50539 0,0 -2e-6,1e-5 -2e-6,1e-5 -0.04637,0.0629 -0.09343,0.12706 -0.140515,0.19044 -2.96e-4,2.8e-4 -2.98e-4,2.8e-4 -2.98e-4,2.8e-4 -0.04004,0.0387 -0.08078,0.0776 -0.12117,0.11634 0,0 -2e-6,0 -2e-6,0 l 0,0 c -0.220155,0.20918 -0.437996,0.41682 -0.653084,0.6228 -0.159501,0.083 -0.317343,0.15856 -0.472843,0.22729 -10e-7,0 -10e-7,0 -10e-7,0 -0.486505,0.21692 -1.014355,0.39587 -1.579167,0.52174 -0.51429,0.14218 -1.074693,0.20817 -1.661874,0.17884 -1.109611,-0.0554 -2.242206,-0.44739 -3.265466,-1.18524 -1.33322,-1.41363 -1.624584,-2.72853 -1.476935,-3.5782 l 0,0 c -0.0093,-1.34384 0.243404,-2.49419 0.521742,-3.37905 l 0,0 c 0.353841,-1.16015 0.797359,-2.07908 1.208473,-2.69212 l 0,0 c 0.231785,-0.34612 0.45861,-0.60475 0.670722,-0.76836 l 0,0 0,0 c 0.110173,-0.0846 0.216084,-0.14372 0.317016,-0.17644 0.05132,-0.0166 0.101236,-0.0264 0.149668,-0.0292 0.05278,-0.003 0.102037,0.002 0.151118,0.0154 z"
       style="fill:#000000;stroke:none;stroke-width:1px;stroke-linecap:butt;stroke-linejoin:miter;stroke-opacity:1" />
    <path
       inkscape:original-d="m 100.26786,196.20536 c 0,0 -0.758931,7.14285 0.84821,8.30357 1.60714,1.16071 3.70536,-0.0446 3.70536,-0.0446 0,0 1.38393,-2.63393 0.75893,-5.84822"
       inkscape:path-effect="#path-effect2101"
       id="path2099"
       d="m 100.26785,196.20548 c 0.73493,0.0352 1.31917,1.52994 1.61864,3.7672 0.15217,0.74467 0.30966,1.6561 0.52526,2.362 0.39494,0.67706 0.19554,0.76971 0.0108,0.36522 -0.0151,0.0265 -0.009,0.0455 0.0166,0.06 0.066,0.0379 0.28703,0.0475 0.51646,0.0673 0.15241,0.18545 0.31027,0.36158 0.48525,0.52278 0.25196,-2.62364 1.12397,-4.8656 2.13946,-4.73384 1.00844,0.13085 1.26306,2.75756 0.62142,6.96254 -0.63909,0.45581 -1.33059,0.94552 -2.04479,1.44445 -0.94925,0.27101 -2.05345,0.26587 -3.17697,-0.13619 -0.39913,-0.14283 -0.79138,-0.33264 -1.170474,-0.56894 -1.353523,-1.32239 -1.705065,-2.50861 -1.608081,-3.19739 -0.144524,-1.24651 -0.05704,-2.34942 0.09078,-3.22255 0.517519,-2.28772 1.239154,-3.72778 1.975604,-3.69254 z"
       style="fill:#000000;stroke:none;stroke-width:1px;stroke-linecap:butt;stroke-linejoin:miter;stroke-opacity:1" />
    <path
       inkscape:original-d="m 110.98214,197.72321 -0.625,7.32143 c 0,0 5.22322,1.29465 5.22322,1.11607 0,-0.17857 1.02678,-8.03571 1.02678,-8.03571"
       inkscape:path-effect="#path-effect2105"
       id="path2103"
       d="m 110.98214,197.72321 c 1.1554,0.0986 1.32172,3.07049 0.68971,6.37222 0.60651,-0.18577 1.2082,-0.4 1.82054,-0.59975 0.11409,0.0254 0.2277,0.051 0.34107,0.0769 0.38381,0.0876 0.97836,0.22874 1.36217,0.31632 0.19364,0.0428 0.33827,0.08 0.43958,0.0999 l 0,0 c -0.31007,0.36966 -0.71636,0.73745 -1.21622,1.09606 -0.10114,0.0378 -0.18746,0.10226 -0.31081,0.16182 0,0 0,1e-5 0,1e-5 -0.22923,0.11068 -0.45251,0.29579 -0.67939,0.55334 0,0 -1e-5,1e-5 -1e-5,1e-5 l 0,0 c 0.0165,-0.10442 0.0334,-0.2025 0.0498,-0.29411 l 0,0 c 0.0574,-0.32123 0.11861,-0.63352 0.18137,-0.93418 l 0,0 c 0.20655,-0.99049 0.43903,-1.90375 0.68402,-2.70917 l 0,0 c 0.33097,-1.08834 0.68712,-1.9872 1.04402,-2.63064 l 0,0 c 0.20144,-0.36317 0.40319,-0.64513 0.60102,-0.83412 l 0,0 c 0,0 0,0 0,0 0.10319,-0.0986 0.20531,-0.17188 0.30576,-0.2182 l 0,0 c 0,0 0,0 0,0 0.14661,-0.0112 0.22483,-0.0241 0.26639,-0.0346 0.0405,-0.0103 0.0454,-0.0185 0.0459,-0.0199 0,0 0,0 0,0 0,0 0,0 0,0 0,0 0,0 0,0 0,0 0,0 0,0 0,0 0,0 0,0 0,0 0,0 0,0 0,0 0,0 0,0 0,0 0,0 0,0 0,0 0,0 0,0 0,0 0,0 0,0 5e-5,-1.2e-4 5e-5,-1e-4 5e-5,-1e-4 0,0 1e-5,-2e-5 2e-5,1.1e-4 0,0 0,0 0,0 0,0 0,0 0,0 0,0 0,0 0,0 0,0 0,0 0,0 0,0 0,0 0,0 0,0 0,0 0,0 0,0 0,0 0,0 0,0 0,0 0,0 0,0 0,0 0,0 0,0 0,0 0,0 1.4e-4,0.001 0.003,0.0106 0.0393,0.031 0.0375,0.0209 0.10973,0.0534 0.24855,0.10191 0,0 0,0 0,0 l 0,0 c 0.0852,0.0705 0.16508,0.16754 0.23953,0.28924 0,0 0,0 0,0 l 0,0 c 0.14272,0.23333 0.26546,0.55744 0.36723,0.95984 l 0,0 c 0.18038,0.71327 0.29481,1.67197 0.33852,2.80721 l 0,0 c 0.0324,0.84263 0.0256,1.77804 -0.0199,2.78315 l 0,0 c -0.014,0.30724 -0.0312,0.61525 -0.0504,0.92785 l 0,0 c -0.006,0.0909 -0.011,0.17726 -0.0151,0.25757 l 0,0 c 0,0 -10e-6,1e-5 -10e-6,1e-5 -0.23574,0.33675 -0.47308,0.6011 -0.70236,0.79183 0,0 0,1e-5 0,1e-5 -0.1234,0.10265 -0.28304,0.15741 -0.42741,0.1956 -0.60978,0.35961 -1.12609,0.71367 -1.54584,1.06925 l 0,0 c -0.29071,-0.0301 -0.53563,-0.0686 -0.73733,-0.10337 -0.5135,-0.0862 -1.01801,-0.18978 -1.51936,-0.30441 -0.11906,-0.0272 -0.23681,-0.0548 -0.35314,-0.0826 -1.19246,-0.62721 -2.38118,-1.27914 -3.42687,-1.85533 0.0633,-5.1762 0.81219,-8.36692 1.93955,-8.27068 z"
       style="fill:#000000;stroke:none;stroke-width:1px;stroke-linecap:butt;stroke-linejoin:miter;stroke-opacity:1" />
    <path
       inkscape:original-d="m 119.59821,200.04464 0.71429,6.65179 5.58036,0.17857 1.38393,-6.74107"
       inkscape:path-effect="#path-effect2109"
       id="path2107"
       d="m 119.59821,200.04464 c 1.14817,-0.12329 1.84167,2.48461 1.80926,5.47148 0,0 0,0 0,0 0.60121,-0.0245 1.19076,-0.0327 1.79709,-0.0195 0.56486,0.0122 1.11266,0.0423 1.67082,0.0893 0,0 0,0 0,0 0.28593,-3.07373 1.25478,-5.68733 2.40141,-5.45193 1.11724,0.22937 0.97606,3.32113 -0.36645,8.03023 0,0 0,0 0,0 -1.15192,-0.008 -2.41145,-0.0355 -3.718,-0.0832 -1.40415,-0.0512 -2.75516,-0.12146 -3.97481,-0.20424 0,0 0,0 0,0 -0.89117,-4.7196 -0.73663,-7.71212 0.38068,-7.8321 z"
       style="fill:#000000;stroke:none;stroke-width:1px;stroke-linecap:butt;stroke-linejoin:miter;stroke-opacity:1" />
    <path
       inkscape:original-d="m 137.00893,201.65179 c 0,0 -2.32143,5.71428 0.22321,5.98214 2.54465,0.26786 5.08929,-5.98214 5.08929,-5.98214"
       inkscape:path-effect="#path-effect2113"
       id="path2111"
       d="m 137.00888,201.65192 c 0.0532,0.0208 0.10128,0.0469 0.14853,0.0798 0,0 0,0 0,0 0.0424,0.0297 0.0824,0.0643 0.12016,0.10339 0.0738,0.0766 0.13945,0.17114 0.19674,0.28164 0,0 0,0 0,0 l 0,0 c 0.10989,0.2093 0.19268,0.47649 0.25374,0.78918 l 0,0 c 0.11328,0.58149 0.14211,1.20808 0.20678,1.96389 l 0,0 c 0.0684,0.56563 0.0896,1.07405 0.2485,1.21319 h 0 c -0.007,-0.26671 -0.15449,-0.39669 -0.71814,-0.66303 -0.12285,0.0502 -0.19753,0.0556 -0.21943,0.0335 -0.0393,-0.0397 0.0968,-0.16331 0.36261,-0.25946 0.47428,-0.34639 1.01195,-0.93758 1.50952,-1.44343 l 0,0 c 0.63073,-0.65313 1.18745,-1.21558 1.71449,-1.61434 l 0,0 c 0.28394,-0.21478 0.55059,-0.37282 0.79335,-0.46053 l 0,0 c 0,0 0,0 0,0 0.12492,-0.0439 0.24523,-0.0696 0.35817,-0.0756 l 0,0 0,0 c 0.15457,0.0362 0.23896,0.0499 0.28473,0.0541 0,0 0,0 0,0 0.0444,0.004 0.0517,-0.001 0.0527,-0.002 0,0 0,0 0,0 0,0 0,0 0,0 0,0 0,0 0,0 0,0 0,0 0,0 0,0 0,0 0,0 0,0 0,0 0,0 1e-4,-1.1e-4 1e-4,-9e-5 1e-4,-9e-5 0,0 1e-5,-2e-5 0,1.4e-4 0,0 0,0 0,0 0,0 0,0 0,0 0,0 0,0 0,0 0,0 0,0 0,0 0,0 0,0 0,0 0,0 0,0 0,0 -9e-5,0.001 0.001,0.0104 0.0357,0.0389 0,0 0,0 0,0 0.0353,0.0295 0.10448,0.0794 0.23905,0.1632 l 0,0 0,0 c 0.0741,0.0876 0.13542,0.19707 0.1845,0.32771 0,0 0,0 0,0 l 0,0 c 0.096,0.24922 0.14485,0.57222 0.14263,0.9563 l 0,0 c -0.003,0.69017 -0.17706,1.60433 -0.59334,2.62066 l 0,0 c -0.31522,0.80224 -0.84605,1.76145 -1.74548,2.67984 -0.37601,0.49247 -1.00843,0.9383 -1.90576,1.19271 -0.49844,0.14132 -1.06227,0.21852 -1.67965,0.2166 -1.68865,-0.38393 -2.67609,-1.47809 -2.93264,-2.74914 -0.18514,-1.28571 0.0478,-2.2328 0.32706,-2.85996 l 0,0 c 0.35372,-0.91871 0.81774,-1.59535 1.24168,-2.02064 l 0,0 c 0.24602,-0.24821 0.48713,-0.42321 0.7121,-0.5212 l 0,0 c 0,0 0,0 0,0 0.11761,-0.0505 0.23047,-0.0807 0.33804,-0.0896 0.0548,-0.005 0.10806,-0.004 0.1597,0.003 0,0 0,0 0,0 0.0574,0.007 0.11065,0.0208 0.16385,0.0416 z"
       style="fill:#000000;stroke:none;stroke-width:1px;stroke-linecap:butt;stroke-linejoin:miter;stroke-opacity:1" />
    <path
       inkscape:original-d="M 145.44643,200.98214 148.75,206.875 c 0,0 6.33929,-1.07143 4.73214,-5.26786"
       inkscape:path-effect="#path-effect2117"
       id="path2115"
       d="m 145.44643,200.98214 c 1.20279,-0.67429 2.85169,1.56356 3.90122,4.30466 0,0 0,0 0,0 0.11185,-0.11743 0.22459,-0.23585 0.33666,-0.35128 0.3932,-0.40497 0.75627,-0.7497 1.16312,-1.03538 0.4798,-0.23602 0.84817,-0.33537 1.06269,-0.50801 0.70379,-0.17454 0.93003,-1.53912 1.57202,-1.78499 0.18983,-0.0727 2.37965,0.36326 1.45499,3.39118 -0.4441,1.07283 -1.26512,2.06816 -2.32548,2.71862 -1.04144,0.23359 -2.19733,0.43081 -3.42052,0.60526 -0.35114,0.0501 -0.69866,0.097 -1.03865,0.14098 -1.3e-4,2e-5 -1.3e-4,2e-5 -1.3e-4,2e-5 -2.70478,-3.84456 -3.86126,-6.83337 -2.70592,-7.48106 z"
       style="fill:#000000;stroke:none;stroke-width:1px;stroke-linecap:butt;stroke-linejoin:miter;stroke-opacity:1" />
    <path
       inkscape:original-d="m 126.60714,213.66071 c 0,0 -1.16071,-3.125 0.98215,-4.28571 2.14285,-1.16071 4.10714,-0.53571 4.55357,0.35714 0.44643,0.89286 0.625,3.39286 0,4.28572"
       inkscape:path-effect="#path-effect2121"
       id="path2119"
       d="m 126.60705,213.66047 c -0.55538,0.10091 -1.17456,-0.46406 -1.77141,-1.57457 0,0 0,0 0,0 -0.34062,-1.11049 -0.22111,-3.04983 1.74533,-4.57242 0,0 0,0 0,0 0.81783,-0.55722 1.88172,-0.95503 3.12191,-0.9949 0.37469,-0.012 0.75309,0.009 1.13102,0.0638 1.09971,-0.005 2.31385,0.81043 3.16139,2.22354 0.48661,1.3415 0.37103,2.36824 0.17156,3.02639 0,0 0,0 0,0 -0.25797,1.89642 -1.53251,2.5296 -2.02399,2.18556 -0.0833,-0.0583 -1.07179,-1.36979 -1.22042,-2.10018 0,0 0,0 0,0 -0.23474,-0.56692 -0.41179,-1.15806 -0.63201,-1.25933 0.26152,0.26931 0.20402,0.56704 -0.11987,0.32623 -0.0934,-0.0164 -0.19591,-0.021 -0.30795,-0.0156 -0.35452,0.0172 -0.82541,0.14015 -1.265,0.26754 0,0 0,0 0,0 -0.13515,-0.33529 -0.52868,0.10439 -0.84459,0.55588 0,0 0,0 0,0 -0.20279,1.03178 -0.59529,1.76803 -1.14597,1.86807 z"
       style="fill:#000000;stroke:none;stroke-width:1px;stroke-linecap:butt;stroke-linejoin:miter;stroke-opacity:1" />
    <path
       inkscape:original-d="m 115.26786,213.83929 0.26785,-3.92858 5.71429,-0.17857 0.0893,4.46429"
       inkscape:path-effect="#path-effect2125"
       id="path2123"
       d="m 115.26786,213.83929 c -0.97101,-0.0662 -1.33043,-1.80822 -0.76472,-4.9999 1.19752,-0.10039 2.65841,-0.16659 4.22266,-0.19116 1.27388,-0.02 2.48729,-0.0103 3.53216,0.0229 0,0 0,0 0,0 0.54307,3.51617 0.14755,5.50395 -0.91866,5.52528 -1.11898,0.0224 -1.48299,-1.69273 -1.09726,-3.40332 0,0 0,0 0,0 -0.55785,0.0832 -1.10084,0.14804 -1.6549,0.18503 -0.68104,0.0455 -1.32933,0.0454 -2.01886,0.004 0.21075,1.45978 -0.29176,2.92603 -1.30042,2.85726 z"
       style="fill:#000000;stroke:none;stroke-width:1px;stroke-linecap:butt;stroke-linejoin:miter;stroke-opacity:1" />
    <path
       inkscape:original-d="m 107.32143,215.53571 c 0,0 -1.69643,-3.30357 -1.78572,-5 -0.0893,-1.69642 4.46429,-1.51785 4.73215,-0.98214 0.26785,0.53572 1.875,5.53572 1.875,5.53572"
       inkscape:path-effect="#path-effect2129"
       id="path2127"
       d="m 107.32133,215.53551 c -0.51413,0.23689 -1.30993,-0.25753 -2.21682,-1.28355 0,0 0,0 0,0 -0.56625,-0.64668 -1.37304,-1.80487 -1.65598,-3.60639 0.13163,-1.52461 0.78226,-2.62813 1.75712,-3.00359 0.86441,-0.43731 1.68373,-0.63443 2.36931,-0.66333 0.0496,-0.005 0.0994,-0.009 0.14954,-0.0127 0.65978,-0.0499 1.32779,-0.0178 1.98677,0.0982 0.25976,0.0385 0.59554,0.12197 0.99182,0.26713 l 0,0 0,0 0,0 c 0.13905,-0.16427 0.67227,0.2559 1.47668,1.26635 l 0,0 c 0.26156,0.6258 0.35605,1.09335 0.39566,1.38268 l 0,0 c 0.15232,0.72784 0.24863,1.40785 0.2965,2.01037 l 0,0 c 0.0634,0.79327 0.0452,1.47208 -0.0533,1.99162 l 0,0 c -0.0553,0.29167 -0.13587,0.53364 -0.24195,0.71834 l 0,0 0,1e-5 c -0.0552,0.0963 -0.11738,0.17697 -0.18649,0.24102 l 0,0 c 0,0 0,0 0,0 -0.11849,0.0594 -0.18058,0.0957 -0.21294,0.11748 -0.0312,0.021 -0.0341,0.0284 -0.0343,0.03 0,0 0,0 0,0 0,0 0,0 0,0 0,0 0,0 0,0 0,0 0,0 0,0 0,0 0,0 0,0 0,0 0,0 0,0 -3e-5,2.4e-4 -5e-5,1.8e-4 -5e-5,1.8e-4 0,0 2e-5,5e-5 -1.4e-4,-1.2e-4 0,0 0,0 0,0 0,0 0,0 0,0 0,0 0,0 0,0 0,0 0,0 0,0 0,0 0,0 0,0 0,0 0,0 0,0 -0.001,-0.001 -0.008,-0.005 -0.0453,-0.004 -0.039,0.001 -0.1106,0.008 -0.24151,0.0287 0,0 0,0 0,0 l 0,0 c -0.0934,-0.0116 -0.19098,-0.0406 -0.29195,-0.086 l -1e-5,0 0,0 c -0.19387,-0.0874 -0.40066,-0.23554 -0.61629,-0.43795 l 0,0 c -0.38481,-0.36123 -0.79682,-0.89389 -1.21625,-1.56079 l 0,0 c -0.32212,-0.51265 -0.64144,-1.0925 -0.96273,-1.73045 v 0 c -0.20111,-0.40323 -0.32217,-0.7075 -0.41268,-0.78886 l 0,0 c 0.70378,0.80839 0.98747,1.14399 0.90888,0.90398 l 0,0 0,0 0,0 c 0.0253,0.0144 -0.0299,0.0254 -0.1703,0.007 -0.31999,-0.0226 -0.66773,-0.0155 -1.04718,0.01 -0.0288,0.002 -0.0577,0.004 -0.0866,0.006 -0.42837,0.0672 -0.69019,0.0614 -0.76685,0.10397 0.21365,0.0103 0.25507,-0.37943 0.429,-1.11465 -0.13168,0.577 0.1204,1.80721 0.18495,2.63786 0,0 0,0 0,0 0.17086,1.31087 0.0268,2.2353 -0.48651,2.4718 z"
       style="fill:#000000;stroke:none;stroke-width:1px;stroke-linecap:butt;stroke-linejoin:miter;stroke-opacity:1" />
    <path
       inkscape:original-d="m 139.55357,214.01786 c 0,0 0.17857,-3.57143 1.33929,-3.92857 1.16071,-0.35715 5.17857,1.25 5.17857,1.25 0,0 -0.53572,4.19642 -1.60714,4.82142"
       inkscape:path-effect="#path-effect2133"
       id="path2131"
       d="m 139.55358,214.01763 c -0.0859,-0.005 -0.16385,-0.0254 -0.24542,-0.0619 0,0 0,0 0,0 -0.0729,-0.0329 -0.14338,-0.0784 -0.21169,-0.13625 l 0,0 c -0.13026,-0.11144 -0.25065,-0.26873 -0.35805,-0.46889 l 0,0 c -0.18847,-0.35005 -0.34109,-0.84854 -0.39818,-1.47179 l 0,0 c -0.0518,-0.46553 -0.0368,-1.07763 0.1821,-1.8167 v 0 c 0.0271,-0.52611 0.50143,-1.23727 1.77328,-1.91384 l 0,0 0,0 c 1.04549,-0.28376 1.86944,-0.27957 2.28512,-0.14914 l 0,0 c 0.70822,0.0917 1.38335,0.25203 2.0261,0.45353 6e-5,3e-5 0.054,0.0363 0.054,0.0363 0.99786,0.67181 1.97596,1.37232 2.82084,1.98843 0.0528,0.10885 0.12913,0.26787 0.18177,0.37646 0.0182,0.0377 0.45441,0.942 0.47259,0.97966 -0.0439,0.18028 -0.0911,0.35485 -0.14055,0.52346 -0.16843,0.57465 -0.3681,1.10578 -0.59363,1.58578 -0.31407,0.67302 -0.68046,1.24951 -1.09159,1.68607 0,0 0,0 0,0 -0.73401,0.96161 -1.63011,0.90196 -1.84601,0.53185 -0.23139,-0.39666 -0.54707,-0.69921 -0.44454,-1.49077 0,0 0,0 0,0 -0.039,-0.37733 -0.0884,-0.97598 -0.0887,-1.55473 -0.005,-0.43342 -0.003,-0.92699 0.0106,-1.43392 0.004,-0.15209 0.008,-0.30091 0.0121,-0.4537 0.16874,0.23067 0.33934,0.46506 0.51154,0.70296 0.065,0.09 0.1303,0.17969 0.19565,0.27073 -0.48699,0.15087 -0.95851,0.33401 -1.43414,0.49016 -0.009,0.003 -0.017,0.006 -0.0255,0.008 -0.53148,-0.16262 -0.99537,-0.31711 -1.41119,-0.43337 l 0,0 c -0.50576,-0.0391 -0.5225,-0.20232 -0.30002,-0.2361 l 0,0 0,0 c 0.55031,-0.44799 0.65426,-0.48023 0.38046,-0.39563 l 0,0 c -0.20574,0.17428 -0.41949,0.51623 -0.62957,0.83517 l 0,0 c -0.27309,0.41843 -0.5169,0.77977 -0.77723,1.05922 l 0,0 c -0.14343,0.15379 -0.28776,0.27569 -0.43178,0.35924 l 0,0 c -0.0756,0.0444 -0.15173,0.0779 -0.22772,0.0999 0,0 0,0 0,0 -0.0853,0.0243 -0.16482,0.0347 -0.25068,0.0295 z"
       style="fill:#000000;stroke:none;stroke-width:1px;stroke-linecap:butt;stroke-linejoin:miter;stroke-opacity:1" />
  </g>
</svg>
