<?xml version="1.0" encoding="UTF-8" standalone="no"?>
<svg
   xmlns:dc="http://purl.org/dc/elements/1.1/"
   xmlns:cc="http://creativecommons.org/ns#"
   xmlns:rdf="http://www.w3.org/1999/02/22-rdf-syntax-ns#"
   xmlns:svg="http://www.w3.org/2000/svg"
   xmlns="http://www.w3.org/2000/svg"
   xmlns:sodipodi="http://sodipodi.sourceforge.net/DTD/sodipodi-0.dtd"
   xmlns:inkscape="http://www.inkscape.org/namespaces/inkscape"
   inkscape:version="1.0 (4035a4fb49, 2020-05-01)"
   sodipodi:docname="hecate1.svg"
   width="256.0px"
   height="256.0px"
   viewBox="0 0 256.0 256.0"
   version="1.1"
   id="SVGRoot">
  <defs
     id="defs833">
    <inkscape:path-effect
       fuse_tolerance="0"
       hide_knot="false"
       vertical_pattern="false"
       prop_units="false"
       tang_offset="0"
       normal_offset="0"
       spacing="0"
       scale_y_rel="false"
       prop_scale="1"
       copytype="single_stretched"
       pattern="M 0,5 C 0,2.24 2.24,0 5,0 7.76,0 10,2.24 10,5 10,7.76 7.76,10 5,10 2.24,10 0,7.76 0,5 Z"
       lpeversion="1"
       is_visible="true"
       id="path-effect1476"
       effect="skeletal" />
    <inkscape:path-effect
       fuse_tolerance="0"
       hide_knot="false"
       vertical_pattern="false"
       prop_units="false"
       tang_offset="0"
       normal_offset="0"
       spacing="0"
       scale_y_rel="false"
       prop_scale="1"
       copytype="single_stretched"
       pattern="m 4.1300787,-3.2962081 c 0,-2.76 2.24,-4.9999998 5.0000001,-4.9999998 2.7600002,0 5.0000002,2.2399998 5.0000002,4.9999998 0,2.75999999 -2.24,4.9999999 -5.0000002,4.9999999 -2.7600001,0 -5.0000001,-2.23999991 -5.0000001,-4.9999999 z"
       lpeversion="1"
       is_visible="true"
       id="path-effect1472"
       effect="skeletal" />
    <inkscape:path-effect
       effect="skeletal"
       id="path-effect1468"
       is_visible="true"
       lpeversion="1"
       pattern="m 132.99796,238.42513 c 0,-2.06997 1.67998,-3.74995 3.74995,-3.74995 2.06997,0 3.74995,1.67998 3.74995,3.74995 0,2.06997 -1.67998,3.74995 -3.74995,3.74995 -2.06997,0 -3.74995,-1.67998 -3.74995,-3.74995 z"
       copytype="single_stretched"
       prop_scale="1"
       scale_y_rel="false"
       spacing="0"
       normal_offset="0"
       tang_offset="0"
       prop_units="false"
       vertical_pattern="false"
       hide_knot="false"
       fuse_tolerance="0" />
    <inkscape:path-effect
       fuse_tolerance="0"
       hide_knot="false"
       vertical_pattern="false"
       prop_units="false"
       tang_offset="0"
       normal_offset="0"
       spacing="0"
       scale_y_rel="false"
       prop_scale="1"
       copytype="single_stretched"
       pattern="m 9.0913729,7.0203051 c 0,-2.76 2.2400001,-5 5.0000001,-5 2.76,0 5,2.24 5,5 0,2.76 -2.24,4.9999999 -5,4.9999999 -2.76,0 -5.0000001,-2.2399999 -5.0000001,-4.9999999 z"
       lpeversion="1"
       is_visible="true"
       id="path-effect1449"
       effect="skeletal" />
    <inkscape:path-effect
       effect="skeletal"
       id="path-effect1445"
       is_visible="true"
       lpeversion="1"
       pattern="m 104.07209,40.089493 c 0,-2.069971 1.67997,-3.749948 3.74995,-3.749948 2.06997,0 3.74994,1.679977 3.74994,3.749948 0,2.069971 -1.67997,3.749947 -3.74994,3.749947 -2.06998,0 -3.74995,-1.679976 -3.74995,-3.749947 z"
       copytype="single_stretched"
       prop_scale="1"
       scale_y_rel="false"
       spacing="0"
       normal_offset="0"
       tang_offset="0"
       prop_units="false"
       vertical_pattern="false"
       hide_knot="false"
       fuse_tolerance="0" />
    <inkscape:path-effect
       fuse_tolerance="0"
       hide_knot="false"
       vertical_pattern="false"
       prop_units="false"
       tang_offset="0"
       normal_offset="0"
       spacing="0"
       scale_y_rel="false"
       prop_scale="1"
       copytype="single_stretched"
       pattern="M 0,5 C 0,2.24 2.24,0 5,0 7.76,0 10,2.24 10,5 10,7.76 7.76,10 5,10 2.24,10 0,7.76 0,5 Z"
       lpeversion="1"
       is_visible="true"
       id="path-effect1426"
       effect="skeletal" />
    <inkscape:path-effect
       fuse_tolerance="0"
       hide_knot="false"
       vertical_pattern="false"
       prop_units="false"
       tang_offset="0"
       normal_offset="0"
       spacing="0"
       scale_y_rel="false"
       prop_scale="1"
       copytype="single_stretched"
       pattern="m 117.64272,144.68742 c 0,-2.06998 1.67998,-3.74996 3.74995,-3.74996 2.06997,0 3.74995,1.67998 3.74995,3.74996 0,2.06997 -1.67998,3.74995 -3.74995,3.74995 -2.06997,0 -3.74995,-1.67998 -3.74995,-3.74995 z"
       lpeversion="1"
       is_visible="true"
       id="path-effect1422"
       effect="skeletal" />
    <inkscape:path-effect
       fuse_tolerance="0"
       hide_knot="false"
       vertical_pattern="false"
       prop_units="false"
       tang_offset="0"
       normal_offset="0"
       spacing="0"
       scale_y_rel="false"
       prop_scale="1"
       copytype="single_stretched"
       pattern="M 0,5 C 0,2.24 2.24,0 5,0 7.76,0 10,2.24 10,5 10,7.76 7.76,10 5,10 2.24,10 0,7.76 0,5 Z"
       lpeversion="1"
       is_visible="true"
       id="path-effect1418"
       effect="skeletal" />
  </defs>
  <sodipodi:namedview
     inkscape:snap-global="false"
     inkscape:window-maximized="1"
     inkscape:window-y="-8"
     inkscape:window-x="-8"
     inkscape:window-height="1017"
     inkscape:window-width="1920"
     showgrid="true"
     inkscape:document-rotation="0"
     inkscape:current-layer="layer1"
     inkscape:document-units="px"
     inkscape:cy="208.65415"
     inkscape:cx="317.75779"
     inkscape:zoom="0.98994949"
     inkscape:pageshadow="2"
     inkscape:pageopacity="0.0"
     borderopacity="1.0"
     bordercolor="#666666"
     pagecolor="#ffffff"
     id="base">
    <inkscape:grid
       type="xygrid"
       id="grid1403" />
  </sodipodi:namedview>
  <metadata
     id="metadata836">
    <rdf:RDF>
      <cc:Work
         rdf:about="">
        <dc:format>image/svg+xml</dc:format>
        <dc:type
           rdf:resource="http://purl.org/dc/dcmitype/StillImage" />
        <dc:title></dc:title>
      </cc:Work>
    </rdf:RDF>
  </metadata>
  <g
     id="layer1"
     inkscape:groupmode="layer"
     inkscape:label="Layer 1">
    <path
       sodipodi:nodetypes="csssssssc"
       inkscape:original-d="m 248.89088,208.43652 c 0,0 -3.74995,18.74974 -11.24984,26.24963 -7.4999,7.4999 -22.49969,11.24984 -26.24963,11.24984 -3.74995,0 -22.49969,-3.74994 -26.24964,-7.49989 -3.74994,-3.74995 -14.99979,-18.74974 -14.99979,-29.99958 0,-11.24984 7.4999,-29.99958 14.99979,-33.74952 7.4999,-3.74995 26.24964,-11.24985 33.74953,-7.4999 7.49989,3.74995 22.49968,11.24984 22.49968,14.99979 0,3.74995 7.4999,21.74969 7.4999,25.49964"
       inkscape:path-effect="#path-effect1422"
       id="path1420"
       d="m 248.89087,208.43656 c 0.0197,0.004 0.038,0.0131 0.0556,0.0272 0,0 0,0 0,0 0.0165,0.0133 0.0319,0.031 0.0465,0.0532 0.0288,0.044 0.0537,0.10548 0.0747,0.18417 0,0 0,0 0,0 l 0,0 c 0.0412,0.15482 0.067,0.37556 0.0763,0.66119 l 0,0 c 0.0179,0.54844 -0.0252,1.33266 -0.1417,2.34041 l 0,0 c -0.20654,1.78759 -0.65973,4.4056 -1.47881,7.54443 l 0,0 c -1.02081,4.03471 -3.02986,11.51432 -8.17955,17.14179 l 0,0 c -3.94458,4.15272 -9.12838,7.14293 -15.23823,9.47259 l 0,0 c -2.32359,0.90859 -4.79709,1.7257 -7.3986,2.37598 l 0,0 c -1.47194,0.39434 -3.25151,0.81534 -5.31562,0.87472 l 0,0 -1e-5,0 0,0 c -0.93944,0.005 -1.75479,-0.0733 -2.44947,-0.15482 h 0 l -1e-5,0 0,0 c -1.10625,-0.11967 -2.19276,-0.27391 -3.27041,-0.44468 l 0,0 c -2.70953,-0.42821 -5.45141,-0.97037 -8.22895,-1.62437 l 0,0 c -2.70492,-0.63304 -5.53886,-1.39197 -8.37523,-2.41676 l 0,0 c -1.79909,-0.53941 -4.17326,-1.45946 -6.44836,-3.51274 -1.64418,-1.62842 -3.02458,-3.34786 -4.30109,-5.0366 l 0,0 c -1.87658,-2.46159 -3.64245,-5.06959 -5.26524,-7.81677 l 0,0 c -1.73561,-2.92777 -3.33807,-6.08621 -4.59684,-9.48309 l 0,0 c -1.15518,-3.04298 -2.02253,-6.47732 -2.06186,-10.18591 0.005,-1.49714 0.10594,-2.97407 0.28185,-4.42853 0.24815,-2.05169 0.64284,-4.038 1.11367,-5.94252 0.90837,-3.74059 2.13568,-7.3475 3.62324,-10.78048 1.41332,-3.288 3.10542,-6.48714 5.2398,-9.4543 1.57732,-2.33604 3.76732,-4.72058 6.877,-6.36823 5.83642,-2.85861 11.74404,-5.03346 17.55322,-6.60623 3.33195,-0.91382 6.69897,-1.60967 10.16706,-1.84174 2.77968,-0.28094 5.95353,-0.0649 9.0286,1.39845 5.16438,2.71386 9.66409,5.1378 14.0695,7.95025 2.19769,1.39529 4.26818,2.81493 6.18474,4.5314 0.71804,0.63049 1.45336,1.37734 2.11677,2.29905 0,0 1e-5,0 1e-5,0 0.52,0.56298 0.96289,1.5858 1.06643,2.99325 -0.0509,0.31215 0.0684,0.8319 0.18011,1.49706 0.18561,0.96766 0.43504,1.96044 0.68362,2.9182 0.6577,2.5284 1.59841,5.76069 2.16302,7.78226 0.92468,3.31047 1.54876,5.69082 2.006,7.94471 0.26342,1.29722 0.41835,2.30499 0.48435,3.18017 0.11321,1.42528 -0.073,2.17724 -0.34206,2.17724 -0.16723,0 -0.4961,-0.66272 -0.98657,-1.85981 -0.3152,-0.74298 -0.71934,-1.69263 -1.21484,-2.86076 -0.39617,-0.93272 -2.31079,-5.44386 -3.15019,-7.47695 -0.87768,-2.12338 -2.00552,-4.88027 -2.99315,-7.6394 -0.34544,-0.9627 -0.70505,-2.01413 -1.01558,-3.12273 -0.19759,-0.62993 -0.41311,-1.47332 -0.46441,-2.53999 0.0952,0.24755 -0.063,0.25601 -0.2519,-0.14146 0,0 0,-1e-5 0,-1e-5 -0.34756,-0.43772 -0.86296,-0.85818 -1.4867,-1.36301 -1.6733,-1.32069 -3.57058,-2.42983 -5.76821,-3.67161 -4.37346,-2.45329 -8.75909,-4.53408 -14.0551,-7.04954 -1.33981,-0.74464 -3.3452,-0.60922 -5.73682,-0.47653 -2.84331,0.27292 -5.7371,0.99004 -8.81704,1.90822 -5.37348,1.62226 -10.82401,3.77284 -16.19632,6.51859 -1.44018,0.62698 -2.68306,2.26878 -4.13847,4.17849 -1.70921,2.41388 -3.10473,5.16283 -4.36943,8.12358 -1.30256,3.07727 -2.37864,6.29403 -3.17355,9.60985 -0.40218,1.71222 -0.7438,3.4191 -0.95482,5.1 -0.14964,1.19204 -0.23268,2.3634 -0.22775,3.51306 -0.0393,2.42922 0.66171,5.01952 1.5709,7.62634 l 0,0 c 1.02949,2.86568 2.4192,5.64412 3.95773,8.32915 l 0,0 c 1.44437,2.5108 3.01961,4.9079 4.69556,7.18303 l 0,0 c 1.20687,1.62243 2.33007,3.1022 3.55036,4.33827 0.51474,0.73482 2.05635,1.18167 3.864,1.995 l 0,0 c 2.43532,0.95206 5.00653,1.70581 7.56205,2.38785 l 0,0 c 2.61075,0.69307 5.17735,1.28514 7.70834,1.77402 l 0,0 c 1.00883,0.19437 1.98361,0.36923 2.94043,0.50746 l 0,0 c 0,0 1e-5,0 1e-5,0 0.68033,0.0904 1.2235,0.1774 1.652,0.18208 l 0,0 1e-5,0 0,0 c 1.08791,0.0591 2.43862,-0.24578 3.94206,-0.53151 l 0,0 c 2.33929,-0.47906 4.61092,-1.11726 6.78087,-1.8427 l 0,0 c 5.77912,-1.99327 10.362,-4.14993 13.82387,-7.40219 l 0,0 c 4.41074,-3.94546 7.1234,-10.97875 8.68539,-14.70331 l 0,0 c 1.20769,-2.93114 2.07756,-5.30914 2.74233,-6.9866 l 0,0 c 0.36689,-0.92588 0.66976,-1.64156 0.91603,-2.12274 l 0,0 c 0.12848,-0.25103 0.2424,-0.4398 0.34197,-0.56299 l 0,0 c 0,0 0,0 0,0 0.0508,-0.0629 0.0981,-0.10897 0.14176,-0.13772 0.0221,-0.0145 0.0432,-0.0247 0.0635,-0.0303 0,0 0,0 0,0 0.0216,-0.006 0.042,-0.007 0.0617,-0.003 z"
       style="fill:#000000;stroke:none;stroke-width:0.749989px;stroke-linecap:butt;stroke-linejoin:miter;stroke-opacity:1" />
    <g
       transform="translate(-82.327433,-24.243661)"
       id="g1485">
      <path
         sodipodi:nodetypes="csssssssc"
         inkscape:original-d="m 170.31769,74.543513 c 0,0 -3.74995,18.74973 -11.24984,26.249627 -7.4999,7.49991 -22.49969,11.24985 -26.24963,11.24985 -3.74995,0 -22.49969,-3.74994 -26.24964,-7.49989 -3.74994,-3.74996 -14.999778,-18.749747 -14.999778,-29.999587 0,-11.24984 7.49989,-29.999579 14.999778,-33.749526 7.4999,-3.749948 26.24964,-11.249842 33.74953,-7.499895 7.49989,3.749947 22.49968,11.249842 22.49968,14.999789 0,3.749942 7.4999,21.749692 7.4999,25.499642"
         inkscape:path-effect="#path-effect1445"
         id="path1420-5"
         d="m 170.31768,74.543556 c 0.52488,0.143195 0.0163,3.970958 -1.35552,10.769851 0,0 0,3e-6 0,3e-6 -1.02097,4.035018 -3.03463,11.530782 -8.19148,17.18255 -3.94459,4.15272 -9.12839,7.14294 -15.23824,9.4726 -2.32359,0.90858 -4.79709,1.72569 -7.3986,2.37598 -1.47194,0.39433 -3.25151,0.81534 -5.31562,0.87471 0,0 -1e-5,0 -1e-5,0 -0.93944,0.005 -1.75479,-0.0733 -2.44947,-0.15482 0,0 -1e-5,0 -1e-5,0 -1.10624,-0.11967 -2.19276,-0.27391 -3.27041,-0.44467 -2.70952,-0.42822 -5.45141,-0.97037 -8.22895,-1.62437 -2.70492,-0.63305 -5.53885,-1.39198 -8.37523,-2.41677 -1.79909,-0.53941 -4.17325,-1.45946 -6.44835,-3.51273 -1.64418,-1.62843 -3.02458,-3.34787 -4.301091,-5.03661 -1.876577,-2.461587 -3.642452,-5.069587 -5.265234,-7.816773 -1.735609,-2.927765 -3.338073,-6.086207 -4.596837,-9.483092 -1.15518,-3.042973 -2.022529,-6.477311 -2.061858,-10.185902 0.0049,-1.497197 0.10595,-2.974175 0.281871,-4.428679 0.248143,-2.051638 0.64283,-4.037892 1.11365,-5.94237 0.908361,-3.740586 2.135672,-7.347502 3.623229,-10.780478 1.41332,-3.287997 3.105418,-6.487139 5.239797,-9.454299 1.577323,-2.336039 3.767323,-4.720587 6.876993,-6.368239 5.83643,-2.858603 11.74405,-5.033456 17.55322,-6.606227 3.33196,-0.913815 6.69897,-1.609669 10.16706,-1.84173 2.77968,-0.280947 5.95353,-0.06489 9.0286,1.398447 5.16438,2.713857 9.66409,5.137797 14.0695,7.950247 2.19769,1.39529 4.26817,2.81493 6.18474,4.531394 0.71804,0.630493 1.45336,1.377347 2.11677,2.299048 0,0 1e-5,6e-6 1e-5,6e-6 0.52,0.562983 0.96289,1.585803 1.06643,2.993248 -0.0509,0.312148 0.0684,0.831902 0.18011,1.49706 0.18561,0.967656 0.43504,1.960434 0.68362,2.9182 0.6577,2.528396 1.59841,5.760691 2.16303,7.782263 0.92467,3.31047 1.54875,5.690812 2.00599,7.944705 0.26342,1.297218 0.41836,2.30499 0.48436,3.180177 0.11321,1.425282 -0.073,2.177243 -0.34206,2.177243 -0.16723,0 -0.4961,-0.662722 -0.98658,-1.859821 -0.3152,-0.742972 -0.71934,-1.692623 -1.21484,-2.860757 -0.39617,-0.932728 -2.31079,-5.44386 -3.15019,-7.476956 -0.87768,-2.123372 -2.00552,-4.880266 -2.99315,-7.639396 -0.34544,-0.962696 -0.70505,-2.014131 -1.01558,-3.122728 -0.19759,-0.629927 -0.41311,-1.473322 -0.46441,-2.53999 0.0952,0.247551 -0.063,0.256009 -0.2519,-0.141463 0,0 0,-4e-6 0,-4e-6 -0.34755,-0.437725 -0.86295,-0.858179 -1.48669,-1.363009 -1.67331,-1.320693 -3.57059,-2.42983 -5.76822,-3.671617 -4.37346,-2.453292 -8.75909,-4.534083 -14.0551,-7.049542 -1.33981,-0.744634 -3.3452,-0.609214 -5.73682,-0.476526 -2.84331,0.272914 -5.7371,0.990037 -8.81704,1.908217 -5.37348,1.622259 -10.82401,3.772833 -16.19632,6.518589 -1.44018,0.62698 -2.68307,2.268778 -4.13847,4.178488 -1.70921,2.413885 -3.10473,5.162837 -4.369434,8.123581 -1.30255,3.077273 -2.378634,6.29403 -3.173546,9.60986 -0.402166,1.712169 -0.743779,3.419015 -0.954797,5.099873 -0.149656,1.192078 -0.2327,2.363486 -0.227769,3.513185 -0.03928,2.429218 0.661712,5.019521 1.570902,7.626345 1.029487,2.865677 2.419196,5.644124 3.957724,8.329155 1.44437,2.510792 3.01961,4.907902 4.69556,7.18303 1.20687,1.62243 2.33007,3.102197 3.55035,4.338267 0.51475,0.73483 2.05636,1.18167 3.86401,1.99501 2.43532,0.95205 5.00653,1.7058 7.56205,2.38785 2.61075,0.69307 5.17735,1.28514 7.70833,1.77401 1.00884,0.19438 1.98362,0.36924 2.94044,0.50746 0,0 1e-5,0 1e-5,0 0.68033,0.0904 1.2235,0.17741 1.652,0.18209 0,0 1e-5,0 1e-5,0 1.08791,0.0591 2.43862,-0.24579 3.94206,-0.53152 2.33929,-0.47906 4.61092,-1.11725 6.78087,-1.8427 5.77913,-1.99327 10.362,-4.14994 13.82387,-7.402194 4.40428,-3.922295 7.1109,-10.937173 8.67346,-14.662555 0,0 0,-4e-6 0,-4e-6 2.24899,-6.473776 3.75447,-10.027356 4.2792,-9.884201 z"
         style="fill:#000000;stroke:none;stroke-width:0.749989px;stroke-linecap:butt;stroke-linejoin:miter;stroke-opacity:1" />
      <path
         style="fill:#000000;stroke:none;stroke-width:1px;stroke-linecap:butt;stroke-linejoin:miter;stroke-opacity:1"
         d="m 134.09135,32.02032 c 1.13077,1.186514 -2.91298,7.053341 -9.97007,15.027183 0,1e-6 0,2e-6 0,2e-6 -2.22599,3.130248 -4.8008,6.902419 -6.2995,10.790994 -0.62936,1.60961 -1.13984,3.223408 -1.27816,4.733516 -0.11517,1.303082 -0.058,2.590506 0.32162,3.624767 0.009,0.02632 0.0177,0.05267 0.0265,0.07904 1.25594,3.774872 1.40657,7.804236 0.44811,11.613899 -0.8131,3.044931 -1.87065,5.029925 -2.13929,6.482883 -0.18923,0.80986 -0.24939,1.64212 -0.18337,2.432865 0.0722,1.168642 0.49415,2.475655 0.99346,3.765984 1.62993,4.1413 4.7831,8.798071 6.19973,11.159037 1.70092,2.83478 2.49515,4.6757 1.88102,5.28982 -0.59761,0.59761 -2.49024,-0.10022 -5.30398,-2.06847 -2.62507,-1.83627 -6.76508,-5.35753 -10.04325,-10.620925 -1.00909,-1.624032 -1.93989,-3.616877 -2.48897,-5.99134 -0.37525,-1.729216 -0.47293,-3.558961 -0.2425,-5.413954 0.45146,-3.119452 1.44597,-5.586443 1.81915,-7.371259 0.4341,-1.859598 0.24486,-4.034957 -0.43894,-6.150784 -0.005,-0.01485 -0.01,-0.02969 -0.0145,-0.04452 -0.88745,-2.767301 -1.0416,-5.52848 -0.66223,-8.055545 0.41671,-2.787969 1.29138,-5.268845 2.34705,-7.404755 2.62296,-5.265252 6.16476,-9.365204 9.2607,-12.377268 0,0 0,-10e-7 0,-10e-7 8.56196,-6.907586 14.63472,-10.689699 15.76741,-9.501167 z"
         id="path1447"
         inkscape:path-effect="#path-effect1449"
         inkscape:original-d="m 134.09137,32.020305 c 0,0 -26.96954,20.757614 -21.96954,35.757614 5,15 -13.030457,14.242386 11.96954,39.242391"
         sodipodi:nodetypes="csc" />
      <path
         style="fill:#000000;fill-opacity:1;stroke:#000000;stroke-width:1px;stroke-linecap:butt;stroke-linejoin:miter;stroke-opacity:1"
         d="m 132.20371,32.703689 -19.06663,19.697974 -4.79822,18.687822 1.01015,17.425132 9.59645,12.374373 5.42957,8.9651 14.77348,1.13643 16.54125,-6.81853 6.81853,-6.818538 6.69226,-15.02602 1.13642,-10.606601 -7.82868,-24.117392 -18.30902,-13.384522 z"
         id="path1478" />
    </g>
    <g
       transform="translate(52.737142,-37.584854)"
       id="g1490">
      <path
         sodipodi:nodetypes="csssssssc"
         inkscape:original-d="m 115.3564,169.22701 c 0,0 -3.74995,18.74974 -11.24984,26.24963 -7.499904,7.4999 -22.499694,11.24984 -26.249634,11.24984 -3.74995,0 -22.49969,-3.74994 -26.24964,-7.49989 -3.74994,-3.74995 -14.99979,-18.74974 -14.99979,-29.99958 0,-11.24984 7.4999,-29.99958 14.99979,-33.74952 7.4999,-3.74995 26.24964,-11.24985 33.74953,-7.4999 7.49989,3.74995 22.499684,11.24984 22.499684,14.99979 0,3.74995 7.4999,21.74969 7.4999,25.49964"
         inkscape:path-effect="#path-effect1468"
         id="path1420-8"
         d="m 115.35639,169.22705 c 0.52488,0.1432 0.0163,3.97097 -1.35552,10.76986 0,0 0,0 0,0 -1.02097,4.03502 -3.03463,11.53079 -8.19149,17.18255 -3.94459,4.15272 -9.128389,7.14293 -15.23823,9.47259 -2.323599,0.90858 -4.797092,1.72569 -7.398606,2.37598 -1.471934,0.39433 -3.251505,0.81534 -5.315618,0.87471 0,0 -8e-6,0 -8e-6,0 -0.93944,0.005 -1.75479,-0.0733 -2.449473,-0.15482 0,0 -9e-6,0 -9e-6,0 -1.106244,-0.11967 -2.192759,-0.27391 -3.270414,-0.44467 -2.709521,-0.42822 -5.451409,-0.97037 -8.228943,-1.62437 -2.704922,-0.63305 -5.538858,-1.39197 -8.375232,-2.41677 -1.799091,-0.53941 -4.173255,-1.45946 -6.448354,-3.51273 -1.644182,-1.62842 -3.024584,-3.34786 -4.30109,-5.03661 -1.87658,-2.46158 -3.642457,-5.06958 -5.265239,-7.81676 -1.735612,-2.92777 -3.338077,-6.08621 -4.596842,-9.4831 -1.155182,-3.04297 -2.022532,-6.47731 -2.061861,-10.1859 0.0049,-1.49714 0.105942,-2.97406 0.28185,-4.4285 0.248143,-2.0517 0.64284,-4.03802 1.113673,-5.94255 0.908363,-3.74059 2.135676,-7.3475 3.623234,-10.78048 1.413322,-3.28799 3.105421,-6.48714 5.239803,-9.4543 1.577323,-2.33603 3.767323,-4.72058 6.876996,-6.36823 5.836424,-2.8586 11.744045,-5.03346 17.553221,-6.60623 3.331953,-0.91381 6.698967,-1.60967 10.167062,-1.84173 2.77968,-0.28095 5.953523,-0.0649 9.028593,1.39845 5.164383,2.71386 9.664092,5.13779 14.069507,7.95025 2.19769,1.39528 4.26817,2.81492 6.18474,4.53139 0.71803,0.63049 1.45336,1.37735 2.11677,2.29905 0,0 0,0 0,0 0.52,0.56299 0.96289,1.58581 1.06644,2.99325 -0.0509,0.31215 0.0684,0.8319 0.18011,1.49706 0.18561,0.96766 0.43503,1.96044 0.68362,2.9182 0.6577,2.5284 1.5984,5.76069 2.16302,7.78227 0.92468,3.31046 1.54876,5.69081 2.006,7.9447 0.26342,1.29721 0.41836,2.30499 0.48436,3.18017 0.11321,1.42529 -0.073,2.17725 -0.34206,2.17725 -0.16723,0 -0.4961,-0.66273 -0.98658,-1.85983 -0.3152,-0.74297 -0.71934,-1.69262 -1.21484,-2.86075 -0.39617,-0.93272 -2.31079,-5.44387 -3.15018,-7.47696 -0.87769,-2.12337 -2.00553,-4.88026 -2.99316,-7.63939 -0.34543,-0.9627 -0.70505,-2.01413 -1.01558,-3.12273 -0.19759,-0.62993 -0.41311,-1.47332 -0.46441,-2.53999 0.0953,0.24755 -0.063,0.25601 -0.2519,-0.14147 0,0 0,0 0,0 -0.34755,-0.43773 -0.86295,-0.85818 -1.48669,-1.36301 -1.6733,-1.32069 -3.57059,-2.42983 -5.768222,-3.67162 -4.373461,-2.45329 -8.759092,-4.53408 -14.055101,-7.04954 -1.339813,-0.74463 -3.345202,-0.60921 -5.736818,-0.47652 -2.843316,0.27291 -5.737101,0.99003 -8.817047,1.90821 -5.37348,1.62227 -10.824004,3.77284 -16.196317,6.5186 -1.44018,0.62698 -2.683067,2.26878 -4.13847,4.17849 -1.709216,2.41388 -3.104729,5.16283 -4.369438,8.12357 -1.302552,3.07728 -2.378637,6.29403 -3.173549,9.60986 -0.402179,1.71222 -0.7438,3.41912 -0.954816,5.10002 -0.149645,1.19203 -0.232682,2.36339 -0.227751,3.51304 -0.03928,2.42922 0.661712,5.01952 1.570903,7.62634 1.029488,2.86568 2.419197,5.64413 3.957727,8.32916 1.444373,2.51079 3.019609,4.9079 4.695563,7.18303 1.206871,1.62242 2.33007,3.10219 3.550355,4.33826 0.514745,0.73483 2.056359,1.18167 3.864006,1.995 2.435324,0.95206 5.006531,1.70581 7.562048,2.38785 2.61075,0.69308 5.177357,1.28514 7.708338,1.77402 1.008835,0.19437 1.983612,0.36924 2.940438,0.50746 0,0 8e-6,0 8e-6,0 0.680332,0.0904 1.2235,0.17741 1.652004,0.18209 -3e-6,0 5e-6,0 5e-6,0 1.087907,0.0591 2.438619,-0.24579 3.942059,-0.53152 2.339293,-0.47905 4.610925,-1.11725 6.780876,-1.8427 5.779119,-1.99326 10.361998,-4.14993 13.823879,-7.40218 4.40428,-3.92229 7.1109,-10.93717 8.67345,-14.66256 0,0 0,0 0,0 2.24899,-6.47378 3.75447,-10.02736 4.2792,-9.88421 z"
         style="fill:#000000;stroke:none;stroke-width:0.749989px;stroke-linecap:butt;stroke-linejoin:miter;stroke-opacity:1" />
      <path
         style="fill:#000000;stroke:none;stroke-width:1px;stroke-linecap:butt;stroke-linejoin:miter;stroke-opacity:1"
         d="m 79.130069,126.70385 c 0.04155,0.008 0.08154,0.0197 0.121287,0.0358 0.03672,0.0149 0.07267,0.0333 0.107842,0.0553 0.06977,0.0435 0.136549,0.10065 0.200298,0.17119 0,0 0,0 0,0 v 0 c 0.125318,0.13858 0.239259,0.32886 0.341942,0.56831 v 0 c 0.197515,0.46058 0.354091,1.10352 0.47279,1.91135 v 0 c 0.215135,1.46436 0.304163,3.44892 0.304653,5.88371 v 0 c 2.28e-4,2.0602 -0.06023,4.10012 -0.118334,6.63451 v 0 c -0.03388,1.60932 -0.107899,3.337 0.03303,4.73982 v 0 c 0,0 0,0 0,0 0.143914,2.40311 1.485006,5.34119 2.541761,9.46919 0.854575,3.03035 1.651597,6.41553 2.07315,10.02272 0.213539,1.82722 0.32526,3.66266 0.313733,5.50809 -0.05643,4.21749 -0.960101,8.2144 -2.540335,11.76303 -1.523611,3.29253 -2.588506,5.98167 -3.206871,8.6964 -1.999633,9.04036 -4.087161,14.72602 -5.644932,14.54057 -1.557772,-0.18544 -2.252145,-6.20229 -2.073504,-15.45943 0.142548,-3.6401 0.949943,-7.37518 2.322583,-11.25101 0.857195,-2.48778 1.27233,-5.28567 1.215925,-8.28956 -0.01153,-1.39686 -0.119822,-2.83181 -0.302675,-4.32394 -0.356749,-2.91119 -0.995838,-5.98889 -1.596156,-8.89525 -0.835585,-3.61195 -1.89627,-7.24173 -1.743953,-11.78081 0,0 10e-7,0 10e-7,0 v 0 c 0.143806,-2.2013 0.553149,-4.14606 0.924127,-5.71511 v 0 c 0.568499,-2.50029 1.220791,-4.76044 1.843025,-6.63188 v 0 c 0.779128,-2.34579 1.557859,-4.22221 2.268348,-5.52199 v 0 c 0.394948,-0.72259 0.771175,-1.27215 1.121788,-1.63371 v 0 c 0.182289,-0.18797 0.357446,-0.3251 0.524827,-0.40925 v 0 c 0,0 0,0 0,0 0.08512,-0.0427 0.168141,-0.0718 0.249036,-0.0869 0.04077,-0.008 0.08098,-0.0117 0.120623,-0.0121 0.04288,-4.4e-4 0.08444,0.003 0.125995,0.011 z"
         id="path1470"
         inkscape:path-effect="#path-effect1472"
         inkscape:original-d="m 79.130079,126.7038 c 0,0 -2.857143,15 -2.857143,20 0,5 4.285714,15 4.285714,25 0,10 -3.460728,10.07012 -4.642857,20 l -1.785714,15"
         sodipodi:nodetypes="csssc" />
      <path
         style="fill:#000000;fill-opacity:1;stroke:#000000;stroke-width:1px;stroke-linecap:butt;stroke-linejoin:miter;stroke-opacity:1"
         d="m 78.413092,127.7843 -3.788073,17.29886 4.545687,26.51651 -6.060915,33.33503 6.060915,2.27285 19.697975,-7.19734 8.333759,-7.82868 4.67195,-9.72272 3.53554,-14.14214 -7.44988,-26.13769 -21.465738,-14.14214 z"
         id="path1480" />
    </g>
  </g>
</svg>
