<?xml version="1.0" encoding="UTF-8" standalone="no"?>
<svg
   xmlns:dc="http://purl.org/dc/elements/1.1/"
   xmlns:cc="http://creativecommons.org/ns#"
   xmlns:rdf="http://www.w3.org/1999/02/22-rdf-syntax-ns#"
   xmlns:svg="http://www.w3.org/2000/svg"
   xmlns="http://www.w3.org/2000/svg"
   xmlns:sodipodi="http://sodipodi.sourceforge.net/DTD/sodipodi-0.dtd"
   xmlns:inkscape="http://www.inkscape.org/namespaces/inkscape"
   sodipodi:docname="hera.svg"
   inkscape:version="1.0 (4035a4fb49, 2020-05-01)"
   width="256.0px"
   height="256.0px"
   viewBox="0 0 256.0 256.0"
   version="1.1"
   id="SVGRoot">
  <defs
     id="defs1494">
    <inkscape:path-effect
       fuse_tolerance="0"
       hide_knot="false"
       vertical_pattern="false"
       prop_units="false"
       tang_offset="0"
       normal_offset="0"
       spacing="0"
       scale_y_rel="false"
       prop_scale="0.150066"
       copytype="single_stretched"
       pattern="M 0,5 C 0,2.24 2.24,0 5,0 7.76,0 10,2.24 10,5 10,7.76 7.76,10 5,10 2.24,10 0,7.76 0,5 Z"
       lpeversion="1"
       is_visible="true"
       id="path-effect2211"
       effect="skeletal" />
    <inkscape:path-effect
       fuse_tolerance="0"
       hide_knot="false"
       vertical_pattern="false"
       prop_units="false"
       tang_offset="0"
       normal_offset="0"
       spacing="0"
       scale_y_rel="false"
       prop_scale="0.28264852"
       copytype="single_stretched"
       pattern="M 0,5 C 0,2.24 2.24,0 5,0 7.76,0 10,2.24 10,5 10,7.76 7.76,10 5,10 2.24,10 0,7.76 0,5 Z"
       lpeversion="1"
       is_visible="true"
       id="path-effect2207"
       effect="skeletal" />
    <inkscape:path-effect
       fuse_tolerance="0"
       hide_knot="false"
       vertical_pattern="false"
       prop_units="false"
       tang_offset="0"
       normal_offset="0"
       spacing="0"
       scale_y_rel="false"
       prop_scale="0.30790234"
       copytype="single_stretched"
       pattern="M 0,5 C 0,2.24 2.24,0 5,0 7.76,0 10,2.24 10,5 10,7.76 7.76,10 5,10 2.24,10 0,7.76 0,5 Z"
       lpeversion="1"
       is_visible="true"
       id="path-effect2203"
       effect="skeletal" />
    <inkscape:path-effect
       fuse_tolerance="0"
       hide_knot="false"
       vertical_pattern="false"
       prop_units="false"
       tang_offset="0"
       normal_offset="0"
       spacing="0"
       scale_y_rel="false"
       prop_scale="0.150066"
       copytype="single_stretched"
       pattern="M 0,5 C 0,2.24 2.24,0 5,0 7.76,0 10,2.24 10,5 10,7.76 7.76,10 5,10 2.24,10 0,7.76 0,5 Z"
       lpeversion="1"
       is_visible="true"
       id="path-effect2199"
       effect="skeletal" />
    <inkscape:path-effect
       fuse_tolerance="0"
       hide_knot="false"
       vertical_pattern="false"
       prop_units="false"
       tang_offset="0"
       normal_offset="0"
       spacing="0"
       scale_y_rel="false"
       prop_scale="0.30816114"
       copytype="single_stretched"
       pattern="M 0,5 C 0,2.24 2.24,0 5,0 7.76,0 10,2.24 10,5 10,7.76 7.76,10 5,10 2.24,10 0,7.76 0,5 Z"
       lpeversion="1"
       is_visible="true"
       id="path-effect2195"
       effect="skeletal" />
    <inkscape:path-effect
       fuse_tolerance="0"
       hide_knot="false"
       vertical_pattern="false"
       prop_units="false"
       tang_offset="0"
       normal_offset="0"
       spacing="0"
       scale_y_rel="false"
       prop_scale="0.150066"
       copytype="single_stretched"
       pattern="M 0,5 C 0,2.24 2.24,0 5,0 7.76,0 10,2.24 10,5 10,7.76 7.76,10 5,10 2.24,10 0,7.76 0,5 Z"
       lpeversion="1"
       is_visible="true"
       id="path-effect2191"
       effect="skeletal" />
    <inkscape:path-effect
       fuse_tolerance="0"
       hide_knot="false"
       vertical_pattern="false"
       prop_units="false"
       tang_offset="0"
       normal_offset="0"
       spacing="0"
       scale_y_rel="false"
       prop_scale="0.31427921"
       copytype="single_stretched"
       pattern="M 0,5 C 0,2.24 2.24,0 5,0 7.76,0 10,2.24 10,5 10,7.76 7.76,10 5,10 2.24,10 0,7.76 0,5 Z"
       lpeversion="1"
       is_visible="true"
       id="path-effect2187"
       effect="skeletal" />
    <inkscape:path-effect
       fuse_tolerance="0"
       hide_knot="false"
       vertical_pattern="false"
       prop_units="false"
       tang_offset="0"
       normal_offset="0"
       spacing="0"
       scale_y_rel="false"
       prop_scale="0.150066"
       copytype="single_stretched"
       pattern="M 0,5 C 0,2.24 2.24,0 5,0 7.76,0 10,2.24 10,5 10,7.76 7.76,10 5,10 2.24,10 0,7.76 0,5 Z"
       lpeversion="1"
       is_visible="true"
       id="path-effect2183"
       effect="skeletal" />
    <inkscape:path-effect
       fuse_tolerance="0"
       hide_knot="false"
       vertical_pattern="false"
       prop_units="false"
       tang_offset="0"
       normal_offset="0"
       spacing="0"
       scale_y_rel="false"
       prop_scale="0.29068112"
       copytype="single_stretched"
       pattern="M 0,5 C 0,2.24 2.24,0 5,0 7.76,0 10,2.24 10,5 10,7.76 7.76,10 5,10 2.24,10 0,7.76 0,5 Z"
       lpeversion="1"
       is_visible="true"
       id="path-effect2179"
       effect="skeletal" />
    <inkscape:path-effect
       fuse_tolerance="0"
       hide_knot="false"
       vertical_pattern="false"
       prop_units="false"
       tang_offset="0"
       normal_offset="0"
       spacing="0"
       scale_y_rel="false"
       prop_scale="0.150066"
       copytype="single_stretched"
       pattern="M 0,5 C 0,2.24 2.24,0 5,0 7.76,0 10,2.24 10,5 10,7.76 7.76,10 5,10 2.24,10 0,7.76 0,5 Z"
       lpeversion="1"
       is_visible="true"
       id="path-effect2175"
       effect="skeletal" />
    <inkscape:path-effect
       fuse_tolerance="0"
       hide_knot="false"
       vertical_pattern="false"
       prop_units="false"
       tang_offset="0"
       normal_offset="0"
       spacing="0"
       scale_y_rel="false"
       prop_scale="0.150066"
       copytype="single_stretched"
       pattern="M 0,5 C 0,2.24 2.24,0 5,0 7.76,0 10,2.24 10,5 10,7.76 7.76,10 5,10 2.24,10 0,7.76 0,5 Z"
       lpeversion="1"
       is_visible="true"
       id="path-effect2171"
       effect="skeletal" />
    <inkscape:path-effect
       fuse_tolerance="0"
       hide_knot="false"
       vertical_pattern="false"
       prop_units="false"
       tang_offset="0"
       normal_offset="0"
       spacing="0"
       scale_y_rel="false"
       prop_scale="0.150066"
       copytype="single_stretched"
       pattern="M 0,5 C 0,2.24 2.24,0 5,0 7.76,0 10,2.24 10,5 10,7.76 7.76,10 5,10 2.24,10 0,7.76 0,5 Z"
       lpeversion="1"
       is_visible="true"
       id="path-effect2167"
       effect="skeletal" />
    <inkscape:path-effect
       fuse_tolerance="0"
       hide_knot="false"
       vertical_pattern="false"
       prop_units="false"
       tang_offset="0"
       normal_offset="0"
       spacing="0"
       scale_y_rel="false"
       prop_scale="0.150066"
       copytype="single_stretched"
       pattern="M 0,5 C 0,2.24 2.24,0 5,0 7.76,0 10,2.24 10,5 10,7.76 7.76,10 5,10 2.24,10 0,7.76 0,5 Z"
       lpeversion="1"
       is_visible="true"
       id="path-effect2163"
       effect="skeletal" />
    <inkscape:path-effect
       fuse_tolerance="0"
       hide_knot="false"
       vertical_pattern="false"
       prop_units="false"
       tang_offset="0"
       normal_offset="0"
       spacing="0"
       scale_y_rel="false"
       prop_scale="0.150066"
       copytype="single_stretched"
       pattern="M 0,5 C 0,2.24 2.24,0 5,0 7.76,0 10,2.24 10,5 10,7.76 7.76,10 5,10 2.24,10 0,7.76 0,5 Z"
       lpeversion="1"
       is_visible="true"
       id="path-effect2159"
       effect="skeletal" />
    <inkscape:path-effect
       fuse_tolerance="0"
       hide_knot="false"
       vertical_pattern="false"
       prop_units="false"
       tang_offset="0"
       normal_offset="0"
       spacing="0"
       scale_y_rel="false"
       prop_scale="0.150066"
       copytype="single_stretched"
       pattern="M 0,5 C 0,2.24 2.24,0 5,0 7.76,0 10,2.24 10,5 10,7.76 7.76,10 5,10 2.24,10 0,7.76 0,5 Z"
       lpeversion="1"
       is_visible="true"
       id="path-effect2155"
       effect="skeletal" />
    <inkscape:path-effect
       fuse_tolerance="0"
       hide_knot="false"
       vertical_pattern="false"
       prop_units="false"
       tang_offset="0"
       normal_offset="0"
       spacing="0"
       scale_y_rel="false"
       prop_scale="0.150066"
       copytype="single_stretched"
       pattern="M 0,5 C 0,2.24 2.24,0 5,0 7.76,0 10,2.24 10,5 10,7.76 7.76,10 5,10 2.24,10 0,7.76 0,5 Z"
       lpeversion="1"
       is_visible="true"
       id="path-effect2151"
       effect="skeletal" />
    <inkscape:path-effect
       fuse_tolerance="0"
       hide_knot="false"
       vertical_pattern="false"
       prop_units="false"
       tang_offset="0"
       normal_offset="0"
       spacing="0"
       scale_y_rel="false"
       prop_scale="0.150066"
       copytype="single_stretched"
       pattern="M 0,5 C 0,2.24 2.24,0 5,0 7.76,0 10,2.24 10,5 10,7.76 7.76,10 5,10 2.24,10 0,7.76 0,5 Z"
       lpeversion="1"
       is_visible="true"
       id="path-effect2147"
       effect="skeletal" />
    <inkscape:path-effect
       fuse_tolerance="0"
       hide_knot="false"
       vertical_pattern="false"
       prop_units="false"
       tang_offset="0"
       normal_offset="0"
       spacing="0"
       scale_y_rel="false"
       prop_scale="0.150066"
       copytype="single_stretched"
       pattern="M 0,5 C 0,2.24 2.24,0 5,0 7.76,0 10,2.24 10,5 10,7.76 7.76,10 5,10 2.24,10 0,7.76 0,5 Z"
       lpeversion="1"
       is_visible="true"
       id="path-effect2143"
       effect="skeletal" />
    <inkscape:path-effect
       fuse_tolerance="0"
       hide_knot="false"
       vertical_pattern="false"
       prop_units="false"
       tang_offset="0"
       normal_offset="0"
       spacing="0"
       scale_y_rel="false"
       prop_scale="0.27031669"
       copytype="single_stretched"
       pattern="M 0,5 C 0,2.24 2.24,0 5,0 7.76,0 10,2.24 10,5 10,7.76 7.76,10 5,10 2.24,10 0,7.76 0,5 Z"
       lpeversion="1"
       is_visible="true"
       id="path-effect2139"
       effect="skeletal" />
    <inkscape:path-effect
       fuse_tolerance="0"
       hide_knot="false"
       vertical_pattern="false"
       prop_units="false"
       tang_offset="0"
       normal_offset="0"
       spacing="0"
       scale_y_rel="false"
       prop_scale="0.150066"
       copytype="single_stretched"
       pattern="M 0,5 C 0,2.24 2.24,0 5,0 7.76,0 10,2.24 10,5 10,7.76 7.76,10 5,10 2.24,10 0,7.76 0,5 Z"
       lpeversion="1"
       is_visible="true"
       id="path-effect2135"
       effect="skeletal" />
    <inkscape:path-effect
       fuse_tolerance="0"
       hide_knot="false"
       vertical_pattern="false"
       prop_units="false"
       tang_offset="0"
       normal_offset="0"
       spacing="0"
       scale_y_rel="false"
       prop_scale="0.150066"
       copytype="single_stretched"
       pattern="M 0,5 C 0,2.24 2.24,0 5,0 7.76,0 10,2.24 10,5 10,7.76 7.76,10 5,10 2.24,10 0,7.76 0,5 Z"
       lpeversion="1"
       is_visible="true"
       id="path-effect2131"
       effect="skeletal" />
    <inkscape:path-effect
       fuse_tolerance="0"
       hide_knot="false"
       vertical_pattern="false"
       prop_units="false"
       tang_offset="0"
       normal_offset="0"
       spacing="0"
       scale_y_rel="false"
       prop_scale="0.150066"
       copytype="single_stretched"
       pattern="M 0,5 C 0,2.24 2.24,0 5,0 7.76,0 10,2.24 10,5 10,7.76 7.76,10 5,10 2.24,10 0,7.76 0,5 Z"
       lpeversion="1"
       is_visible="true"
       id="path-effect2127"
       effect="skeletal" />
    <inkscape:path-effect
       fuse_tolerance="0"
       hide_knot="false"
       vertical_pattern="false"
       prop_units="false"
       tang_offset="0"
       normal_offset="0"
       spacing="0"
       scale_y_rel="false"
       prop_scale="0.150066"
       copytype="single_stretched"
       pattern="M 0,5 C 0,2.24 2.24,0 5,0 7.76,0 10,2.24 10,5 10,7.76 7.76,10 5,10 2.24,10 0,7.76 0,5 Z"
       lpeversion="1"
       is_visible="true"
       id="path-effect2123"
       effect="skeletal" />
    <inkscape:path-effect
       fuse_tolerance="0"
       hide_knot="false"
       vertical_pattern="false"
       prop_units="false"
       tang_offset="0"
       normal_offset="0"
       spacing="0"
       scale_y_rel="false"
       prop_scale="0.150066"
       copytype="single_stretched"
       pattern="M 0,5 C 0,2.24 2.24,0 5,0 7.76,0 10,2.24 10,5 10,7.76 7.76,10 5,10 2.24,10 0,7.76 0,5 Z"
       lpeversion="1"
       is_visible="true"
       id="path-effect2119"
       effect="skeletal" />
    <inkscape:path-effect
       fuse_tolerance="0"
       hide_knot="false"
       vertical_pattern="false"
       prop_units="false"
       tang_offset="0"
       normal_offset="0"
       spacing="0"
       scale_y_rel="false"
       prop_scale="0.150066"
       copytype="single_stretched"
       pattern="M 0,5 C 0,2.24 2.24,0 5,0 7.76,0 10,2.24 10,5 10,7.76 7.76,10 5,10 2.24,10 0,7.76 0,5 Z"
       lpeversion="1"
       is_visible="true"
       id="path-effect2115"
       effect="skeletal" />
    <inkscape:path-effect
       fuse_tolerance="0"
       hide_knot="false"
       vertical_pattern="false"
       prop_units="false"
       tang_offset="0"
       normal_offset="0"
       spacing="0"
       scale_y_rel="false"
       prop_scale="0.150066"
       copytype="single_stretched"
       pattern="M 0,5 C 0,2.24 2.24,0 5,0 7.76,0 10,2.24 10,5 10,7.76 7.76,10 5,10 2.24,10 0,7.76 0,5 Z"
       lpeversion="1"
       is_visible="true"
       id="path-effect2111"
       effect="skeletal" />
    <inkscape:path-effect
       fuse_tolerance="0"
       hide_knot="false"
       vertical_pattern="false"
       prop_units="false"
       tang_offset="0"
       normal_offset="0"
       spacing="0"
       scale_y_rel="false"
       prop_scale="0.150066"
       copytype="single_stretched"
       pattern="M 0,5 C 0,2.24 2.24,0 5,0 7.76,0 10,2.24 10,5 10,7.76 7.76,10 5,10 2.24,10 0,7.76 0,5 Z"
       lpeversion="1"
       is_visible="true"
       id="path-effect2107"
       effect="skeletal" />
    <inkscape:path-effect
       fuse_tolerance="0"
       hide_knot="false"
       vertical_pattern="false"
       prop_units="false"
       tang_offset="0"
       normal_offset="0"
       spacing="0"
       scale_y_rel="false"
       prop_scale="0.15006642"
       copytype="single_stretched"
       pattern="M 0,5 C 0,2.24 2.24,0 5,0 7.76,0 10,2.24 10,5 10,7.76 7.76,10 5,10 2.24,10 0,7.76 0,5 Z"
       lpeversion="1"
       is_visible="true"
       id="path-effect2103"
       effect="skeletal" />
    <inkscape:path-effect
       fuse_tolerance="0"
       hide_knot="false"
       vertical_pattern="false"
       prop_units="false"
       tang_offset="0"
       normal_offset="0"
       spacing="0"
       scale_y_rel="false"
       prop_scale="0.4"
       copytype="single_stretched"
       pattern="M 0,5 C 0,2.24 2.24,0 5,0 7.76,0 10,2.24 10,5 10,7.76 7.76,10 5,10 2.24,10 0,7.76 0,5 Z"
       lpeversion="1"
       is_visible="true"
       id="path-effect2099"
       effect="skeletal" />
    <inkscape:path-effect
       fuse_tolerance="0"
       hide_knot="false"
       vertical_pattern="false"
       prop_units="false"
       tang_offset="0"
       normal_offset="0"
       spacing="0"
       scale_y_rel="false"
       prop_scale="0.4"
       copytype="single_stretched"
       pattern="M 0,5 C 0,2.24 2.24,0 5,0 7.76,0 10,2.24 10,5 10,7.76 7.76,10 5,10 2.24,10 0,7.76 0,5 Z"
       lpeversion="1"
       is_visible="true"
       id="path-effect2095"
       effect="skeletal" />
    <inkscape:path-effect
       fuse_tolerance="0"
       hide_knot="false"
       vertical_pattern="false"
       prop_units="false"
       tang_offset="0"
       normal_offset="0"
       spacing="0"
       scale_y_rel="false"
       prop_scale="0.4"
       copytype="single_stretched"
       pattern="M 0,5 C 0,2.24 2.24,0 5,0 7.76,0 10,2.24 10,5 10,7.76 7.76,10 5,10 2.24,10 0,7.76 0,5 Z"
       lpeversion="1"
       is_visible="true"
       id="path-effect2091"
       effect="skeletal" />
    <inkscape:path-effect
       fuse_tolerance="0"
       hide_knot="false"
       vertical_pattern="false"
       prop_units="false"
       tang_offset="0"
       normal_offset="0"
       spacing="0"
       scale_y_rel="false"
       prop_scale="0.63245553"
       copytype="single_stretched"
       pattern="M 0,5 C 0,2.24 2.24,0 5,0 7.76,0 10,2.24 10,5 10,7.76 7.76,10 5,10 2.24,10 0,7.76 0,5 Z"
       lpeversion="1"
       is_visible="true"
       id="path-effect2087"
       effect="skeletal" />
  </defs>
  <sodipodi:namedview
     inkscape:snap-global="false"
     inkscape:window-maximized="1"
     inkscape:window-y="-8"
     inkscape:window-x="-8"
     inkscape:window-height="1017"
     inkscape:window-width="1920"
     showgrid="true"
     inkscape:document-rotation="0"
     inkscape:current-layer="layer1"
     inkscape:document-units="px"
     inkscape:cy="136.15"
     inkscape:cx="153.6978"
     inkscape:zoom="2.8"
     inkscape:pageshadow="2"
     inkscape:pageopacity="0.0"
     borderopacity="1.0"
     bordercolor="#666666"
     pagecolor="#ffffff"
     id="base">
    <inkscape:grid
       type="xygrid"
       id="grid2064" />
  </sodipodi:namedview>
  <metadata
     id="metadata1497">
    <rdf:RDF>
      <cc:Work
         rdf:about="">
        <dc:format>image/svg+xml</dc:format>
        <dc:type
           rdf:resource="http://purl.org/dc/dcmitype/StillImage" />
        <dc:title></dc:title>
      </cc:Work>
    </rdf:RDF>
  </metadata>
  <g
     id="layer1"
     inkscape:groupmode="layer"
     inkscape:label="Layer 1">
    <path
       sodipodi:nodetypes="cc"
       inkscape:original-d="m 85,110 c 0,0 63,3 65,-20"
       inkscape:path-effect="#path-effect2087"
       id="path2085"
       d="m 85.000013,110 c 0.0093,-0.83888 3.775077,-1.56068 9.886748,-2.05914 0,0 2e-6,0 2e-6,0 5.363157,-0.57239 13.378507,-1.25954 21.462447,-2.42856 0,0 0,0 0,0 1.42566,-0.21123 2.88858,-0.43347 4.34729,-0.67261 6.81207,-1.1168 12.18402,-2.404 17.13796,-4.46537 0,0 0,0 0,0 3.19569,-1.347347 5.46875,-2.635073 7.30402,-4.263816 3.38016,-2.953919 4.0987,-6.176843 4.86152,-6.110512 0.29307,0.02548 2.04823,3.613074 -1.86982,8.811924 -1.84292,2.436714 -4.48999,4.634694 -7.95482,6.465334 0,0 0,0 0,0 -5.26466,2.81309 -11.36033,4.67025 -18.45649,5.8243 -1.54123,0.25065 -3.06154,0.45774 -4.54271,0.63278 0,0 0,0 0,0 -8.70692,1.06016 -16.61504,0.98765 -22.284666,0.54319 0,0 -2e-6,0 -2e-6,0 C 88.742715,111.64339 84.990748,110.83918 85.000013,110 Z"
       style="fill:#000000;stroke:none;stroke-width:1px;stroke-linecap:butt;stroke-linejoin:miter;stroke-opacity:1" />
    <path
       sodipodi:nodetypes="cc"
       inkscape:original-d="m 98,95 c 0,0 11,17 24,12"
       inkscape:path-effect="#path-effect2091"
       id="path2089"
       d="m 98.000022,95.000035 c 0.681725,-0.617034 4.251978,2.176126 8.464588,6.494815 0,0 0,0 0,0 0.89578,0.67301 1.85747,1.3537 2.86112,1.97475 1.37731,0.85226 2.69058,1.5039 4.00361,1.97702 0,0 0,0 0,0 2.27655,0.85706 4.3633,1.04896 5.93486,1.11485 1.55596,0.0652 2.58174,0.0379 2.7358,0.43853 0.14289,0.37149 -0.60723,1.19757 -2.3496,1.82876 -1.7239,0.62451 -4.3853,0.99704 -7.43436,0.19777 0,0 0,0 0,0 -1.72088,-0.47058 -3.44382,-1.22911 -5.11756,-2.27026 -1.2278,-0.76376 -2.32673,-1.61579 -3.29146,-2.4832 0,0 0,-1e-5 0,-1e-5 -4.02171,-4.780102 -6.490111,-8.654735 -5.806998,-9.273025 z"
       style="fill:#000000;stroke:none;stroke-width:1px;stroke-linecap:butt;stroke-linejoin:miter;stroke-opacity:1" />
    <path
       inkscape:original-d="m 97,92 c 0,0 -16.071429,18.41071 -16,42 0.07143,23.58929 9,21 9,31 0,10 10,40 30,50 20,10 50,-25 50,-30 0,-5 -5,-35 -10,-40 -5,-5 5,-35 -5,-50"
       inkscape:path-effect="#path-effect2095"
       id="path2093"
       d="m 96.999978,92.000026 c 0.259196,0.171136 -2.380667,4.703013 -7.289668,12.611804 0,0 -2e-6,1e-5 -2e-6,1e-5 -3.226561,6.53229 -7.492707,17.22771 -7.26216,29.38377 0.07407,4.14723 0.354957,8.69927 1.538677,12.9871 0.637929,2.32585 1.605474,4.62477 2.95852,6.71809 0.919339,1.42628 2.13696,2.89064 3.171201,4.72635 1.101794,2.01141 1.644212,4.28432 1.653072,6.57285 0.0076,3.27261 0.861072,6.58711 1.874223,10.11962 1.374613,4.70709 3.236164,9.40304 5.569621,14.02365 2.468868,4.87859 5.465708,9.66916 9.157818,13.94921 3.50706,4.05269 7.67544,7.72008 12.52176,10.12143 2.10946,1.06193 4.53944,1.57708 6.99044,1.57321 0.0319,2e-5 0.0638,-6e-5 0.0957,-2.2e-4 2.55098,-0.0129 5.12948,-0.58711 7.61585,-1.43883 5.75017,-1.97134 10.95629,-5.46334 15.66555,-9.24851 4.58738,-3.70889 8.69636,-7.76967 12.26382,-12.101 0,0 10e-6,-1e-5 10e-6,-1e-5 1.31424,-1.60034 2.53061,-3.18076 3.54418,-4.83681 0.34543,-0.56878 0.65282,-1.10091 0.87357,-1.62021 0.12619,-0.39671 0.24787,-0.57515 0.20037,-0.54153 0.01,-0.8438 -0.0965,-1.76542 -0.1966,-2.74443 -0.16418,-1.55131 -0.37335,-3.10359 -0.59677,-4.63921 -0.6139,-4.21593 -1.34575,-8.30905 -2.158,-12.25554 -0.89275,-4.3287 -1.8279,-8.33788 -3.04718,-12.20634 -0.50822,-1.60751 -1.0343,-3.1221 -1.68506,-4.54408 -0.5021,-1.04248 -0.92356,-1.95294 -1.52962,-2.5397 -1.10148,-1.23778 -1.50422,-2.64271 -1.62368,-3.79353 -0.27395,-1.78435 -0.26131,-3.52576 -0.20133,-5.11907 0.15279,-4.40922 0.78335,-9.91418 1.07194,-13.48302 0.49089,-6.13299 0.62715,-10.69326 0.26762,-15.14428 0,0 0,-1e-5 0,-1e-5 C 157.69837,99.57156 154.74451,95.170327 155,94.999999 c 0.20934,-0.13956 3.86449,3.813491 5.1499,13.344201 0,0 0,0 0,0 0.62099,4.52413 0.70277,9.3064 0.42387,15.48072 -0.18493,4.15815 -0.61592,8.64327 -0.64681,13.39198 -0.005,1.54684 0.0136,3.1161 0.28695,4.56843 0.23688,0.95632 0.40494,1.82767 0.85679,2.14397 1.03333,1.05257 1.69003,2.24675 2.20085,3.35874 0.76191,1.58277 1.37111,3.21048 1.92822,4.86998 1.34609,3.99879 2.38793,8.11161 3.35907,12.48116 0.88959,3.99538 1.69351,8.14684 2.37325,12.43196 0.24759,1.55957 0.48209,3.15618 0.67277,4.77485 0.11748,0.96494 0.24266,2.02019 0.25261,3.15401 -0.0475,0.91443 -0.26326,1.58218 -0.48322,1.99997 -0.32809,0.77224 -0.7111,1.46812 -1.09909,2.10782 -1.13635,1.88644 -2.43951,3.62423 -3.79955,5.2999 0,0 -1e-5,0 -1e-5,0 -3.69928,4.57042 -7.9658,8.84845 -12.73618,12.74275 -4.86883,3.99704 -10.45361,7.72941 -16.83445,9.97024 -2.78331,0.97803 -5.7851,1.62859 -8.89066,1.66533 -0.0388,4.6e-4 -0.0777,8.2e-4 -0.11654,0.001 -3.03237,0.0157 -6.06332,-0.64446 -8.79082,-2.00102 -5.44326,-2.74344 -10.00654,-6.74769 -13.72823,-11.12856 -3.9235,-4.60483 -7.060277,-9.67781 -9.59218,-14.80079 -2.398359,-4.84302 -4.295752,-9.77609 -5.680381,-14.72635 -1.029881,-3.6181 -1.883391,-7.29229 -1.875777,-11.13038 0.0089,-1.76094 -0.353884,-3.47938 -1.139338,-4.91766 -0.779144,-1.47897 -1.944591,-2.91538 -2.982817,-4.59117 -1.512326,-2.44733 -2.562414,-5.07157 -3.22228,-7.69541 -1.183863,-4.74223 -1.38276,-9.53379 -1.334095,-13.79137 0.155022,-12.94266 4.983051,-23.78522 8.667857,-30.27727 0,0 3e-6,-1e-5 3e-6,-1e-5 5.388561,-7.687429 8.521011,-11.898259 8.780266,-11.727084 z"
       style="fill:#000000;stroke:none;stroke-width:1px;stroke-linecap:butt;stroke-linejoin:miter;stroke-opacity:1" />
    <path
       inkscape:original-d="m 92.17642,61.240498 c 0,0 0.126269,9.596449 3.535534,14.647212 3.409265,5.050763 -0.631346,6.187184 1.010152,9.343911 1.641498,3.156727 3.914344,10.101526 3.914344,10.101526 0,0 7.70241,6.692263 14.64721,7.449873 6.9448,0.75762 13.8896,1.38896 18.56155,-2.39911 4.67196,-3.788073 12.75318,-9.722719 12.2481,-17.298863 -0.50507,-7.576144 0.12627,-13.258252 -3.03046,-17.67767 -3.15672,-4.419417 -9.59644,-7.702413 -9.34391,-12.12183"
       inkscape:path-effect="#path-effect2099"
       id="path2097"
       d="m 92.176421,61.240585 c 0.287218,-0.02593 0.735967,1.894052 1.296093,5.348157 0,0 10e-7,2e-6 10e-7,2e-6 0.49051,2.125225 1.33368,5.956874 3.313935,8.573681 0.710225,0.945763 1.404116,2.165824 1.68974,3.6682 0.151633,0.978191 0.07435,1.949423 -0.173256,2.850772 v 0 c -0.184724,0.723627 -0.408263,1.284289 -0.434162,1.697108 v 0 c -0.0506,0.344818 0.05858,0.757437 0.262821,1.120182 v 0 c 1.115655,2.04223 1.931317,4.127036 2.784067,6.362419 v 0 c 0.34489,0.899088 0.68439,1.81477 1.01956,2.748812 v 0 c 0.0999,0.27829 0.19962,0.559037 0.29873,0.84182 v 0 c -0.0807,-0.07014 -0.16167,-0.140223 -0.24298,-0.210238 0,0 0,10e-7 0,2e-6 -8.7e-4,-0.0028 0.0178,0.05833 0.0169,0.05549 -0.007,-0.02433 0.0137,0.04503 0.006,0.0207 -0.62837,-0.414852 5.0377,3.32879 4.40924,2.913776 2.82216,1.695278 5.9238,3.328342 9.07379,3.594382 3.253,0.32808 6.6107,0.70166 9.78132,0.46734 0.34284,-0.0293 0.68559,-0.065 1.02651,-0.10813 2.43547,-0.30801 4.67846,-0.98288 6.29024,-2.342778 2.97956,-2.408895 5.66472,-4.448772 7.8765,-6.946327 1.20073,-1.357569 2.21435,-2.73698 2.89395,-4.205403 0.68324,-1.475693 1.04601,-3.025493 0.96552,-4.488035 0,-10e-7 0,-3e-6 0,-4e-6 -0.184,-3.655561 -0.0764,-6.982322 -0.30871,-9.980892 -0.24843,-2.848721 -0.78367,-5.208543 -2.02746,-7.051528 -1.3084,-2.031864 -4.31284,-4.827036 -5.52595,-6.164478 -1.08234,-1.178772 -1.84291,-2.185779 -2.38307,-3.247522 -1.16175,-2.248213 -0.45606,-3.477637 -0.36708,-3.472552 0.22263,0.01272 0.2616,1.21934 1.45199,2.801448 0.64885,0.854371 1.4025,1.570677 2.58483,2.600314 1.36679,1.1733 4.46652,3.50109 6.3749,5.957352 1.70069,2.279952 2.62504,5.116588 2.99174,8.258597 0.40487,3.205491 0.44342,6.615909 0.73301,10.064314 0,2e-6 0,3e-6 0,5e-6 0.15831,2.119483 -0.24486,4.267754 -1.12187,6.244837 -0.84957,1.915608 -2.02909,3.638504 -3.38398,5.201641 -2.49309,2.879339 -5.3309,5.134142 -8.25438,7.511481 -2.43675,1.92272 -5.36276,2.91307 -8.30967,3.25274 -0.41266,0.0476 -0.82337,0.0821 -1.2305,0.10474 -3.66182,0.23918 -7.23804,-0.16181 -10.48486,-0.54282 -4.16992,-0.53279 -7.78927,-2.44248 -10.75459,-4.40635 -0.1773,-0.13954 -4.879469,-3.845762 -5.056772,-3.985299 -3.81e-4,-9.76e-4 -0.0085,-0.02429 -0.0088,-0.02511 -0.001,-0.0029 -0.02245,-0.06405 -0.02347,-0.06696 0,0 -10e-7,-1e-6 -10e-7,-2e-6 -0.132007,-0.223537 -0.263901,-0.446873 -0.395621,-0.670018 v 0 c -0.08744,-0.276702 -0.175836,-0.552853 -0.264624,-0.827859 v 0 c -0.298147,-0.923405 -0.598644,-1.828011 -0.902858,-2.716615 v 0 C 96.880298,89.772581 96.221406,87.81651 95.312349,85.964546 v 0 c -0.469457,-0.932821 -0.638152,-1.993627 -0.479008,-3.04275 v 0 c 0.168698,-0.884359 0.457268,-1.571424 0.623341,-2.063342 v 0 c 0.18267,-0.58662 0.282783,-1.136399 0.221336,-1.619942 -0.0581,-0.85261 -0.532224,-1.765821 -1.040829,-2.625524 -2.157258,-3.519833 -2.602225,-7.565032 -2.773764,-9.829975 0,0 0,-2e-6 0,-2e-6 -0.07185,-3.545978 0.02542,-5.516491 0.312727,-5.542433 z"
       style="fill:#000000;stroke:none;stroke-width:1px;stroke-linecap:butt;stroke-linejoin:miter;stroke-opacity:1" />
    <path
       inkscape:original-d="m 118.75606,98.174201 c 0,0 10.6066,-1.325826 12.87944,-3.724938"
       inkscape:path-effect="#path-effect2103"
       id="path2101"
       d="m 118.75614,98.174191 c -0.0634,-0.367592 2.30518,-1.090186 5.46022,-1.692638 0,0 0,0 0,0 0.34724,-0.08166 0.69637,-0.162955 1.04361,-0.244616 1.25171,-0.294367 2.18987,-0.527283 3.19469,-0.809043 1.94126,-0.587296 2.97919,-1.169682 3.18085,-0.978638 0.30247,0.286554 -0.73528,1.394887 -2.7494,2.205344 -0.96598,0.407435 -2.06371,0.756411 -3.30572,1.048127 -0.36772,0.08637 -0.7299,0.163486 -1.08231,0.2326 0,0 0,0 0,0 -3.19683,0.492699 -5.67855,0.606544 -5.74194,0.238864 z"
       style="fill:#000000;stroke:none;stroke-width:1px;stroke-linecap:butt;stroke-linejoin:miter;stroke-opacity:1" />
    <path
       inkscape:original-d="m 117.1875,87.410715 c 0,0 -1.20536,4.107142 2.09821,2.857142"
       inkscape:path-effect="#path-effect2107"
       id="path2105"
       d="m 117.18744,87.410903 c 0.35439,0.035 0.57066,0.853514 0.53712,1.895146 0,0 0,10e-7 0,10e-7 0.0469,0.110022 0.0745,0.192886 0.10545,0.277238 0.037,0.100688 0.0615,0.151986 0.10382,0.146876 0,0 0,0 0,0 0.0769,0.178444 0.44929,0.192798 0.74431,0.243508 0.31311,0.05382 0.54651,0.132808 0.60757,0.294184 0.12084,0.31936 -0.48641,1.349178 -2.08292,0.704421 0,0 0,0 0,0 -0.33704,-0.228486 -0.59597,-0.533988 -0.75431,-0.877391 -0.12103,-0.26249 -0.17332,-0.525101 -0.17485,-0.76444 0,0 0,-10e-7 0,-10e-7 0.18411,-1.153814 0.55735,-1.954743 0.91381,-1.919542 z"
       style="fill:#000000;stroke:none;stroke-width:1px;stroke-linecap:butt;stroke-linejoin:miter;stroke-opacity:1" />
    <path
       inkscape:original-d="m 125.13393,83.125 c 0,0 7.00893,2.991072 2.09821,5.401786"
       inkscape:path-effect="#path-effect2111"
       id="path2109"
       d="m 125.13403,83.125043 c 0.0117,-0.02596 0.0303,-0.04713 0.0568,-0.06573 0,0 0,0 0,0 0.0243,-0.01697 0.0549,-0.03071 0.0913,-0.0412 0,0 0,0 0,0 0.0716,-0.0206 0.16548,-0.02849 0.2792,-0.02335 v 0 c 0.21855,0.01034 0.51115,0.06944 0.85416,0.183494 v 0 c 0.58124,0.190755 1.37908,0.562032 2.11979,1.206503 0.18759,0.141383 0.37539,0.318923 0.54401,0.533931 0.38745,0.494037 0.61828,1.11524 0.59987,1.791371 -0.0804,0.600344 -0.37094,1.025408 -0.68226,1.293379 -0.91881,0.797401 -1.65693,0.742866 -1.7647,0.523347 -0.10776,-0.219518 0.48104,-0.652258 0.87117,-1.32104 0.10725,-0.198876 0.20533,-0.424572 0.16917,-0.576187 0.0324,-0.211514 -0.12737,-0.437993 -0.38753,-0.743074 -0.11286,-0.13234 -0.23687,-0.271303 -0.35608,-0.413685 -0.50377,-0.503204 -1.21677,-1.042487 -1.61665,-1.378426 v 0 c -0.2584,-0.216193 -0.46756,-0.405317 -0.60559,-0.564656 v 0 c -0.0726,-0.08339 -0.1255,-0.158772 -0.15575,-0.224965 0,0 0,0 0,0 -0.0154,-0.03377 -0.025,-0.06528 -0.0284,-0.09434 0,0 0,0 0,0 -0.004,-0.03173 -1.4e-4,-0.05942 0.0115,-0.08537 z"
       style="fill:#000000;stroke:none;stroke-width:1px;stroke-linecap:butt;stroke-linejoin:miter;stroke-opacity:1" />
    <path
       inkscape:original-d="m 120.04464,89.241072 c 0.22322,-0.04464 3.66072,0.803571 5,-1.5625"
       inkscape:path-effect="#path-effect2115"
       id="path2113"
       d="m 120.04464,89.241072 c -0.0206,-0.102768 0.17476,-0.212421 0.25953,-0.276003 0.12714,-0.05956 0.28628,-0.103995 0.47516,-0.14583 0.35509,-0.07809 0.80653,-0.131961 1.28553,-0.212438 0.18716,-0.03619 0.38484,-0.07817 0.58318,-0.126405 1.25938,-0.306297 2.03616,-1.005855 2.3966,-0.801831 0.285,0.161316 0.0386,1.772258 -2.03964,2.274685 -0.28012,0.06772 -0.55573,0.09898 -0.81763,0.100666 -0.61533,0.01222 -1.13872,-0.104706 -1.50325,-0.2515 -0.19361,-0.07733 -0.34621,-0.166156 -0.45101,-0.251159 -0.11166,-0.05427 -0.18171,-0.276375 -0.18847,-0.310185 z"
       style="fill:#000000;stroke:none;stroke-width:1px;stroke-linecap:butt;stroke-linejoin:miter;stroke-opacity:1" />
    <path
       inkscape:original-d="m 104.0625,85.401786 c 0,0 8.39286,-0.491071 10.08929,-3.080357"
       inkscape:path-effect="#path-effect2119"
       id="path2117"
       d="m 104.0626,85.40178 c -0.0474,-0.366643 1.81605,-0.917491 4.3045,-1.300957 0,0 0,0 0,0 0.28502,-0.06325 0.58663,-0.129815 0.88217,-0.197045 0.9166,-0.208512 1.64368,-0.394673 2.37139,-0.622839 1.52913,-0.530741 2.29341,-1.115265 2.53113,-0.959517 0.2912,0.190784 -0.28593,1.38883 -2.04092,2.182929 -0.7468,0.360549 -1.60145,0.651175 -2.56307,0.869309 -0.3221,0.07307 -0.63876,0.134089 -0.9454,0.18537 0,0 0,0 0,0 -2.53821,0.266458 -4.49236,0.20958 -4.5398,-0.15725 z"
       style="fill:#000000;stroke:none;stroke-width:1px;stroke-linecap:butt;stroke-linejoin:miter;stroke-opacity:1" />
    <path
       inkscape:original-d="m 126.02679,78.169643 c 0,0 10.44642,-2.678571 11.69642,-5.491071"
       inkscape:path-effect="#path-effect2123"
       id="path2121"
       d="m 126.02686,78.169624 c -0.007,-0.02526 -0.002,-0.05218 0.0132,-0.08245 0,0 0,0 0,0 0.0144,-0.02854 0.0385,-0.0593 0.0717,-0.09213 0,0 0,0 0,0 0.0658,-0.06511 0.16766,-0.138645 0.30164,-0.21953 v 0 0 c 0.2628,-0.15878 0.65177,-0.347426 1.13534,-0.558795 v 0 c 0.93143,-0.407164 2.1855,-0.886007 3.61296,-1.43972 0,0 0,0 0,0 0.707,-0.275075 0.13548,-0.05264 0.84248,-0.327718 1.21273,-0.473681 2.11986,-0.848126 3.05605,-1.288607 1.6799,-0.872571 2.41488,-1.592376 2.66299,-1.482103 0.38566,0.171402 -0.23339,1.51456 -2.03611,2.60091 -0.88789,0.577566 -1.92656,1.096281 -3.1367,1.568681 -0.29536,0.1153 -0.58771,0.222734 -0.87389,0.322951 0,0 0,10e-7 0,10e-7 -1.47854,0.51959 -2.83517,0.851455 -3.84022,1.018282 v 0 c -0.52952,0.08795 -0.96341,0.13019 -1.27467,0.128066 v 0 0 c -0.1578,-0.0011 -0.28352,-0.01367 -0.37373,-0.03761 0,0 0,0 0,0 -0.0454,-0.01205 -0.0817,-0.02698 -0.10856,-0.0448 0,0 0,0 0,0 -0.0284,-0.01893 -0.0458,-0.04016 -0.0525,-0.06543 z"
       style="fill:#000000;stroke:none;stroke-width:1px;stroke-linecap:butt;stroke-linejoin:miter;stroke-opacity:1" />
    <path
       inkscape:original-d="m 124.59821,72.008929 c 0,0 5.26786,-5.491072 11.83036,-3.660714"
       inkscape:path-effect="#path-effect2127"
       id="path2125"
       d="m 124.59829,72.00885 c -0.0159,-0.01604 -0.0253,-0.03746 -0.029,-0.06501 0,0 0,0 0,0 -0.003,-0.02556 -0.002,-0.05594 0.006,-0.09093 0,0 0,0 0,0 0.0143,-0.06973 0.0493,-0.156945 0.10503,-0.25977 v 0 0 c 0.11134,-0.204601 0.30287,-0.467127 0.57534,-0.767864 0,0 0,-10e-7 0,-10e-7 v 0 c 0.53147,-0.586889 1.36377,-1.311321 2.47832,-1.964252 0.61977,-0.365304 1.32185,-0.695436 2.09382,-0.95385 3.84468,-1.286973 6.70974,0.05174 6.60116,0.441043 -0.11127,0.398955 -2.91994,-0.08865 -6.12224,0.987202 -0.68525,0.230214 -1.32303,0.495603 -1.90685,0.772883 -1.06834,0.512148 -1.92541,1.027311 -2.58342,1.406284 v 0 c 0,0 0,0 0,0 -0.32914,0.18969 -0.60534,0.342862 -0.80667,0.431804 v 0 0 c -0.10354,0.04596 -0.19034,0.07627 -0.25829,0.08815 0,0 0,0 0,0 -0.0343,0.006 -0.0641,0.0074 -0.089,0.0037 0,0 0,0 0,0 -0.0269,-0.004 -0.048,-0.01341 -0.0638,-0.02942 z"
       style="fill:#000000;stroke:none;stroke-width:1px;stroke-linecap:butt;stroke-linejoin:miter;stroke-opacity:1" />
    <path
       inkscape:original-d="m 104.15179,79.955357 c 0,0 3.79464,-4.553571 8.125,-2.8125"
       inkscape:path-effect="#path-effect2131"
       id="path2129"
       d="m 104.15188,79.955249 c -0.0181,-0.01591 -0.0311,-0.03629 -0.0401,-0.06203 0,0 0,0 0,0 -0.008,-0.02338 -0.0121,-0.05073 -0.0122,-0.0819 0,0 0,0 0,0 -3.6e-4,-0.06196 0.0147,-0.138371 0.045,-0.227659 v 0 0 c 0.0606,-0.176595 0.18114,-0.401695 0.36273,-0.658203 v 0 c 0.34625,-0.489744 0.92022,-1.099613 1.72001,-1.64705 0,0 0,0 0,0 0.38801,-0.269724 0.83149,-0.513852 1.32289,-0.708038 1.34529,-0.531607 2.60555,-0.521046 3.50545,-0.272814 0.89118,0.245827 1.29296,0.666667 1.22113,0.8453 -0.0803,0.199677 -0.60582,0.148084 -1.34672,0.192203 -0.78981,0.04703 -1.7072,0.198554 -2.82296,0.641565 -0.40179,0.159532 -0.78048,0.338219 -1.12839,0.521811 0,0 0,0 0,0 -0.73154,0.396277 -1.36623,0.814095 -1.83974,1.097904 v 0 c -0.24832,0.149041 -0.46016,0.265831 -0.62356,0.331732 v 0 0 c -0.0841,0.03422 -0.15685,0.05536 -0.2166,0.06137 0,0 0,0 0,0 -0.0302,0.003 -0.0573,0.0023 -0.081,-0.0027 0,0 0,0 0,0 -0.0262,-0.0056 -0.0478,-0.01565 -0.0659,-0.03155 z"
       style="fill:#000000;stroke:none;stroke-width:1px;stroke-linecap:butt;stroke-linejoin:miter;stroke-opacity:1" />
    <path
       inkscape:original-d="m 93.839286,63.571429 c 0,0 -0.892857,-4.017857 0.178571,-8.214286"
       inkscape:path-effect="#path-effect2135"
       id="path2133"
       d="m 93.839242,63.571231 c -0.410916,-0.0089 -0.704404,-1.856144 -0.655106,-4.123233 0.0493,-2.26709 0.422805,-4.099794 0.833721,-4.090859 0.410917,0.0089 0.704404,1.856144 0.655107,4.123233 -0.0493,2.267089 -0.422805,4.099794 -0.833722,4.090859 z"
       style="fill:#000000;stroke:none;stroke-width:1px;stroke-linecap:butt;stroke-linejoin:miter;stroke-opacity:1" />
    <path
       inkscape:original-d="m 95.982143,58.75 c 0,0 -0.803571,-5.982143 1.607143,-9.285714 2.410714,-3.303572 0.625,-4.375 0.625,-4.375"
       inkscape:path-effect="#path-effect2139"
       id="path2137"
       d="m 95.982125,58.749863 c -0.484361,0.01411 -0.947385,-1.345085 -1.246154,-3.433682 -0.08406,-1.161553 -0.0088,-2.651598 0.517533,-4.173382 0.313149,-0.905328 0.75315,-1.724196 1.303666,-2.431678 0.986885,-1.427282 1.442479,-1.64283 1.533035,-2.509991 l 0,0 c 0.05493,-0.237252 0.0633,-0.426682 0.05958,-0.618049 l 0,0 c 0.0095,-0.107357 0.0093,-0.156197 0.01465,-0.25338 l 0,0 0,-10e-7 c 0.03578,-0.100835 0.04937,-0.160627 0.05345,-0.194905 0,0 0,0 0,0 0.004,-0.03342 -0.0015,-0.04306 -0.0034,-0.04516 -3.23e-4,-3.71e-4 -2.5e-4,-3.47e-4 -2.5e-4,-3.47e-4 0,0 -5.4e-5,-5.5e-5 4.42e-4,7.3e-5 0.0028,7.23e-4 0.01426,0.0017 0.04444,-0.01322 0,0 0,0 0,0 0.03136,-0.01552 0.08183,-0.04699 0.164273,-0.109798 l 0,0 0,0 c 0.09266,-0.0063 0.215099,0.0193 0.356961,0.08961 l 0,0 c 0.244933,0.119349 0.556625,0.394684 0.747912,0.851958 l 0,0 c 0.451503,1.174393 0.19259,2.87206 -0.906911,4.309545 -0.332574,0.502817 -0.596028,1.073494 -0.817471,1.746592 -0.351238,1.067624 -0.583234,2.395787 -0.774827,3.380036 -0.178129,2.016527 -0.563711,3.39171 -1.046979,3.405784 z"
       style="fill:#000000;stroke:none;stroke-width:1px;stroke-linecap:butt;stroke-linejoin:miter;stroke-opacity:1" />
    <path
       inkscape:original-d="m 100.71429,51.696429 c 0,0 -2.500004,-4.017857 -0.0893,-7.767857 2.41071,-3.75 2.5,-1.964286 2.5,-1.964286"
       inkscape:path-effect="#path-effect2143"
       id="path2141"
       d="m 100.7142,51.696279 c -0.24244,0.09257 -0.834012,-0.820384 -1.547034,-2.315957 -0.303968,-1.007221 -0.421072,-2.295456 -0.09215,-3.654892 0.198829,-0.821762 0.53463,-1.555489 0.959854,-2.17622 0.55263,-0.78422 1.05482,-1.382344 1.62626,-1.846078 0.26665,-0.2788 0.67206,-0.487252 1.07712,-0.492974 0,0 0,0 0,0 0.37068,0.04055 0.49672,0.273753 0.52226,0.439223 0.0223,0.204411 -0.0637,0.301773 -0.12208,0.313659 0,0 0,0 0,0 0,0 0,0 0,0 0,0 0,0 0,0 -0.0133,0.0015 -0.0135,0.0012 -0.0134,0.0012 3e-5,-10e-7 -1.4e-4,1.01e-4 -0.0135,2.91e-4 0,0 0,0 0,0 0,0 0,0 0,0 0,0 0,0 0,0 -0.07,-0.0057 -0.13487,-0.07888 -0.23334,-0.144829 -0.0457,-0.01345 -0.13619,-0.01671 -0.077,0.05198 0,0 0,0 0,0 -0.10509,0.04089 -0.15217,0.249789 -0.41687,0.525031 -0.42095,0.590339 -0.64811,1.018151 -1.16916,1.911175 -0.29951,0.506623 -0.54022,1.083141 -0.70149,1.731512 -0.2653,1.066584 -0.26313,2.10909 -0.15637,2.986478 0.43549,1.510218 0.5987,2.578042 0.35695,2.670355 z"
       style="fill:#000000;stroke:none;stroke-width:1px;stroke-linecap:butt;stroke-linejoin:miter;stroke-opacity:1" />
    <path
       inkscape:original-d="m 105.68721,56.063466 c 0,0 3.6618,-11.490485 8.46003,-13.131983 4.79822,-1.641498 3.15672,-6.439722 3.15672,-6.439722"
       inkscape:path-effect="#path-effect2175"
       id="path2173"
       d="m 105.68723,56.0634 c -0.26702,-0.109123 0.49095,-2.625017 1.83139,-6.235684 0.64516,-1.427926 1.50993,-3.082557 2.6951,-4.618138 0.0816,-0.108883 0.16587,-0.218076 0.25287,-0.327024 0.93675,-1.173059 2.05912,-2.146725 3.45143,-2.621102 1.86459,-0.561238 2.89002,-1.972569 3.14029,-3.164047 -0.003,-1.544959 0.0726,-2.548401 0.24022,-2.604341 0,0 0,0 0,0 0,0 0,0 0,0 0,0 0,0 0,0 0,0 0,0 0,0 0,0 0,0 0,0 0,0 0,0 0,0 0.005,-0.0014 0.005,-0.0013 0.005,-0.0013 -4e-5,8e-6 -8e-5,-5.2e-5 0.006,-9.9e-4 0,0 0,0 0,0 0,0 0,0 0,0 0,0 1e-5,0 1e-5,0 0,0 0,0 0,0 0,0 0,0 0,0 0,0 0,-1e-6 0,-1e-6 0.17186,-0.01493 0.40954,0.935838 0.67827,2.63175 -0.12555,1.543212 -1.22038,3.584927 -3.61131,4.478994 -1.01523,0.349259 -1.86073,1.181178 -2.7379,2.235462 -0.0813,0.0977 -0.16187,0.196069 -0.24161,0.294314 -1.08202,1.374976 -1.95598,2.916133 -2.66721,4.241512 -1.55613,3.477602 -2.77565,5.799657 -3.04251,5.690598 z"
       style="fill:#000000;stroke:none;stroke-width:1px;stroke-linecap:butt;stroke-linejoin:miter;stroke-opacity:1" />
    <path
       inkscape:original-d="m 102.90929,39.774757 c 0,0 5.42957,-5.303301 8.5863,-4.419418 3.15672,0.883884 8.08122,0.252538 8.08122,0.252538"
       inkscape:path-effect="#path-effect2179"
       id="path2177"
       d="m 102.90937,39.77468 c -0.0254,-0.02668 -0.0438,-0.05803 -0.0568,-0.09574 0,0 0,0 0,0 -0.0118,-0.03474 -0.0183,-0.07409 -0.0195,-0.117918 -0.002,-0.08653 0.016,-0.190041 0.0544,-0.309107 0,0 0,0 0,0 l 0,0 c 0.0752,-0.231634 0.2269,-0.521164 0.45253,-0.854389 l 0,-1e-6 c 0.40979,-0.60574 1.08276,-1.380482 2.00145,-2.166302 l 0,0 c 0.75203,-0.649177 1.74327,-1.361117 2.96912,-1.887521 0.60544,-0.293097 1.36087,-0.515771 2.2273,-0.529869 0.43662,-0.0071 0.88834,0.03935 1.34761,0.149129 1.51538,0.472857 3.54563,0.626904 4.78767,0.787918 l 0,0 c 0.82776,0.103833 1.51398,0.206067 2.01558,0.334226 l 0,0 c 0.26377,0.06738 0.47491,0.142002 0.62469,0.225341 l 0,0 0,0 c 0.0761,0.04275 0.13683,0.08813 0.18075,0.135932 l 0,0 0,10e-7 c 0.0564,0.150027 0.0795,0.160928 0.0825,0.161447 0,0 0,0 0,0 0,0 0,0 0,0 0,0 0,0 0,0 0,0 0,0 0,0 0,0 0,0 0,0 0,0 0,0 0,0 0,0 0,0 0,0 0,0 0,0 0,0 2.4e-4,4.1e-5 1.8e-4,4.9e-5 1.8e-4,4.8e-5 0,-1e-6 6e-5,-9e-6 -1.6e-4,9.1e-5 0,0 0,0 0,0 0,0 0,0 0,0 0,0 0,0 0,0 0,0 0,0 0,0 0,0 0,0 0,0 0,0 0,0 0,0 0,0 0,0 0,0 0,0 0,0 0,0 -0.003,0.0012 -0.0224,0.01758 -0.0408,0.176518 l 0,0 0,0 c -0.0323,0.05707 -0.083,0.115055 -0.15132,0.173837 l 0,0 0,0 c -0.13241,0.114731 -0.33044,0.231001 -0.5883,0.34475 l 0,0 c -0.48617,0.214503 -1.19031,0.420936 -2.06232,0.573123 l 0,0 c -1.368,0.248902 -3.43754,0.432709 -5.62824,-0.128482 -0.12614,-0.05414 -0.28053,-0.06744 -0.46272,-0.05197 -0.35175,0.02987 -0.82246,0.172194 -1.2965,0.301604 -0.90913,0.30814 -1.84284,0.805082 -2.62745,1.222569 l 0,0 c -0.9906,0.531746 -1.75389,0.969918 -2.42289,1.283225 l 0,0 c -0.34723,0.16267 -0.64111,0.276728 -0.87171,0.328827 l 0,0 c 0,0 0,0 0,0 -0.11943,0.02724 -0.22242,0.03777 -0.30731,0.03007 -0.0431,-0.0039 -0.0817,-0.01252 -0.11542,-0.02607 0,0 0,0 0,0 -0.0367,-0.01486 -0.067,-0.03462 -0.0924,-0.06129 z"
       style="fill:#000000;stroke:none;stroke-width:1px;stroke-linecap:butt;stroke-linejoin:miter;stroke-opacity:1" />
    <path
       inkscape:original-d="m 120.20815,35.22907 c 0,0 9.72272,-0.126269 15.27856,6.439723"
       inkscape:path-effect="#path-effect2187"
       id="path2185"
       d="m 120.20824,35.229069 c 4.5e-4,-0.04582 0.0113,-0.09004 0.0326,-0.134894 0.0202,-0.04218 0.0496,-0.08371 0.0881,-0.124464 0,0 0,0 0,0 0.0769,-0.08132 0.1892,-0.158721 0.33502,-0.230982 l 0,0 0,0 c 0.2922,-0.143679 0.71516,-0.263632 1.24968,-0.343597 0,0 0,0 0,0 l 0,0 c 1.05575,-0.158145 2.53075,-0.1559 4.22936,0.162431 0.94931,0.172801 1.95813,0.448178 2.98074,0.851617 2.42012,0.954791 4.21328,2.346648 5.31483,3.659762 1.08478,1.293126 1.36672,2.330268 1.04812,2.599853 -0.66217,0.560297 -3.43815,-1.718257 -7.51972,-3.322154 -0.88219,-0.346667 -1.7419,-0.650581 -2.54984,-0.922695 -1.45555,-0.479802 -2.73888,-0.853362 -3.67164,-1.192391 l 0,0 c 0,0 0,0 0,0 -0.47009,-0.17072 -0.85341,-0.335798 -1.11589,-0.496661 l 0,0 0,0 c -0.13408,-0.08157 -0.23868,-0.163646 -0.30984,-0.245985 0,0 0,0 0,0 -0.0358,-0.04145 -0.0634,-0.08321 -0.0822,-0.125279 -0.0199,-0.0448 -0.0298,-0.08877 -0.0294,-0.134561 z"
       style="fill:#000000;stroke:none;stroke-width:1px;stroke-linecap:butt;stroke-linejoin:miter;stroke-opacity:1" />
    <path
       inkscape:original-d="m 135.61298,41.668793 c 0,0 5.93465,2.777919 7.82868,15.657364"
       inkscape:path-effect="#path-effect2195"
       id="path2193"
       d="m 135.6131,41.668847 c 0.38503,-0.410643 2.01848,0.45351 4.20053,2.139177 0.97377,1.093663 1.8866,2.478627 2.62653,4.127998 2.25665,5.030297 1.68806,9.289174 1.0015,9.390139 -0.84147,0.123746 -1.86041,-3.810813 -3.68414,-8.020437 -0.62855,-1.450838 -1.24796,-2.634067 -1.91074,-3.743111 -1.66938,-1.922245 -2.61706,-3.484889 -2.23368,-3.893766 z"
       style="fill:#000000;stroke:none;stroke-width:1px;stroke-linecap:butt;stroke-linejoin:miter;stroke-opacity:1" />
    <path
       inkscape:original-d="m 108.48214,53.482143 c 0,0 15.35715,-10.357143 24.55357,1.696429"
       inkscape:path-effect="#path-effect2203"
       id="path2201"
       d="m 108.48218,53.482118 c -0.26511,-0.637856 3.25365,-2.72642 8.40491,-5.070187 0,0 0,-1e-6 0,-1e-6 1.32737,-0.340272 2.7944,-0.565046 4.33895,-0.582452 1.57623,-0.01776 3.0817,0.182319 4.47797,0.580473 0,0 1e-5,0 1e-5,0 6.47756,1.983 7.4689,6.663943 7.33169,6.768626 -0.27417,0.209187 -1.0979,-0.426766 -2.44325,-1.332262 -1.31984,-0.888326 -3.26904,-2.08505 -5.64276,-2.59554 0,0 0,0 0,0 -1.10425,-0.265785 -2.28776,-0.394768 -3.56442,-0.38746 -1.24608,0.0071 -2.47571,0.143727 -3.62488,0.339449 0,0 0,0 0,0 -5.08423,1.9118 -9.01363,2.915976 -9.27822,2.279354 z"
       style="fill:#000000;stroke:none;stroke-width:1px;stroke-linecap:butt;stroke-linejoin:miter;stroke-opacity:1" />
    <path
       inkscape:original-d="m 93.392857,64.285714 c 0,0 1.785715,-8.839285 17.321433,-11.607142"
       inkscape:path-effect="#path-effect2207"
       id="path2205"
       d="m 93.392875,64.285623 c -0.452832,-0.269828 0.313792,-2.442225 1.872441,-5.514697 1.101314,-1.323644 2.545155,-2.585077 4.335835,-3.658785 5.791959,-3.472914 11.022609,-2.94172 11.113149,-2.43357 0.0684,0.384008 -1.07956,0.918249 -2.88867,1.642731 -1.76078,0.705131 -4.32429,1.67358 -6.68339,3.039763 -1.568254,0.908197 -2.830399,1.860048 -3.925639,2.879803 -1.845152,2.64177 -3.372489,4.313632 -3.823726,4.044755 z"
       style="fill:#000000;stroke:none;stroke-width:1px;stroke-linecap:butt;stroke-linejoin:miter;stroke-opacity:1" />
    <path
       inkscape:original-d="m 116.67262,110.6117 c 0,0 33.0825,26.01143 33.0825,55.30586 0,29.29442 12.87944,28.78934 12.87944,28.78934"
       inkscape:path-effect="#path-effect2211"
       id="path2209"
       d="m 116.67264,110.61171 c 0.1897,-0.18824 6.96789,6.31002 17.02266,16.2557 3.96978,4.78552 8.25038,10.76538 11.56837,17.73917 0.81468,1.71219 1.57117,3.49601 2.24104,5.33976 1.96815,5.41713 2.98229,10.78182 2.96149,15.97122 -0.0275,6.51595 0.46343,11.81411 1.8381,16.68083 1.05318,3.70463 2.40566,6.38724 4.16984,8.42045 1.49898,1.73887 3.00322,2.62627 4.18827,3.0988 1.26544,0.30848 1.96647,0.51267 1.97222,0.58751 0,0 0,0 0,0 0,0 0,0 0,0 0,0 0,0 0,0 0,0 0,0 0,0 0,0 0,0 0,0 0,0 0,0 0,0 0,0 0,0 0,0 0,0 0,0 0,0 0,0 0,0 0,0 0,0 0,0 0,0 -5e-5,0.002 -7e-5,0.002 -7e-5,0.002 0,-4e-5 3e-5,-7e-5 -2e-4,0.002 0,0 0,0 0,0 0,0 0,0 0,0 0,0 0,0 0,0 0,0 0,0 0,0 0,0 0,0 0,0 0,0 0,0 0,0 0,0 0,1e-5 0,1e-5 0,0 0,0 0,0 0,0 0,0 0,0 0,0 0,0 0,0 -0.0166,0.0707 -0.72996,0.007 -2.08065,-0.17972 -1.27471,-0.36889 -2.97718,-1.2119 -4.66318,-2.98001 -1.94387,-2.04976 -3.50594,-4.84634 -4.66914,-8.63001 -1.53358,-4.95932 -2.14993,-10.42158 -2.17735,-17.00136 -0.0208,-5.00113 -1.03462,-10.18077 -2.95309,-15.45739 -0.65283,-1.79556 -1.38727,-3.53846 -2.17529,-5.2163 -3.19928,-6.81154 -7.34016,-12.73366 -11.16356,-17.52868 -9.8276,-10.09099 -16.26913,-16.91528 -16.07946,-17.10348 z"
       style="opacity:1;fill:#000000;stroke:none;stroke-width:1px;stroke-linecap:butt;stroke-linejoin:miter;stroke-opacity:1" />
  </g>
</svg>
