<?xml version="1.0" encoding="UTF-8" standalone="no"?>
<svg
   xmlns:dc="http://purl.org/dc/elements/1.1/"
   xmlns:cc="http://creativecommons.org/ns#"
   xmlns:rdf="http://www.w3.org/1999/02/22-rdf-syntax-ns#"
   xmlns:svg="http://www.w3.org/2000/svg"
   xmlns="http://www.w3.org/2000/svg"
   xmlns:sodipodi="http://sodipodi.sourceforge.net/DTD/sodipodi-0.dtd"
   xmlns:inkscape="http://www.inkscape.org/namespaces/inkscape"
   id="SVGRoot"
   version="1.1"
   viewBox="0 0 256.0 256.0"
   height="256.0px"
   width="256.0px"
   inkscape:version="1.0 (4035a4fb49, 2020-05-01)"
   sodipodi:docname="hera.svg">
  <defs
     id="defs1494">
    <inkscape:path-effect
       effect="skeletal"
       id="path-effect2211"
       is_visible="true"
       lpeversion="1"
       pattern="m -40.409565,-39.586477 c 0,-3.815127 3.096336,-6.911462 6.911463,-6.911462 3.815128,0 6.911463,3.096335 6.911463,6.911462 0,3.815128 -3.096335,6.911463 -6.911463,6.911463 -3.815127,0 -6.911463,-3.096335 -6.911463,-6.911463 z"
       copytype="single_stretched"
       prop_scale="0.150066"
       scale_y_rel="false"
       spacing="0"
       normal_offset="0"
       tang_offset="0"
       prop_units="false"
       vertical_pattern="false"
       hide_knot="false"
       fuse_tolerance="0" />
    <inkscape:path-effect
       effect="skeletal"
       id="path-effect2207"
       is_visible="true"
       lpeversion="1"
       pattern="m -40.409565,-39.586477 c 0,-3.815127 3.096336,-6.911462 6.911463,-6.911462 3.815128,0 6.911463,3.096335 6.911463,6.911462 0,3.815128 -3.096335,6.911463 -6.911463,6.911463 -3.815127,0 -6.911463,-3.096335 -6.911463,-6.911463 z"
       copytype="single_stretched"
       prop_scale="0.28264852"
       scale_y_rel="false"
       spacing="0"
       normal_offset="0"
       tang_offset="0"
       prop_units="false"
       vertical_pattern="false"
       hide_knot="false"
       fuse_tolerance="0" />
    <inkscape:path-effect
       effect="skeletal"
       id="path-effect2203"
       is_visible="true"
       lpeversion="1"
       pattern="m -40.409565,-39.586477 c 0,-3.815127 3.096336,-6.911462 6.911463,-6.911462 3.815128,0 6.911463,3.096335 6.911463,6.911462 0,3.815128 -3.096335,6.911463 -6.911463,6.911463 -3.815127,0 -6.911463,-3.096335 -6.911463,-6.911463 z"
       copytype="single_stretched"
       prop_scale="0.30790234"
       scale_y_rel="false"
       spacing="0"
       normal_offset="0"
       tang_offset="0"
       prop_units="false"
       vertical_pattern="false"
       hide_knot="false"
       fuse_tolerance="0" />
    <inkscape:path-effect
       effect="skeletal"
       id="path-effect2199"
       is_visible="true"
       lpeversion="1"
       pattern="M 0,5 C 0,2.24 2.24,0 5,0 7.76,0 10,2.24 10,5 10,7.76 7.76,10 5,10 2.24,10 0,7.76 0,5 Z"
       copytype="single_stretched"
       prop_scale="0.150066"
       scale_y_rel="false"
       spacing="0"
       normal_offset="0"
       tang_offset="0"
       prop_units="false"
       vertical_pattern="false"
       hide_knot="false"
       fuse_tolerance="0" />
    <inkscape:path-effect
       effect="skeletal"
       id="path-effect2195"
       is_visible="true"
       lpeversion="1"
       pattern="m -40.409565,-39.586477 c 0,-3.815127 3.096336,-6.911462 6.911463,-6.911462 3.815128,0 6.911463,3.096335 6.911463,6.911462 0,3.815128 -3.096335,6.911463 -6.911463,6.911463 -3.815127,0 -6.911463,-3.096335 -6.911463,-6.911463 z"
       copytype="single_stretched"
       prop_scale="0.30816114"
       scale_y_rel="false"
       spacing="0"
       normal_offset="0"
       tang_offset="0"
       prop_units="false"
       vertical_pattern="false"
       hide_knot="false"
       fuse_tolerance="0" />
    <inkscape:path-effect
       effect="skeletal"
       id="path-effect2191"
       is_visible="true"
       lpeversion="1"
       pattern="M 0,5 C 0,2.24 2.24,0 5,0 7.76,0 10,2.24 10,5 10,7.76 7.76,10 5,10 2.24,10 0,7.76 0,5 Z"
       copytype="single_stretched"
       prop_scale="0.150066"
       scale_y_rel="false"
       spacing="0"
       normal_offset="0"
       tang_offset="0"
       prop_units="false"
       vertical_pattern="false"
       hide_knot="false"
       fuse_tolerance="0" />
    <inkscape:path-effect
       effect="skeletal"
       id="path-effect2187"
       is_visible="true"
       lpeversion="1"
       pattern="m -40.409565,-39.586477 c 0,-3.815127 3.096336,-6.911462 6.911463,-6.911462 3.815128,0 6.911463,3.096335 6.911463,6.911462 0,3.815128 -3.096335,6.911463 -6.911463,6.911463 -3.815127,0 -6.911463,-3.096335 -6.911463,-6.911463 z"
       copytype="single_stretched"
       prop_scale="0.31427921"
       scale_y_rel="false"
       spacing="0"
       normal_offset="0"
       tang_offset="0"
       prop_units="false"
       vertical_pattern="false"
       hide_knot="false"
       fuse_tolerance="0" />
    <inkscape:path-effect
       effect="skeletal"
       id="path-effect2183"
       is_visible="true"
       lpeversion="1"
       pattern="M 0,5 C 0,2.24 2.24,0 5,0 7.76,0 10,2.24 10,5 10,7.76 7.76,10 5,10 2.24,10 0,7.76 0,5 Z"
       copytype="single_stretched"
       prop_scale="0.150066"
       scale_y_rel="false"
       spacing="0"
       normal_offset="0"
       tang_offset="0"
       prop_units="false"
       vertical_pattern="false"
       hide_knot="false"
       fuse_tolerance="0" />
    <inkscape:path-effect
       effect="skeletal"
       id="path-effect2179"
       is_visible="true"
       lpeversion="1"
       pattern="m -40.409565,-39.586477 c 0,-3.815127 3.096336,-6.911462 6.911463,-6.911462 3.815128,0 6.911463,3.096335 6.911463,6.911462 0,3.815128 -3.096335,6.911463 -6.911463,6.911463 -3.815127,0 -6.911463,-3.096335 -6.911463,-6.911463 z"
       copytype="single_stretched"
       prop_scale="0.29068112"
       scale_y_rel="false"
       spacing="0"
       normal_offset="0"
       tang_offset="0"
       prop_units="false"
       vertical_pattern="false"
       hide_knot="false"
       fuse_tolerance="0" />
    <inkscape:path-effect
       effect="skeletal"
       id="path-effect2175"
       is_visible="true"
       lpeversion="1"
       pattern="m -40.409565,-39.586477 c 0,-3.815127 3.096336,-6.911462 6.911463,-6.911462 3.815128,0 6.911463,3.096335 6.911463,6.911462 0,3.815128 -3.096335,6.911463 -6.911463,6.911463 -3.815127,0 -6.911463,-3.096335 -6.911463,-6.911463 z"
       copytype="single_stretched"
       prop_scale="0.150066"
       scale_y_rel="false"
       spacing="0"
       normal_offset="0"
       tang_offset="0"
       prop_units="false"
       vertical_pattern="false"
       hide_knot="false"
       fuse_tolerance="0" />
    <inkscape:path-effect
       effect="skeletal"
       id="path-effect2171"
       is_visible="true"
       lpeversion="1"
       pattern="M 0,5 C 0,2.24 2.24,0 5,0 7.76,0 10,2.24 10,5 10,7.76 7.76,10 5,10 2.24,10 0,7.76 0,5 Z"
       copytype="single_stretched"
       prop_scale="0.150066"
       scale_y_rel="false"
       spacing="0"
       normal_offset="0"
       tang_offset="0"
       prop_units="false"
       vertical_pattern="false"
       hide_knot="false"
       fuse_tolerance="0" />
    <inkscape:path-effect
       effect="skeletal"
       id="path-effect2167"
       is_visible="true"
       lpeversion="1"
       pattern="M 0,5 C 0,2.24 2.24,0 5,0 7.76,0 10,2.24 10,5 10,7.76 7.76,10 5,10 2.24,10 0,7.76 0,5 Z"
       copytype="single_stretched"
       prop_scale="0.150066"
       scale_y_rel="false"
       spacing="0"
       normal_offset="0"
       tang_offset="0"
       prop_units="false"
       vertical_pattern="false"
       hide_knot="false"
       fuse_tolerance="0" />
    <inkscape:path-effect
       effect="skeletal"
       id="path-effect2163"
       is_visible="true"
       lpeversion="1"
       pattern="M 0,5 C 0,2.24 2.24,0 5,0 7.76,0 10,2.24 10,5 10,7.76 7.76,10 5,10 2.24,10 0,7.76 0,5 Z"
       copytype="single_stretched"
       prop_scale="0.150066"
       scale_y_rel="false"
       spacing="0"
       normal_offset="0"
       tang_offset="0"
       prop_units="false"
       vertical_pattern="false"
       hide_knot="false"
       fuse_tolerance="0" />
    <inkscape:path-effect
       effect="skeletal"
       id="path-effect2159"
       is_visible="true"
       lpeversion="1"
       pattern="M 0,5 C 0,2.24 2.24,0 5,0 7.76,0 10,2.24 10,5 10,7.76 7.76,10 5,10 2.24,10 0,7.76 0,5 Z"
       copytype="single_stretched"
       prop_scale="0.150066"
       scale_y_rel="false"
       spacing="0"
       normal_offset="0"
       tang_offset="0"
       prop_units="false"
       vertical_pattern="false"
       hide_knot="false"
       fuse_tolerance="0" />
    <inkscape:path-effect
       effect="skeletal"
       id="path-effect2155"
       is_visible="true"
       lpeversion="1"
       pattern="M 0,5 C 0,2.24 2.24,0 5,0 7.76,0 10,2.24 10,5 10,7.76 7.76,10 5,10 2.24,10 0,7.76 0,5 Z"
       copytype="single_stretched"
       prop_scale="0.150066"
       scale_y_rel="false"
       spacing="0"
       normal_offset="0"
       tang_offset="0"
       prop_units="false"
       vertical_pattern="false"
       hide_knot="false"
       fuse_tolerance="0" />
    <inkscape:path-effect
       effect="skeletal"
       id="path-effect2151"
       is_visible="true"
       lpeversion="1"
       pattern="M 0,5 C 0,2.24 2.24,0 5,0 7.76,0 10,2.24 10,5 10,7.76 7.76,10 5,10 2.24,10 0,7.76 0,5 Z"
       copytype="single_stretched"
       prop_scale="0.150066"
       scale_y_rel="false"
       spacing="0"
       normal_offset="0"
       tang_offset="0"
       prop_units="false"
       vertical_pattern="false"
       hide_knot="false"
       fuse_tolerance="0" />
    <inkscape:path-effect
       effect="skeletal"
       id="path-effect2147"
       is_visible="true"
       lpeversion="1"
       pattern="M 0,5 C 0,2.24 2.24,0 5,0 7.76,0 10,2.24 10,5 10,7.76 7.76,10 5,10 2.24,10 0,7.76 0,5 Z"
       copytype="single_stretched"
       prop_scale="0.150066"
       scale_y_rel="false"
       spacing="0"
       normal_offset="0"
       tang_offset="0"
       prop_units="false"
       vertical_pattern="false"
       hide_knot="false"
       fuse_tolerance="0" />
    <inkscape:path-effect
       effect="skeletal"
       id="path-effect2143"
       is_visible="true"
       lpeversion="1"
       pattern="m -40.409565,-39.586477 c 0,-3.815127 3.096336,-6.911462 6.911463,-6.911462 3.815128,0 6.911463,3.096335 6.911463,6.911462 0,3.815128 -3.096335,6.911463 -6.911463,6.911463 -3.815127,0 -6.911463,-3.096335 -6.911463,-6.911463 z"
       copytype="single_stretched"
       prop_scale="0.150066"
       scale_y_rel="false"
       spacing="0"
       normal_offset="0"
       tang_offset="0"
       prop_units="false"
       vertical_pattern="false"
       hide_knot="false"
       fuse_tolerance="0" />
    <inkscape:path-effect
       effect="skeletal"
       id="path-effect2139"
       is_visible="true"
       lpeversion="1"
       pattern="m -40.409565,-39.586477 c 0,-3.815127 3.096336,-6.911462 6.911463,-6.911462 3.815128,0 6.911463,3.096335 6.911463,6.911462 0,3.815128 -3.096335,6.911463 -6.911463,6.911463 -3.815127,0 -6.911463,-3.096335 -6.911463,-6.911463 z"
       copytype="single_stretched"
       prop_scale="0.27031669"
       scale_y_rel="false"
       spacing="0"
       normal_offset="0"
       tang_offset="0"
       prop_units="false"
       vertical_pattern="false"
       hide_knot="false"
       fuse_tolerance="0" />
    <inkscape:path-effect
       effect="skeletal"
       id="path-effect2135"
       is_visible="true"
       lpeversion="1"
       pattern="m -40.409565,-39.586477 c 0,-3.815127 3.096336,-6.911462 6.911463,-6.911462 3.815128,0 6.911463,3.096335 6.911463,6.911462 0,3.815128 -3.096335,6.911463 -6.911463,6.911463 -3.815127,0 -6.911463,-3.096335 -6.911463,-6.911463 z"
       copytype="single_stretched"
       prop_scale="0.150066"
       scale_y_rel="false"
       spacing="0"
       normal_offset="0"
       tang_offset="0"
       prop_units="false"
       vertical_pattern="false"
       hide_knot="false"
       fuse_tolerance="0" />
    <inkscape:path-effect
       effect="skeletal"
       id="path-effect2131"
       is_visible="true"
       lpeversion="1"
       pattern="m -40.409565,-39.586477 c 0,-3.815127 3.096336,-6.911462 6.911463,-6.911462 3.815128,0 6.911463,3.096335 6.911463,6.911462 0,3.815128 -3.096335,6.911463 -6.911463,6.911463 -3.815127,0 -6.911463,-3.096335 -6.911463,-6.911463 z"
       copytype="single_stretched"
       prop_scale="0.150066"
       scale_y_rel="false"
       spacing="0"
       normal_offset="0"
       tang_offset="0"
       prop_units="false"
       vertical_pattern="false"
       hide_knot="false"
       fuse_tolerance="0" />
    <inkscape:path-effect
       effect="skeletal"
       id="path-effect2127"
       is_visible="true"
       lpeversion="1"
       pattern="m -40.409565,-39.586477 c 0,-3.815127 3.096336,-6.911462 6.911463,-6.911462 3.815128,0 6.911463,3.096335 6.911463,6.911462 0,3.815128 -3.096335,6.911463 -6.911463,6.911463 -3.815127,0 -6.911463,-3.096335 -6.911463,-6.911463 z"
       copytype="single_stretched"
       prop_scale="0.150066"
       scale_y_rel="false"
       spacing="0"
       normal_offset="0"
       tang_offset="0"
       prop_units="false"
       vertical_pattern="false"
       hide_knot="false"
       fuse_tolerance="0" />
    <inkscape:path-effect
       effect="skeletal"
       id="path-effect2123"
       is_visible="true"
       lpeversion="1"
       pattern="m -40.409565,-39.586477 c 0,-3.815127 3.096336,-6.911462 6.911463,-6.911462 3.815128,0 6.911463,3.096335 6.911463,6.911462 0,3.815128 -3.096335,6.911463 -6.911463,6.911463 -3.815127,0 -6.911463,-3.096335 -6.911463,-6.911463 z"
       copytype="single_stretched"
       prop_scale="0.150066"
       scale_y_rel="false"
       spacing="0"
       normal_offset="0"
       tang_offset="0"
       prop_units="false"
       vertical_pattern="false"
       hide_knot="false"
       fuse_tolerance="0" />
    <inkscape:path-effect
       effect="skeletal"
       id="path-effect2119"
       is_visible="true"
       lpeversion="1"
       pattern="m -40.409565,-39.586477 c 0,-3.815127 3.096336,-6.911462 6.911463,-6.911462 3.815128,0 6.911463,3.096335 6.911463,6.911462 0,3.815128 -3.096335,6.911463 -6.911463,6.911463 -3.815127,0 -6.911463,-3.096335 -6.911463,-6.911463 z"
       copytype="single_stretched"
       prop_scale="0.150066"
       scale_y_rel="false"
       spacing="0"
       normal_offset="0"
       tang_offset="0"
       prop_units="false"
       vertical_pattern="false"
       hide_knot="false"
       fuse_tolerance="0" />
    <inkscape:path-effect
       effect="skeletal"
       id="path-effect2115"
       is_visible="true"
       lpeversion="1"
       pattern="m -40.409565,-39.586477 c 0,-3.815127 3.096336,-6.911462 6.911463,-6.911462 3.815128,0 6.911463,3.096335 6.911463,6.911462 0,3.815128 -3.096335,6.911463 -6.911463,6.911463 -3.815127,0 -6.911463,-3.096335 -6.911463,-6.911463 z"
       copytype="single_stretched"
       prop_scale="0.150066"
       scale_y_rel="false"
       spacing="0"
       normal_offset="0"
       tang_offset="0"
       prop_units="false"
       vertical_pattern="false"
       hide_knot="false"
       fuse_tolerance="0" />
    <inkscape:path-effect
       effect="skeletal"
       id="path-effect2111"
       is_visible="true"
       lpeversion="1"
       pattern="m -40.409565,-39.586477 c 0,-3.815127 3.096336,-6.911462 6.911463,-6.911462 3.815128,0 6.911463,3.096335 6.911463,6.911462 0,3.815128 -3.096335,6.911463 -6.911463,6.911463 -3.815127,0 -6.911463,-3.096335 -6.911463,-6.911463 z"
       copytype="single_stretched"
       prop_scale="0.150066"
       scale_y_rel="false"
       spacing="0"
       normal_offset="0"
       tang_offset="0"
       prop_units="false"
       vertical_pattern="false"
       hide_knot="false"
       fuse_tolerance="0" />
    <inkscape:path-effect
       effect="skeletal"
       id="path-effect2107"
       is_visible="true"
       lpeversion="1"
       pattern="m -40.409565,-39.586477 c 0,-3.815127 3.096336,-6.911462 6.911463,-6.911462 3.815128,0 6.911463,3.096335 6.911463,6.911462 0,3.815128 -3.096335,6.911463 -6.911463,6.911463 -3.815127,0 -6.911463,-3.096335 -6.911463,-6.911463 z"
       copytype="single_stretched"
       prop_scale="0.150066"
       scale_y_rel="false"
       spacing="0"
       normal_offset="0"
       tang_offset="0"
       prop_units="false"
       vertical_pattern="false"
       hide_knot="false"
       fuse_tolerance="0" />
    <inkscape:path-effect
       effect="skeletal"
       id="path-effect2103"
       is_visible="true"
       lpeversion="1"
       pattern="m -40.409565,-39.586477 c 0,-3.815127 3.096336,-6.911462 6.911463,-6.911462 3.815128,0 6.911463,3.096335 6.911463,6.911462 0,3.815128 -3.096335,6.911463 -6.911463,6.911463 -3.815127,0 -6.911463,-3.096335 -6.911463,-6.911463 z"
       copytype="single_stretched"
       prop_scale="0.15006642"
       scale_y_rel="false"
       spacing="0"
       normal_offset="0"
       tang_offset="0"
       prop_units="false"
       vertical_pattern="false"
       hide_knot="false"
       fuse_tolerance="0" />
    <inkscape:path-effect
       effect="skeletal"
       id="path-effect2099"
       is_visible="true"
       lpeversion="1"
       pattern="m -40.409565,-39.586477 c 0,-3.815127 3.096336,-6.911462 6.911463,-6.911462 3.815128,0 6.911463,3.096335 6.911463,6.911462 0,3.815128 -3.096335,6.911463 -6.911463,6.911463 -3.815127,0 -6.911463,-3.096335 -6.911463,-6.911463 z"
       copytype="single_stretched"
       prop_scale="0.4"
       scale_y_rel="false"
       spacing="0"
       normal_offset="0"
       tang_offset="0"
       prop_units="false"
       vertical_pattern="false"
       hide_knot="false"
       fuse_tolerance="0" />
    <inkscape:path-effect
       effect="skeletal"
       id="path-effect2095"
       is_visible="true"
       lpeversion="1"
       pattern="m -40.409565,-39.586477 c 0,-3.815127 3.096336,-6.911462 6.911463,-6.911462 3.815128,0 6.911463,3.096335 6.911463,6.911462 0,3.815128 -3.096335,6.911463 -6.911463,6.911463 -3.815127,0 -6.911463,-3.096335 -6.911463,-6.911463 z"
       copytype="single_stretched"
       prop_scale="0.4"
       scale_y_rel="false"
       spacing="0"
       normal_offset="0"
       tang_offset="0"
       prop_units="false"
       vertical_pattern="false"
       hide_knot="false"
       fuse_tolerance="0" />
    <inkscape:path-effect
       effect="skeletal"
       id="path-effect2091"
       is_visible="true"
       lpeversion="1"
       pattern="m -40.409565,-39.586477 c 0,-3.815127 3.096336,-6.911462 6.911463,-6.911462 3.815128,0 6.911463,3.096335 6.911463,6.911462 0,3.815128 -3.096335,6.911463 -6.911463,6.911463 -3.815127,0 -6.911463,-3.096335 -6.911463,-6.911463 z"
       copytype="single_stretched"
       prop_scale="0.4"
       scale_y_rel="false"
       spacing="0"
       normal_offset="0"
       tang_offset="0"
       prop_units="false"
       vertical_pattern="false"
       hide_knot="false"
       fuse_tolerance="0" />
    <inkscape:path-effect
       effect="skeletal"
       id="path-effect2087"
       is_visible="true"
       lpeversion="1"
       pattern="m -40.409565,-39.586477 c 0,-3.815127 3.096336,-6.911462 6.911463,-6.911462 3.815128,0 6.911463,3.096335 6.911463,6.911462 0,3.815128 -3.096335,6.911463 -6.911463,6.911463 -3.815127,0 -6.911463,-3.096335 -6.911463,-6.911463 z"
       copytype="single_stretched"
       prop_scale="0.63245553"
       scale_y_rel="false"
       spacing="0"
       normal_offset="0"
       tang_offset="0"
       prop_units="false"
       vertical_pattern="false"
       hide_knot="false"
       fuse_tolerance="0" />
  </defs>
  <sodipodi:namedview
     id="base"
     pagecolor="#ffffff"
     bordercolor="#666666"
     borderopacity="1.0"
     inkscape:pageopacity="0.0"
     inkscape:pageshadow="2"
     inkscape:zoom="1.979899"
     inkscape:cx="165.88963"
     inkscape:cy="183.07999"
     inkscape:document-units="px"
     inkscape:current-layer="layer1"
     inkscape:document-rotation="0"
     showgrid="true"
     inkscape:window-width="1920"
     inkscape:window-height="1017"
     inkscape:window-x="-8"
     inkscape:window-y="-8"
     inkscape:window-maximized="1"
     inkscape:snap-global="false">
    <inkscape:grid
       id="grid2064"
       type="xygrid" />
  </sodipodi:namedview>
  <metadata
     id="metadata1497">
    <rdf:RDF>
      <cc:Work
         rdf:about="">
        <dc:format>image/svg+xml</dc:format>
        <dc:type
           rdf:resource="http://purl.org/dc/dcmitype/StillImage" />
        <dc:title />
      </cc:Work>
    </rdf:RDF>
  </metadata>
  <g
     inkscape:label="Layer 1"
     inkscape:groupmode="layer"
     id="layer1">
    <path
       style="fill:#000000;stroke:none;stroke-width:1.38229px;stroke-linecap:butt;stroke-linejoin:miter;stroke-opacity:1"
       d="m 77.085318,105.55424 c 0.01281,-1.15933 5.216074,-2.15684 13.661025,-2.84576 0,0 3e-6,0 3e-6,0 7.412666,-0.79121 18.493094,-1.74106 29.668004,-3.356865 0,0 1e-5,0 1e-5,0 1.9722,-0.29218 3.99602,-0.599581 6.01398,-0.930406 9.41527,-1.543539 16.84045,-3.322753 23.68785,-6.171734 0,0 1e-5,-2e-6 1e-5,-2e-6 4.41789,-1.862471 7.5603,-3.642523 10.09751,-5.894069 4.67282,-4.083333 5.66613,-8.538711 6.72061,-8.447018 0.40507,0.03522 2.83144,4.994769 -2.58522,12.181444 -2.54784,3.36845 -6.20733,6.40677 -10.99727,8.93725 0,0 0,2e-6 0,2e-6 -7.27691,3.887888 -15.70227,6.454758 -25.51028,8.049858 -2.13216,0.34675 -4.23535,0.63319 -6.28434,0.87526 0,0 -1e-5,0 -1e-5,0 -12.03628,1.46513 -22.967912,1.36451 -30.804399,0.74981 0,0 -3e-6,0 -3e-6,0 -8.496195,-0.87655 -13.680297,-1.98803 -13.66748,-3.14777 z"
       id="path2085"
       inkscape:path-effect="#path-effect2087"
       inkscape:original-d="m 77.085308,105.55424 c 0,0 87.084432,4.14689 89.849012,-27.645841"
       sodipodi:nodetypes="cc" />
    <path
       style="fill:#000000;stroke:none;stroke-width:1.38229px;stroke-linecap:butt;stroke-linejoin:miter;stroke-opacity:1"
       d="m 95.055127,84.819888 c 0.942194,-0.852696 5.875283,3.006757 11.696453,8.974621 0,10e-7 0,10e-7 0,10e-7 1.23939,0.93133 2.57009,1.873364 3.95891,2.732751 1.90302,1.177559 3.71761,2.078054 5.5319,2.731996 0,0 0,0 0,0 3.1474,1.185243 6.03245,1.450753 8.20528,1.541893 2.15124,0.0902 3.56948,0.0524 3.78247,0.60621 0.19753,0.51357 -0.83964,1.65569 -3.24873,2.5282 -2.38357,0.86327 -6.06325,1.37793 -10.27862,0.27227 0,0 -10e-6,0 -10e-6,0 -2.37773,-0.65055 -4.75824,-1.69877 -7.07079,-3.13728 -1.69899,-1.05684 -3.21947,-2.235968 -4.55405,-3.436322 0,0 0,-10e-7 0,-10e-7 -5.556789,-6.605916 -8.966926,-11.959906 -8.022813,-12.814339 z"
       id="path2089"
       inkscape:path-effect="#path-effect2091"
       inkscape:original-d="m 95.055111,84.819863 c 0,0 15.205219,23.498967 33.175019,16.587507"
       sodipodi:nodetypes="cc" />
    <path
       style="fill:#000000;stroke:none;stroke-width:1.38229px;stroke-linecap:butt;stroke-linejoin:miter;stroke-opacity:1"
       d="m 93.672804,80.672999 c 0.01137,0.0097 0.01686,0.02586 0.01685,0.04869 -3.3e-5,0.02199 -0.0053,0.0501 -0.01572,0.08427 0,0 -10e-7,0 -10e-7,0 -0.02063,0.06775 -0.06164,0.159918 -0.121914,0.275811 0,0 -1e-6,10e-7 -1e-6,10e-7 l 0,0 c -0.117919,0.226854 -0.314086,0.552532 -0.575894,0.96727 l 0,0 c -0.511105,0.809661 -1.281031,1.97383 -2.25367,3.502447 l 0,0 c -1.800796,2.830331 -4.391601,7.041672 -7.093011,12.499971 l -10e-7,3e-6 C 79.169487,107.07956 73.259374,121.88415 73.5579,138.72322 l 0,0 c 0.102392,5.73267 0.490652,12.02491 2.126895,17.95195 l 0,0 c 0.881805,3.215 2.219236,6.39278 4.089546,9.28638 l 0,0 c 1.270795,1.97153 2.953903,3.9957 4.383528,6.53319 l 0,0 c 1.523002,2.78036 2.272784,5.92218 2.285031,9.0856 l 0,0 c 0.0086,1.9085 0.288191,3.8809 0.655106,5.94483 l 0,0 3e-6,2e-5 0,0 c 0.48113,2.66533 1.146322,5.33751 1.935617,8.04342 l 0,0 c 1.900116,6.50658 4.473325,12.99777 7.698845,19.3848 l 0,0 c 3.412699,6.74363 7.555209,13.3656 12.658779,19.28188 l 0,0 c 4.84779,5.60201 10.60971,10.67141 17.30874,13.99078 l 0,0 c 2.91589,1.4679 6.27483,2.17999 9.66284,2.17464 0.0441,2e-5 0.0882,-8e-5 0.13228,-3e-4 3.5262,-0.0179 7.09044,-0.81156 10.52734,-1.98889 7.94842,-2.72497 15.14479,-7.55193 21.65437,-12.78415 6.34111,-5.12676 12.02092,-10.73996 16.95219,-16.72712 1.81667,-2.21214 3.49805,-4.39675 4.89911,-6.6859 0.47748,-0.78622 0.90239,-1.52178 1.20752,-2.2396 0,0 0,-2e-5 0,-2e-5 0.17444,-0.54836 0.34263,-0.79501 0.27697,-0.74854 0.0137,-1.16637 -0.13336,-2.44033 -0.27176,-3.7936 -0.22694,-2.14437 -0.51607,-4.29007 -0.82491,-6.41274 -0.84858,-5.82765 -1.86022,-11.48554 -2.98298,-16.94074 -1.23405,-5.98354 -2.52669,-11.5254 -4.2121,-16.87274 -0.70251,-2.22205 -1.42971,-4.31566 -2.32924,-6.28125 -0.69406,-1.44101 -1.27663,-2.69953 -2.11439,-3.51061 -1.52257,-1.71097 -2.07927,-3.65299 -2.2444,-5.24377 -0.37868,-2.46649 -0.3612,-4.87363 -0.2783,-7.07605 0.21121,-6.09483 1.08282,-13.7043 1.48174,-18.63749 0.67855,-8.47758 0.86691,-14.78121 0.36993,-20.93382 0,0 0,0 0,0 -0.53739,-6.458367 -1.65892,-10.722586 -2.88156,-13.99414 -1.14538,-3.0648 -2.05544,-4.591661 -1.87885,-4.709382 0.17658,-0.117722 1.44277,1.194146 3.00154,4.210114 1.62896,3.151759 3.23173,7.670663 4.11713,14.235468 0,0 0,1e-5 0,1e-5 0.85839,6.25367 0.97143,12.86417 0.58591,21.39889 -0.25563,5.74778 -0.85138,11.94752 -0.89408,18.51163 -0.008,2.13818 0.0188,4.30737 0.39665,6.3149 0.32744,1.32192 0.55975,2.52638 1.18433,2.9636 1.42837,1.45496 2.33611,3.10567 3.04222,4.64277 1.05318,2.18784 1.89528,4.43782 2.66537,6.73174 1.86069,5.52749 3.30081,11.2126 4.64322,17.2526 1.22966,5.52279 2.34092,11.26132 3.28052,17.1846 0.34224,2.15578 0.66639,4.36277 0.92996,6.60025 0.16239,1.33383 0.33543,2.79249 0.34919,4.35976 -0.0657,1.264 -0.36389,2.18702 -0.66795,2.76453 0,0 -1e-5,2e-5 -1e-5,2e-5 -0.45351,1.06746 -0.98294,2.02937 -1.51926,2.91362 -1.57077,2.60761 -3.37212,5.00975 -5.2521,7.32602 -5.11348,6.31765 -11.01106,12.23115 -17.60512,17.61421 -6.73016,5.52508 -14.44995,10.6843 -23.27015,13.78178 -3.84734,1.35193 -7.9967,2.2512 -12.2895,2.30197 -0.0537,6.4e-4 -0.10737,0.001 -0.16108,0.002 -4.19162,0.0217 -8.38128,-0.89084 -12.15149,-2.766 l 0,0 c -7.52417,-3.79224 -13.83196,-9.32728 -18.97642,-15.38291 l 0,0 c -5.42343,-6.36523 -9.759377,-13.37758 -13.259208,-20.45903 l 0,0 c -3.315233,-6.69447 -5.937985,-13.51342 -7.851948,-20.35612 l 0,0 c -0.797028,-2.84621 -1.467876,-5.70194 -1.952082,-8.58728 l 0,0 -2e-6,-2e-5 0,0 c -0.374864,-2.2013 -0.649374,-4.46405 -0.640788,-6.79815 0.01225,-2.43414 -0.489172,-4.80952 -1.5749,-6.79765 l 0,0 c -1.077005,-2.04436 -2.687995,-4.0299 -4.123127,-6.34634 l 0,0 c -2.090481,-3.38293 -3.542011,-7.01041 -4.454139,-10.63732 l 0,0 c -1.63644,-6.55514 -1.911372,-13.17847 -1.844102,-19.06369 l 0,0 c 0.194059,-17.86142 6.85982,-32.83418 11.954686,-41.809128 l 10e-7,-3e-6 c 3.073653,-5.423241 6.01659,-9.481414 8.156397,-12.134217 l 0,0 c 1.156617,-1.433968 2.094941,-2.475718 2.782702,-3.16491 l 0,0 c 0.352437,-0.353169 0.632645,-0.606839 0.839282,-0.766701 l 0,-10e-7 c 0,0 10e-7,0 10e-7,0 0.104228,-0.0806 0.188604,-0.136387 0.252928,-0.167837 0,0 1e-6,0 1e-6,0 0.03233,-0.01581 0.05947,-0.02539 0.08139,-0.02879 0.02273,-0.0035 0.03966,-4.84e-4 0.05104,0.0092 z"
       id="path2093"
       inkscape:path-effect="#path-effect2095"
       inkscape:original-d="m 93.67282,80.67298 c 0,0 -22.215419,25.44898 -22.116683,58.05629 0.09873,32.6073 12.440634,29.02815 12.440634,42.85107 0,13.82293 13.822926,55.29171 41.468779,69.11463 27.64586,13.82293 69.11463,-34.55731 69.11463,-41.46878 0,-6.91146 -6.91146,-48.38023 -13.82293,-55.2917 -6.91146,-6.91146 6.91147,-48.38025 -6.91146,-69.114627" />
    <path
       style="fill:#000000;stroke:none;stroke-width:1.38229px;stroke-linecap:butt;stroke-linejoin:miter;stroke-opacity:1"
       d="m 87.005221,38.154412 c 0.02872,-5.44e-4 0.05671,0.01266 0.08576,0.03945 0.02743,0.02538 0.05514,0.06304 0.08313,0.112703 0,0 10e-7,0 10e-7,0 l 0,0 c 0.05488,0.0972 0.111384,0.241095 0.170112,0.429352 0,0 10e-7,10e-7 10e-7,10e-7 l 0,0 c 0.112777,0.361505 0.23566,0.892224 0.37726,1.574497 l 0,0 c 0.258799,1.2467 0.57642,3.008416 1.070283,5.197366 l 0,0 c 0.677502,2.936935 1.845191,8.25196 4.585851,11.890752 l 0,0 c 0.981737,1.30732 1.940898,2.993799 2.335714,5.070521 l 0,0 c 0.209601,1.352144 0.102776,2.694669 -0.239487,3.940596 l 0,0 c -0.255342,1.000264 -0.564337,1.775263 -0.600137,2.345901 l 0,0 c -0.06995,0.47664 0.08098,1.047003 0.3633,1.548424 1.543106,2.824697 2.671125,5.708287 3.850547,8.800356 l 0,0 c 0.476676,1.242779 0.94593,2.508508 1.40918,3.799607 0.1378,0.384052 0.27545,0.771498 0.41222,1.161758 -0.086,-0.07752 -0.17221,-0.154895 -0.25884,-0.232102 l 0,0 c 0,-2e-6 0,-4e-6 0,-6e-6 -0.0302,-0.03061 -0.0603,-0.06115 -0.0903,-0.09163 -0.0101,-0.01023 -0.0224,-0.02255 -0.0325,-0.03278 -0.008,-0.01929 -0.0166,-0.03854 -0.0249,-0.05799 -0.0232,-0.05429 -0.0462,-0.108598 -0.0689,-0.162877 l 0,0 c 0.10867,0.0889 0.22051,0.178807 0.33538,0.270295 l 0,0 c 0.41957,0.334166 0.85083,0.664615 1.29335,0.994838 l 0,0 c 1.44972,1.081357 2.97086,2.119893 4.5612,3.098874 3.92316,2.359209 8.23667,4.635171 12.6179,5.020577 4.4966,0.453495 9.13793,0.969892 13.52065,0.646 0.47402,-0.04056 0.94792,-0.0899 1.41928,-0.149516 3.36641,-0.425783 6.46673,-1.358652 8.69461,-3.238351 4.11861,-3.329798 7.83029,-6.149506 10.88762,-9.601858 1.65976,-1.876557 3.06087,-3.783307 4.00029,-5.813098 0.94444,-2.039839 1.44589,-4.182116 1.33462,-6.203776 0,-2e-6 0,-4e-6 0,-6e-6 -0.25434,-5.053054 -0.10561,-9.651611 -0.42672,-13.796512 -0.34341,-3.937767 -1.08326,-7.199731 -2.80254,-9.747274 -1.8086,-2.808628 -5.96161,-6.672376 -7.63848,-8.521112 -1.49611,-1.629408 -2.54744,-3.021388 -3.2941,-4.489026 -1.60588,-3.107692 -0.63041,-4.807117 -0.50741,-4.800088 0.30774,0.01759 0.36161,1.685486 2.00708,3.872423 0.8969,1.18099 1.93865,2.171135 3.57299,3.594394 1.8893,1.621845 6.17402,4.839531 8.81196,8.234803 2.35086,3.151561 3.62859,7.072622 4.13547,11.4158 0.55966,4.430926 0.61294,9.145123 1.01325,13.911828 0,0 0,6e-6 0,6e-6 0.21882,2.929747 -0.33849,5.899288 -1.55076,8.632194 -1.17436,2.647931 -2.8048,5.029478 -4.67766,7.190191 -3.44618,3.980089 -7.36886,7.096886 -11.40997,10.383067 -3.36818,2.657663 -7.41261,4.0266 -11.48596,4.496175 -0.57057,0.06578 -1.13842,0.113515 -1.70134,0.144826 -5.06171,0.330624 -10.00509,-0.223664 -14.49314,-0.750342 -5.74124,-0.719203 -10.72194,-3.343853 -14.80123,-6.045398 -1.70595,-1.105542 -3.32684,-2.274365 -4.861482,-3.488546 l 0,0 C 98.51975,88.379098 98.055951,88.001514 97.597969,87.613921 l 0,0 c -0.125337,-0.106073 -0.252121,-0.214537 -0.380094,-0.325897 0.0294,0.037 -0.284535,-0.358404 -0.255135,-0.321402 -0.125077,-0.157888 0.03392,0.0428 -0.09116,-0.115092 -0.05006,-0.08941 -0.0026,-0.0046 -0.05254,-0.09385 -0.04839,-0.0863 -0.09688,-0.172636 -0.145464,-0.259006 0,0 -1.1e-5,-1.8e-5 -1.1e-5,-1.8e-5 -0.195823,-0.36117 -0.272954,-0.503369 -0.468777,-0.864539 -0.120656,-0.381837 -0.242631,-0.762927 -0.36515,-1.142444 -0.412078,-1.27638 -0.827419,-2.526802 -1.247888,-3.755102 l 0,0 C 93.508979,77.59741 92.597772,74.891852 91.340373,72.330224 90.691446,71.040795 90.45826,69.574452 90.678242,68.124259 l 0,0 c 0.23319,-1.222442 0.632077,-2.172167 0.861639,-2.852141 l 0,0 c 0.252503,-0.810882 0.390889,-1.570838 0.30595,-2.239238 l 0,1e-6 c -0.08031,-1.17856 -0.735688,-2.440888 -1.438728,-3.629249 l 0,0 C 87.425883,54.556218 86.812794,48.973967 86.576139,45.843041 l 0,0 c -0.186638,-2.299216 -0.171065,-4.17776 -0.08333,-5.450576 l 0,-1e-6 c 0.04893,-0.710341 0.121813,-1.256514 0.207555,-1.632486 l 0,0 c 0,0 0,-10e-7 0,-10e-7 0.04453,-0.195267 0.09231,-0.343835 0.142462,-0.445199 l 0,0 c 0,0 0,0 0,0 0.02552,-0.05149 0.05155,-0.09064 0.07804,-0.117376 0.02801,-0.02818 0.05561,-0.04244 0.08436,-0.04299 z"
       id="path2097"
       inkscape:path-effect="#path-effect2099"
       inkscape:original-d="m 87.00522,38.154349 c 0,0 0.174541,13.265101 4.887143,20.246733 4.712598,6.981633 -0.872702,8.552499 1.39633,12.916017 2.269023,4.363523 5.410764,13.963271 5.410764,13.963271 0,0 10.646983,9.250663 20.246733,10.297893 9.59974,1.04726 19.19949,1.91995 25.65749,-3.316263 6.45801,-5.236225 17.62862,-13.439643 16.93046,-23.912092 -0.69816,-10.472448 0.17454,-18.326784 -4.18899,-24.435713 -4.36351,-6.108927 -13.26508,-10.646988 -12.91601,-16.755916" />
    <path
       style="fill:#000000;stroke:none;stroke-width:1.38229px;stroke-linecap:butt;stroke-linejoin:miter;stroke-opacity:1"
       d="m 123.74612,89.207529 c -0.0876,-0.507924 3.18387,-1.506074 7.54247,-2.338519 0,0 0,0 0,0 0.48163,-0.113265 0.96614,-0.226072 1.44777,-0.339337 1.729,-0.406608 3.02545,-0.728484 4.41368,-1.117689 2.68478,-0.812131 4.12035,-1.617564 4.39918,-1.353406 0.41839,0.396363 -1.0173,1.929007 -3.80285,3.049427 -1.3347,0.562756 -2.8513,1.044828 -4.56703,1.447814 -0.51016,0.119826 -1.01262,0.226771 -1.50146,0.322574 0,0 0,0 0,0 -4.41643,0.680242 -7.84418,0.837182 -7.93176,0.329136 z"
       id="path2101"
       inkscape:path-effect="#path-effect2103"
       inkscape:original-d="m 123.74606,89.207536 c 0,0 14.66142,-1.832686 17.80316,-5.148954" />
    <path
       style="fill:#000000;stroke:none;stroke-width:1.38229px;stroke-linecap:butt;stroke-linejoin:miter;stroke-opacity:1"
       d="m 121.57781,74.329383 c 0.48948,0.04851 0.78796,1.178347 0.74174,2.616576 0,10e-7 0,10e-7 0,10e-7 0.0652,0.153539 0.10332,0.268723 0.14635,0.386238 0.0509,0.138965 0.0848,0.209741 0.14327,0.202818 0,0 0,0 0,0 0.10556,0.246892 0.62045,0.266673 1.0286,0.336813 0.4331,0.07443 0.75599,0.183664 0.84043,0.406819 0.0836,0.220822 -0.0623,0.54845 -0.5133,0.848138 -0.45102,0.299687 -1.26473,0.571596 -2.36877,0.124091 0,0 0,0 0,0 -0.46444,-0.315822 -0.82123,-0.73735 -1.0397,-1.210861 -0.1683,-0.364779 -0.24057,-0.729633 -0.24217,-1.06178 0,0 0,0 0,0 0.25531,-1.592648 0.7712,-2.697646 1.26355,-2.648853 z"
       id="path2105"
       inkscape:path-effect="#path-effect2107"
       inkscape:original-d="m 121.57785,74.329247 c 0,0 -1.66616,5.677268 2.90034,3.949405" />
    <path
       style="fill:#000000;stroke:none;stroke-width:1.38229px;stroke-linecap:butt;stroke-linejoin:miter;stroke-opacity:1"
       d="m 132.56221,68.405166 c 0.0158,-0.03524 0.0409,-0.06399 0.0765,-0.08939 0,0 0,0 0,0 0.0334,-0.02367 0.0753,-0.04287 0.12537,-0.05755 0,0 0,0 0,0 0.0984,-0.02884 0.22783,-0.04008 0.38471,-0.03327 l 0,0 c 0.30148,0.0137 0.7056,0.09489 1.17968,0.252143 l 0,0 c 0.80334,0.263013 1.9069,0.775787 2.93188,1.666488 0.26045,0.196041 0.52127,0.442429 0.75537,0.741032 0.53497,0.682387 0.85397,1.540035 0.82937,2.473721 -0.11047,0.830318 -0.51188,1.418509 -0.94233,1.789346 -1.27038,1.103348 -2.29132,1.027827 -2.44031,0.724309 -0.149,-0.303517 0.66553,-0.901914 1.20461,-1.826746 0.14814,-0.274917 0.28353,-0.586975 0.23336,-0.796489 0.0445,-0.292417 -0.17605,-0.605244 -0.53544,-1.026374 -0.15675,-0.183683 -0.32912,-0.376595 -0.49479,-0.574276 -0.69686,-0.695546 -1.68409,-1.442289 -2.23605,-1.906181 l 0,0 c -0.35702,-0.298835 -0.64575,-0.560204 -0.83582,-0.780276 l 0,0 c -0.0999,-0.115189 -0.17265,-0.219271 -0.21391,-0.310625 0,0 0,0 0,0 -0.0211,-0.04663 -0.034,-0.09012 -0.0383,-0.130217 0,0 0,0 0,0 -0.004,-0.04296 2.2e-4,-0.08042 0.016,-0.115641 z"
       id="path2109"
       inkscape:path-effect="#path-effect2111"
       inkscape:original-d="m 132.56214,68.405135 c 0,0 9.6884,4.134541 2.90035,7.466854" />
    <path
       style="fill:#000000;stroke:none;stroke-width:1.38229px;stroke-linecap:butt;stroke-linejoin:miter;stroke-opacity:1"
       d="m 125.52726,76.859335 c -0.0284,-0.142054 0.24158,-0.293641 0.35874,-0.381524 0.17575,-0.08232 0.39573,-0.143753 0.65681,-0.201582 0.49084,-0.107952 1.11487,-0.182409 1.77699,-0.293651 0.25871,-0.05003 0.53196,-0.10805 0.80611,-0.174727 0.92859,-0.225841 1.54692,-0.468205 2.12958,-0.749731 0.53676,-0.259341 0.93411,-0.499634 1.18323,-0.358623 0.23826,0.134863 0.28023,0.681999 -0.18468,1.395319 -0.46443,0.712574 -1.37108,1.443465 -2.63471,1.74895 -0.38721,0.09361 -0.76817,0.136819 -1.13019,0.139148 -0.85057,0.01689 -1.57405,-0.144738 -2.07793,-0.347648 -0.26763,-0.106893 -0.47857,-0.229675 -0.62342,-0.347173 -0.15433,-0.075 -0.25118,-0.382044 -0.26053,-0.428758 z"
       id="path2113"
       inkscape:path-effect="#path-effect2115"
       inkscape:original-d="m 125.52726,76.859335 c 0.30855,-0.06173 5.06018,1.110771 6.91146,-2.159835" />
    <path
       style="fill:#000000;stroke:none;stroke-width:1.38229px;stroke-linecap:butt;stroke-linejoin:miter;stroke-opacity:1"
       d="m 103.43533,71.552316 c -0.002,-0.03499 0.008,-0.06912 0.0296,-0.10477 0,0 0,0 0,0 0.0206,-0.0337 0.0519,-0.06776 0.0932,-0.102052 l 0,0 0,0 0,-10e-7 c 0.0817,-0.06798 0.20316,-0.137416 0.35987,-0.207825 l 0,0 c 0.30801,-0.138389 0.7558,-0.282569 1.30835,-0.431882 l 0,0 c 1.0671,-0.288439 2.49585,-0.588413 4.12233,-0.945865 0.39791,-0.08812 0.81967,-0.180992 1.23277,-0.274746 1.27481,-0.28932 2.28737,-0.547718 3.29913,-0.863789 2.11512,-0.733952 3.17232,-1.542399 3.50104,-1.327029 0.40286,0.263937 -0.39603,1.920932 -2.82356,3.018623 -1.0254,0.496848 -2.19739,0.896919 -3.51669,1.196864 -0.44429,0.10101 -0.88117,0.185251 -1.30438,0.255963 -1.71241,0.289133 -3.24547,0.359822 -4.365,0.305974 l 0,0 c -0.58695,-0.02813 -1.06077,-0.09078 -1.39383,-0.178675 l 0,0 c -0.16901,-0.04461 -0.30114,-0.09544 -0.39288,-0.151718 l 0,0 0,0 0,0 c -0.0461,-0.02834 -0.0819,-0.05795 -0.10699,-0.08879 0,0 0,0 0,0 -0.0264,-0.0326 -0.0407,-0.06527 -0.043,-0.100284 z"
       id="path2117"
       inkscape:path-effect="#path-effect2119"
       inkscape:original-d="m 103.43526,71.55232 c 0,0 11.60139,-0.6788 13.94636,-4.257956" />
    <path
       style="fill:#000000;stroke:none;stroke-width:1.38229px;stroke-linecap:butt;stroke-linejoin:miter;stroke-opacity:1"
       d="m 133.79639,61.555367 c -0.005,-0.01782 -0.005,-0.03626 -0.002,-0.05591 0,0 0,0 0,0 0.003,-0.0182 0.01,-0.03719 0.0196,-0.05693 0.0197,-0.03935 0.0527,-0.08179 0.0983,-0.127067 l 0,0 0,-10e-7 0,0 c 0.0904,-0.08986 0.2305,-0.191374 0.41491,-0.302972 l 0,0 c 0.36245,-0.219338 0.89954,-0.480017 1.5676,-0.772143 l 0,0 c 1.28685,-0.562762 3.02069,-1.224859 4.99446,-1.990447 0.97875,-0.380786 0.19033,-0.07395 1.16908,-0.454737 1.67537,-0.654367 2.92902,-1.171852 4.22261,-1.78038 0,0 0,-10e-7 0,-10e-7 0.8967,-0.424037 1.48362,-0.725723 2.08603,-1.091658 0.88388,-0.559699 1.45116,-1.022849 1.59703,-0.958018 0.21558,0.09581 0.14882,0.921251 -0.7808,1.923495 -0.51153,0.56731 -1.17769,1.117244 -2.03576,1.673043 0,0 0,0 0,0 -1.22698,0.797873 -2.66217,1.514535 -4.33407,2.167186 -0.4099,0.160009 -0.8156,0.309058 -1.21269,0.448054 -2.04452,0.718158 -3.92009,1.176619 -5.30886,1.406757 l 0,0 c -0.73161,0.121306 -1.33082,0.179401 -1.76028,0.176119 l 0,0 c -0.21798,-0.0017 -0.39143,-0.0191 -0.5156,-0.05237 l 0,0 0,0 0,0 c -0.0624,-0.01675 -0.11223,-0.03745 -0.14891,-0.06214 -0.0184,-0.01238 -0.0335,-0.02575 -0.0451,-0.04012 0,0 0,-10e-7 0,-10e-7 -0.0125,-0.01554 -0.0211,-0.03193 -0.0257,-0.04975 z"
       id="path2121"
       inkscape:path-effect="#path-effect2123"
       inkscape:original-d="m 133.79634,61.555381 c 0,0 14.44001,-3.702569 16.16787,-7.590267" />
    <path
       style="fill:#000000;stroke:none;stroke-width:1.38229px;stroke-linecap:butt;stroke-linejoin:miter;stroke-opacity:1"
       d="m 131.82167,53.039415 c -0.26452,-0.363354 1.51726,-2.13077 4.27206,-4.310784 0,0 0,0 0,0 0.86024,-0.507645 1.83668,-0.967862 2.91138,-1.329332 2.57201,-0.86508 4.91693,-0.905622 6.64709,-0.587595 1.70197,0.312844 2.5935,0.912852 2.52245,1.167593 -0.0769,0.275737 -1.08689,0.207547 -2.61449,0.272377 -1.60035,0.06792 -3.52247,0.30052 -5.8035,1.062701 -0.94396,0.315417 -1.8232,0.680433 -2.62947,1.063144 0,0 0,10e-7 0,10e-7 -2.83335,1.888751 -5.04146,3.024594 -5.30552,2.661895 z"
       id="path2125"
       inkscape:path-effect="#path-effect2127"
       inkscape:original-d="m 131.82162,53.039472 c 0,0 7.28172,-7.590269 16.35302,-5.060178" />
    <path
       style="fill:#000000;stroke:none;stroke-width:1.38229px;stroke-linecap:butt;stroke-linejoin:miter;stroke-opacity:1"
       d="m 103.55876,64.023683 c -0.0245,-0.02146 -0.0421,-0.04882 -0.0544,-0.08333 0,0 0,0 0,0 -0.0113,-0.03209 -0.0173,-0.06968 -0.0178,-0.112582 0,0 0,-10e-7 0,-10e-7 -0.001,-0.08523 0.0193,-0.190533 0.0608,-0.313714 l 0,0 0,-1e-6 c 0.0829,-0.243568 0.24882,-0.554444 0.49928,-0.908963 l 0,0 c 0.47754,-0.676819 1.27039,-1.520491 2.37599,-2.278198 0.52944,-0.365072 1.13299,-0.706201 1.80256,-0.983825 0.70627,-0.292843 1.41642,-0.486113 2.11086,-0.584729 0,0 0,0 0,0 3.04562,-0.421508 4.57493,1.07631 4.45374,1.377722 -0.17126,0.425954 -1.95059,0.01794 -4.09022,0.558927 0,0 0,0 0,0 -0.54112,0.133384 -1.09446,0.319012 -1.67606,0.563064 -0.54794,0.229927 -1.07381,0.492013 -1.56184,0.754315 -1.01167,0.548337 -1.88911,1.126142 -2.54323,1.517973 l 0,0 c -0.34307,0.205786 -0.63557,0.36678 -0.86095,0.457186 l 0,0 0,0 c -0.11605,0.04695 -0.21629,0.07574 -0.29855,0.08355 0,0 0,0 0,0 -0.0416,0.004 -0.0789,0.0026 -0.11151,-0.0045 0,0 0,0 0,0 -0.0352,-0.0078 -0.0643,-0.02145 -0.0887,-0.0429 z"
       id="path2129"
       inkscape:path-effect="#path-effect2131"
       inkscape:original-d="m 103.55869,64.023761 c 0,0 5.2453,-6.294368 11.23112,-3.887698" />
    <path
       style="fill:#000000;stroke:none;stroke-width:1.38229px;stroke-linecap:butt;stroke-linejoin:miter;stroke-opacity:1"
       d="m 89.303755,41.376234 c -0.56802,-0.01235 -0.973723,-2.56576 -0.905587,-5.699575 0.06814,-3.133816 0.584437,-5.667179 1.152457,-5.654829 0.56802,0.01235 0.973723,2.565759 0.905587,5.699575 -0.06814,3.133815 -0.584437,5.667179 -1.152457,5.654829 z"
       id="path2133"
       inkscape:path-effect="#path-effect2135"
       inkscape:original-d="m 89.303787,41.376377 c 0,0 -1.234189,-5.553854 0.246838,-11.354546" />
    <path
       style="fill:#000000;stroke:none;stroke-width:1.38229px;stroke-linecap:butt;stroke-linejoin:miter;stroke-opacity:1"
       d="m 92.265825,34.711653 c -0.0466,0.0055 -0.09266,0.0018 -0.140672,-0.01077 0,0 0,0 0,0 -0.0446,-0.01183 -0.08967,-0.03153 -0.13513,-0.05902 -0.09025,-0.05458 -0.181389,-0.139416 -0.272592,-0.253133 0,0 0,0 0,0 l 0,0 c -0.17939,-0.224975 -0.356633,-0.56159 -0.519956,-0.997974 0,0 0,0 0,0 l 0,0 c -0.31107,-0.830573 -0.571631,-2.028992 -0.653994,-3.484506 l 0,0 c -0.116957,-1.60269 -0.01352,-3.65085 0.71522,-5.739746 0.432883,-1.24083 1.041104,-2.362396 1.801985,-3.331427 1.416046,-1.821467 2.087742,-2.13675 2.195447,-3.316266 -0.10322,-0.70263 -0.148154,-1.415445 0.08156,-1.675945 0,0 0,0 0,0 0,0 0,0 0,0 0,0 0,0 0,0 0,0 0,0 0,0 0,0 0,0 0,0 0,0 1e-6,0 1e-6,0 0,0 0,0 0,0 0.01374,-0.01433 0.01372,-0.01431 0.01362,-0.01421 -9.8e-5,1.01e-4 -2.94e-4,1.2e-5 0.01413,-0.01391 0,0 0,0 0,0 0,0 0,0 0,0 0,0 0,0 0,0 0,0 0,0 0,0 0,0 0,-1e-6 0,-1e-6 0,0 0,0 0,0 0,0 10e-7,0 10e-7,0 0.259365,-0.233906 0.798671,0.04097 1.723287,0.979423 0.623741,1.613527 0.289575,4.005285 -1.174641,6.123126 -0.459695,0.703831 -0.823824,1.502725 -1.129906,2.443462 -0.485648,1.492633 -0.807473,3.350781 -1.071999,4.714134 l 0,0 c -0.228733,1.287188 -0.410907,2.385517 -0.622837,3.200525 l 0,0 c 0,0 0,10e-7 0,10e-7 -0.110091,0.423682 -0.228609,0.767504 -0.359559,1.011037 l 0,0 c 0,0 0,0 0,0 -0.06681,0.125143 -0.137739,0.224701 -0.212796,0.295976 -0.03793,0.03601 -0.07705,0.06496 -0.117409,0.08643 0,0 0,0 0,0 -0.04352,0.02301 -0.08719,0.03729 -0.133763,0.0428 z"
       id="path2137"
       inkscape:path-effect="#path-effect2139"
       inkscape:original-d="m 92.265838,34.711752 c 0,0 -1.11076,-8.269072 2.221552,-12.835573 3.332307,-4.566504 0.863932,-6.047531 0.863932,-6.047531" />
    <path
       style="fill:#000000;stroke:none;stroke-width:1.38229px;stroke-linecap:butt;stroke-linejoin:miter;stroke-opacity:1"
       d="m 98.80699,24.961545 c -0.334815,0.127943 -1.151723,-1.131441 -2.13668,-3.195247 -0.421407,-1.392978 -0.584512,-3.175864 -0.129357,-5.05764 0.274816,-1.136191 0.73906,-2.150636 1.326973,-3.008822 0.765678,-1.086589 1.461045,-1.914512 2.252894,-2.555635 l 0,0 c 0.36762,-0.385555 0.93093,-0.672466 1.49099,-0.677009 l 0,0 0,10e-7 0,-10e-7 c 0.51425,0.06128 0.68279,0.385322 0.71497,0.612462 l 0,0 c 0.0144,0.137757 -0.008,0.240561 -0.0376,0.305911 l -1e-5,0 c -0.0674,0.03989 -0.10482,0.06851 -0.12559,0.08852 -0.0208,0.02006 -0.0238,0.03185 -0.0241,0.03455 0,0 0,0 0,0 -6e-5,4.7e-4 -7e-5,3.53e-4 -7e-5,3.53e-4 0,0 1e-5,1.17e-4 -1.1e-4,-3.33e-4 0,0 0,0 0,0 -6.6e-4,-0.0026 -0.005,-0.0136 -0.0296,-0.02847 -0.0243,-0.01471 -0.0683,-0.03427 -0.14664,-0.05639 l 0,0 c -0.046,-0.03525 -0.10578,-0.08599 -0.16174,-0.113362 l 0,0 c -0.0647,-0.01994 -0.19138,-0.02754 -0.10932,0.06931 l 0,0 0,0 0,0 c -0.14383,0.0547 -0.20675,0.343541 -0.5737,0.722795 l 0,0 c -0.58342,0.817333 -0.89649,1.407921 -1.618932,2.646029 -0.414078,0.700464 -0.746816,1.497578 -0.969701,2.394091 -0.36707,1.476466 -0.36341,2.91951 -0.215284,4.133377 0.601294,2.084432 0.826566,3.557924 0.492687,3.685511 z"
       id="path2141"
       inkscape:path-effect="#path-effect2143"
       inkscape:original-d="m 98.807057,24.961653 c 0,0 -3.455735,-5.553854 -0.12345,-10.737452 3.332323,-5.1835971 3.455743,-2.715218 3.455743,-2.715218" />
    <path
       style="fill:#000000;stroke:none;stroke-width:1.38229px;stroke-linecap:butt;stroke-linejoin:miter;stroke-opacity:1"
       d="m 105.6811,30.998128 c -0.0136,-0.0044 -0.0255,-0.01307 -0.0362,-0.02608 -0.01,-0.01219 -0.0186,-0.02812 -0.0259,-0.04774 -0.0146,-0.03907 -0.0241,-0.09264 -0.0285,-0.160274 0,0 0,-1e-6 0,-1e-6 l 0,0 c -0.009,-0.134111 0.003,-0.322519 0.0353,-0.561726 0,0 0,-1e-6 0,-1e-6 l 0,0 c 0.0628,-0.466973 0.20311,-1.122158 0.42648,-1.935623 l 0,0 c 0.41062,-1.495912 1.11775,-3.58805 2.17083,-5.912492 l 0,0 c 0.889,-1.968077 2.07965,-4.24517 3.71317,-6.357086 0.11326,-0.151152 0.23021,-0.302738 0.35099,-0.453982 1.29497,-1.621684 2.84649,-2.967601 4.77113,-3.623358 1.3369,-0.437685 2.41493,-1.073078 3.12551,-1.926476 l 0,0 c 0.66502,-0.7668534 1.0307,-1.7113958 1.21587,-2.5230276 l 0,0 c 0.20842,-0.9215246 0.22078,-1.8035976 0.22305,-2.3792987 l 0,-1e-7 c 9.4e-4,-0.3349261 -0.002,-0.6062982 0.009,-0.79684 l 0,0 0,-2e-7 c 0.006,-0.099125 0.0166,-0.1791736 0.0326,-0.2371755 l 0,0 c 0,0 0,-2e-7 0,-2e-7 0.0396,-0.04079 0.0585,-0.068285 0.0673,-0.085958 0.009,-0.017235 0.007,-0.025135 0.007,-0.026518 0,0 0,0 0,0 0,0 0,0 0,0 0,0 0,-1e-7 0,-1e-7 0,0 0,0 0,0 0,0 0,0 0,0 0,0 0,0 0,0 -3e-5,-1.371e-4 -2e-5,-1.177e-4 -2e-5,-1.177e-4 0,0 0,-2.07e-5 5e-5,1.079e-4 0,0 0,0 0,0 0,0 0,0 0,0 0,0 0,0 0,0 0,0 0,0 0,0 0,0 0,0 0,0 0,0 0,1e-7 0,1e-7 6e-4,0.0013 0.005,0.0083 0.0216,0.017242 0.0175,0.00917 0.0487,0.020513 0.1038,0.030853 0,0 0,10e-8 0,10e-8 l 0,0 c 0.0465,0.041611 0.0989,0.1079575 0.15561,0.1996087 l 0,3e-7 0,0 c 0.10687,0.1715055 0.22818,0.4318164 0.34139,0.7774259 l 0,1e-7 c 0.19721,0.6000701 0.39548,1.5416085 0.32369,2.6764376 l 0,0 c -0.0632,1.0062039 -0.37247,2.2324484 -1.16878,3.3697631 l 0,0 c -0.88097,1.219969 -2.20969,2.184432 -3.82398,2.756311 -1.40345,0.482805 -2.57223,1.632782 -3.78474,3.090289 -0.11284,0.135638 -0.22469,0.272196 -0.33536,0.408587 -1.50124,1.913369 -2.71474,4.056315 -3.70069,5.895168 l 0,0 c -1.13332,2.118916 -2.11438,4.190684 -2.7621,5.501625 l 0,0 c -0.36644,0.741769 -0.67044,1.335283 -0.90571,1.733954 l 0,0 c 0,0 0,0 0,0 -0.12109,0.205187 -0.22534,0.361148 -0.31158,0.462134 l 0,0 c 0,0 0,0 0,0 -0.0437,0.0512 -0.0829,0.08851 -0.11759,0.11123 -0.0174,0.01143 -0.0337,0.01919 -0.0488,0.0232 -0.0162,0.0042 -0.0309,0.0043 -0.0445,-1.56e-4 z"
       id="path2173"
       inkscape:path-effect="#path-effect2175"
       inkscape:original-d="m 105.68108,30.998176 c 0,0 5.06168,-15.883213 11.69424,-18.152243 6.63254,-2.26903 4.36351,-8.9015812 4.36351,-8.9015812" />
    <path
       style="fill:#000000;stroke:none;stroke-width:1.38229px;stroke-linecap:butt;stroke-linejoin:miter;stroke-opacity:1"
       d="m 101.84125,8.4823582 c -0.44091,-0.5397205 0.88822,-2.4156389 3.30532,-4.8540996 1.05052,-0.9063735 2.4404,-1.9062916 4.15796,-2.65196489 0.83761,-0.40578983 1.88299,-0.71418156 3.08211,-0.73360108 0.60337,-0.009771 1.22759,0.0544375 1.86224,0.20611583 2.09654,0.65419394 4.90685,0.86713584 6.62408,1.08979934 l 0,0 c 1.14469,0.1436237 2.09334,0.2851336 2.78602,0.4625931 l 0,0 c 0.36406,0.093257 0.65528,0.1965522 0.86154,0.3119197 l 0,0 0,10e-8 c 0.10461,0.059064 0.18801,0.1217574 0.24822,0.1877926 l 0,0 c 0,0 0,4e-7 0,4e-7 0.04,0.1068664 0.0673,0.1624939 0.085,0.1912989 0.0171,0.027875 0.0252,0.030187 0.0267,0.030332 0,0 0,0 0,0 0,0 0,0 0,0 0,0 0,0 0,0 0,0 0,0 0,0 0,0 0,0 0,0 0,0 0,0 0,0 1.8e-4,1.7e-5 1.3e-4,2.25e-5 1.3e-4,2.19e-5 0,-5e-7 5e-5,-7.2e-6 -1.2e-4,5.28e-5 0,0 0,0 0,0 0,0 0,0 0,0 0,0 0,0 0,0 0,0 0,0 0,0 0,0 0,0 0,0 0,0 0,0 0,0 -0.001,5.11e-4 -0.009,0.00478 -0.0185,0.035989 -0.0102,0.032272 -0.0231,0.092786 -0.0359,0.2059708 0,2e-7 0,3e-7 0,5e-7 l 0,0 c -0.0442,0.078745 -0.11363,0.1587474 -0.20748,0.2398652 l 0,2e-7 0,0 c -0.18218,0.1586374 -0.45518,0.3194288 -0.81098,0.4767749 l 0,0 c -0.67121,0.2968734 -1.6444,0.5826869 -2.85019,0.7935125 l 0,0 c -1.89156,0.344775 -4.75512,0.5999384 -7.78634,-0.1765725 -0.17435,-0.074839 -0.38769,-0.093269 -0.63944,-0.071916 -0.48672,0.041283 -1.13828,0.2384516 -1.79436,0.4176749 -1.23658,0.4099894 -2.50689,1.0816792 -3.5822,1.6513491 -2.77758,1.8069258 -4.87375,2.7257789 -5.31381,2.1870903 z"
       id="path2177"
       inkscape:path-effect="#path-effect2179"
       inkscape:original-d="m 101.84119,8.4824139 c 0,0 7.50525,-7.3307143 11.86878,-6.1089297 4.36351,1.2217866 11.17061,0.349082 11.17061,0.349082" />
    <path
       style="fill:#000000;stroke:none;stroke-width:1.38229px;stroke-linecap:butt;stroke-linejoin:miter;stroke-opacity:1"
       d="m 125.75333,2.1989428 c 0.12713,-0.930625 3.45852,-1.27837436 8.08439,-0.9490077 0,0 1e-5,0 1e-5,0 1.31843,0.2395513 2.72347,0.6219819 4.15007,1.1824452 3.37197,1.3247365 5.87797,3.2528302 7.41756,5.0711695 1.51638,1.790925 1.90826,3.2239042 1.46735,3.5969792 -0.46907,0.396912 -1.674,-0.293475 -3.40297,-1.2582597 -1.91611,-1.0692046 -3.91676,-2.1395364 -6.90219,-3.3184385 -1.2109,-0.4781658 -2.39273,-0.8973504 -3.50697,-1.2732544 0,-1e-7 0,-1e-7 0,-2e-7 -4.34795,-0.8944107 -7.43409,-2.1230906 -7.30725,-3.0516334 z"
       id="path2185"
       inkscape:path-effect="#path-effect2187"
       inkscape:original-d="m 125.75327,2.1989437 c 0,0 13.43964,-0.1745405 21.11944,8.9015823" />
    <path
       style="fill:#000000;stroke:none;stroke-width:1.38229px;stroke-linecap:butt;stroke-linejoin:miter;stroke-opacity:1"
       d="m 147.04734,11.100565 c 0.5317,-0.567346 2.7869,0.624366 5.80043,2.950355 1.34828,1.512637 2.61241,3.429314 3.6368,5.712773 3.11939,6.953342 2.33314,12.840353 1.38421,12.9799 -1.16316,0.171053 -2.5717,-5.267849 -5.09259,-11.086811 -0.87023,-2.008729 -1.72767,-3.646074 -2.64521,-5.180721 -2.30491,-2.653687 -3.61305,-4.81059 -3.08364,-5.375496 z"
       id="path2193"
       inkscape:path-effect="#path-effect2195"
       inkscape:original-d="m 147.04726,11.100526 c 0,0 8.20342,3.839896 10.82152,21.643058" />
    <path
       style="fill:#000000;stroke:none;stroke-width:1.38229px;stroke-linecap:butt;stroke-linejoin:miter;stroke-opacity:1"
       d="m 109.54452,27.430014 c -0.36644,-0.881481 4.49502,-3.767738 11.61274,-7.007152 0,0 0,-10e-7 0,-10e-7 1.83626,-0.471122 3.86602,-0.782414 6.00317,-0.806492 2.17756,-0.02453 4.25745,0.251711 6.18663,0.801479 0,0 0,1e-6 0,1e-6 4.12178,1.261045 6.94047,3.719826 8.49859,5.651943 1.57871,1.957633 2.01811,3.416015 1.63907,3.705209 -0.37905,0.289194 -1.51791,-0.590146 -3.37801,-1.842037 -1.82485,-1.228165 -4.51985,-2.882553 -7.80177,-3.587905 -10e-6,0 -10e-6,0 -10e-6,-10e-7 -1.52572,-0.36701 -3.16086,-0.545102 -4.92462,-0.534997 -1.72418,0.0099 -3.42561,0.199084 -5.01552,0.470087 0,0 0,1e-6 0,1e-6 -7.02542,2.64201 -12.45454,4.02964 -12.82027,3.149865 z"
       id="path2201"
       inkscape:path-effect="#path-effect2203"
       inkscape:original-d="m 109.54449,27.430032 c 0,0 21.22808,-14.316603 33.94022,2.344962" />
    <path
       style="fill:#000000;stroke:none;stroke-width:1.38229px;stroke-linecap:butt;stroke-linejoin:miter;stroke-opacity:1"
       d="m 88.686705,42.363663 c -0.04669,-0.01076 -0.08895,-0.03393 -0.128685,-0.07089 -0.03786,-0.03532 -0.07176,-0.08242 -0.101873,-0.14134 l 0,0 0,0 0,0 c -0.05984,-0.118851 -0.101519,-0.283623 -0.122265,-0.491906 0,0 0,-10e-7 0,-10e-7 l 0,0 c -0.04141,-0.416163 0.0055,-0.995474 0.179591,-1.704458 l 0,0 c 0.360898,-1.466169 1.233458,-3.380883 2.859542,-5.359047 l 0,0 c 1.52233,-1.831132 3.510767,-3.56392 5.974738,-5.029069 3.814607,-2.268278 7.746337,-3.290409 10.573267,-3.653448 2.84019,-0.364742 4.6144,-0.125057 4.70897,0.405754 0.0946,0.530812 -1.49432,1.272331 -4.00941,2.294817 -2.45334,0.99738 -6.0124,2.370221 -9.301396,4.293911 -2.184861,1.277897 -3.939522,2.607946 -5.455166,4.0201 l 0,0 c -1.662534,1.527632 -2.680568,2.776805 -3.547949,3.877388 l 0,0 c -0.383371,0.486184 -0.726236,0.918456 -0.974365,1.178205 l 0,0 c 0,0 0,0 0,0 -0.130146,0.136249 -0.250077,0.240398 -0.355697,0.305041 l 0,0 0,0 0,0 c -0.05367,0.03334 -0.10523,0.05682 -0.153815,0.06973 -0.05127,0.01353 -0.09899,0.01593 -0.145487,0.0052 z"
       id="path2205"
       inkscape:path-effect="#path-effect2207"
       inkscape:original-d="m 88.686692,42.363729 c 0,0 2.468386,-12.218478 23.943288,-16.044467" />
    <path
       style="opacity:1;fill:#000000;stroke:none;stroke-width:1.38229px;stroke-linecap:butt;stroke-linejoin:miter;stroke-opacity:1"
       d="m 120.86615,106.3998 c 0.004,-0.005 0.0108,-0.008 0.0207,-0.008 0.01,-2.3e-4 0.0218,0.002 0.0367,0.006 0,0 0,0 0,0 0.0299,0.008 0.0705,0.0253 0.12177,0.051 0,0 0,0 0,0 l 0,0 c 0.10232,0.0513 0.2457,0.13665 0.42966,0.25656 0,0 0,0 0,0 l 0,0 c 0.36671,0.23903 0.88195,0.6067 1.54466,1.11165 l 0,0 c 1.305,0.99435 3.11392,2.46697 5.3603,4.46096 l 0,0 c 4.21007,3.73685 10.00295,9.33567 16.0421,16.61897 l 0,0 c 5.48216,6.60888 11.38904,14.86336 15.9638,24.49061 1.12666,2.36767 2.17284,4.83443 3.09918,7.38408 2.72058,7.48808 4.12242,14.90367 4.09366,22.07695 -0.038,9.00998 0.64097,16.33522 2.54248,23.06377 l 0,0 c 1.45671,5.1215 3.32726,8.82928 5.76678,11.63878 l 0,0 c 2.08951,2.40688 4.17405,3.63311 5.81048,4.28503 l 0,0 c 0.82544,0.32958 1.47558,0.49608 1.94513,0.60315 l 0,0 c 0.2406,0.0549 0.42579,0.0919 0.55293,0.12207 l 0,0 c 0,0 0,0 0,0 0.0639,0.0153 0.11401,0.0292 0.14758,0.042 l 0,0 c 0,0 0,0 0,0 0.0178,0.0198 0.0311,0.03 0.0403,0.0351 0.009,0.005 0.0138,0.005 0.0145,0.005 0,0 0,0 0,0 0,0 0,0 0,0 0,0 0,0 0,0 0,0 0,0 0,0 6e-5,0 5e-5,0 5e-5,0 0,0 1e-5,0 -5e-5,0 0,0 0,0 0,0 0,0 0,0 0,0 0,0 0,0 0,0 0,0 0,0 0,0 -7.5e-4,7e-5 -0.006,7e-4 -0.0143,0.006 -0.009,0.006 -0.0219,0.016 -0.0389,0.0359 0,0 0,0 0,0 l 0,0 c -0.0349,0.0132 -0.0864,0.0255 -0.15527,0.036 0,0 0,0 0,0 l 0,0 c -0.13414,0.0205 -0.3282,0.033 -0.58528,0.026 l 0,0 c -0.49365,-0.0133 -1.2051,-0.0963 -2.09736,-0.35313 l 0,0 c -1.76221,-0.50886 -4.11089,-1.67139 -6.42604,-4.11082 l 0,0 c -2.68796,-2.83225 -4.84841,-6.69757 -6.45725,-11.92837 l 0,0 c -2.12127,-6.85655 -2.97373,-14.40878 -3.01163,-23.50698 -0.0288,-6.91304 -1.43016,-14.07283 -4.08206,-21.36669 -0.90278,-2.48302 -1.91847,-4.89318 -3.00826,-7.21335 -4.43567,-9.42986 -10.17168,-17.62864 -15.46307,-24.26316 l 0,0 c -5.82862,-7.3051 -11.41106,-13.04612 -15.3946,-16.96182 l 0,0 c -2.16148,-2.12456 -3.78798,-3.6466 -5.00739,-4.8003 l 0,0 c -0.59491,-0.56285 -1.06535,-1.01199 -1.36451,-1.31482 l 0,0 c 0,0 0,0 0,0 -0.15322,-0.15508 -0.26744,-0.27757 -0.33913,-0.36539 l 0,0 c 0,0 0,0 0,0 -0.0361,-0.0442 -0.0618,-0.08 -0.0765,-0.10714 0,0 0,0 0,0 -0.007,-0.0136 -0.0121,-0.0251 -0.0141,-0.0343 -0.002,-0.01 -0.001,-0.0169 0.003,-0.0219 z"
       id="path2209"
       inkscape:path-effect="#path-effect2211"
       inkscape:original-d="m 120.86614,106.39979 c 0,0 45.72969,35.95541 45.72969,76.44889 0,40.49346 17.80315,39.79529 17.80315,39.79529" />
  </g>
</svg>
