<svg id="Layer_1" data-name="Layer 1" xmlns="http://www.w3.org/2000/svg" width="316.92" height="316.93" viewBox="0 0 316.92 316.93">
  <defs>
    <style>
      .cls-1 {
        fill: #fff;
      }
    </style>
  </defs>
  <g>
    <g>
      <path class="cls-1" d="M317.46,312.74,311,298.44l-16.53-9.15-12.05-15.24-19.91-7,14.79,17.09,7.84,7L307.59,321l-26.91-42.63,28.16,29.85,1.77-7.26.46,11.76L325,324.41q1.56-2.82,2.93-5.72Z" transform="translate(-67.43 -145.83)"/>
      <path class="cls-1" d="M191.81,321.09l-29.08,8.18-17,6.46-9.24,3.53.17.22,47.48-7.92-44.48,11.6q2.73,3.24,5.74,6.3l34-13.33-32,15.3q3.42,3.31,7.05,6.31l5.59.9,41.13-30.3L173.8,354.69l5.06,5.49,12.5-12.11L181,362.53l4.47,4.85,27.45-30.18,18.85-18.86-40.45,50.13L230,334.22l-31.11,36.33L217,374.17,237,348.26l-16.06,26.68,14.3,7.19L256.08,335l-.14-10.17-20.58,17.65,20.47-19.76-1.28-8-11.86,9.85,11.19-14-.55-9-4.45,8.28-5.83,3.88-9.73,12.87,7.27-17.84-7.27,3.64,7.31-6.24L239.29,297,218,308.44,238.56,292l-1-7-8.35,5.24,9.36-10.57,1.16-12.51-7.57,10.54-8.44,7-16.16,12.35L201,302.41l29.82-8.61-35.19,12.4-11.27,8.61-18.93,11Z" transform="translate(-67.43 -145.83)"/>
      <path class="cls-1" d="M296.12,325.66l-1.68-2.44-5.35-17.14,5.52,23.48L316,338.33l1.18-1.59Z" transform="translate(-67.43 -145.83)"/>
      <polygon class="cls-1" points="173.21 121.91 193.05 153.1 198.4 155.87 192.68 146.88 201.05 156.78 221.66 160.25 196.26 146.69 173.21 121.91"/>
      <polygon class="cls-1" points="175.73 109.57 179 121.32 184.78 115.61 209.37 145.61 153.75 71.15 172.17 99.7 175.73 109.57"/>
      <path class="cls-1" d="M184.31,314.81l13.52-27.23-50.54,34,35.32-27.82,23.5-27.13-17.39,23.41,15.93-8.57L194,302.62l14.33-21.13,14,.42L216.5,268,202,277.11l12.88-12.63,6.31-14.89-35,28L211,253.7,218,241l-9.16,6.66,10.14-10.29L221.18,217l-40.4,62.52-31.27,18.28L134.25,317.7,150,313l-20,10.66L127.13,325a112.33,112.33,0,0,0,7.63,11.91l11.74-4.42Z" transform="translate(-67.43 -145.83)"/>
      <path class="cls-1" d="M266.2,314.94l-1.45,1.65-10.14-14.48,10.3,19.25,1.94-2.39L309,346.7l.57-.62Z" transform="translate(-67.43 -145.83)"/>
      <path class="cls-1" d="M274.58,346.51l-17.22-20.82.05,5.62,8.9,14-9.31-9.6L244.42,378.2l16.2-5.82-1.34-26.09,6.09,24.39,28.53-10.24a114.8,114.8,0,0,0,9-7.59Z" transform="translate(-67.43 -145.83)"/>
    </g>
    <g>
      <path class="cls-1" d="M225.89,178.88A125.42,125.42,0,1,0,351.31,304.29,125.54,125.54,0,0,0,225.89,178.88m86,211.42a121.47,121.47,0,1,1,35.69-86,121.28,121.28,0,0,1-35.69,86" transform="translate(-67.43 -145.83)"/>
      <path class="cls-1" d="M377.72,302.42H357.89c0-1.06,0-2.12-.08-3.18-.05-1.25-.11-2.49-.2-3.73-.07-1.06-.15-2.11-.24-3.17-.11-1.24-.24-2.48-.39-3.71-.12-1.05-.26-2.11-.41-3.15l2.84-.45,3.69-.59,2.84-.45c.17,1.21.34,2.43.48,3.65l-2.86.3-3.71.39c.14,1.23.27,2.47.38,3.71s.19,2.21.26,3.32.15,2.48.19,3.73l3.73-.2,2.87-.15,3.73-.19,2.88-.15,3.72-.2c-.05-1.24-.11-2.48-.19-3.72-.09-1.41-.2-2.81-.33-4.21-.11-1.24-.24-2.48-.38-3.71-.17-1.4-.35-2.8-.55-4.19-.18-1.23-.37-2.46-.58-3.68-.23-1.39-.49-2.78-.76-4.15s-.5-2.44-.77-3.65l-3.65.77-2.83.6-3.65.78-2.82.6-3.65.77-2.81.6c-.24-1-.49-2.07-.75-3.09-.3-1.21-.62-2.41-1-3.61-.29-1-.59-2-.91-3.05-.37-1.19-.75-2.37-1.15-3.55-.35-1-.7-2-1.07-3l2.69-1,3.48-1.33,2.69-1c.43,1.14.84,2.3,1.23,3.46l-2.73.89-3.55,1.15c.4,1.18.79,2.36,1.15,3.55s.65,2.13.95,3.2.66,2.39,1,3.6l3.61-1,2.78-.75,3.61-1,2.79-.76,3.61-1c-.31-1.21-.63-2.41-1-3.6-.38-1.36-.77-2.71-1.19-4.06-.37-1.18-.75-2.37-1.15-3.54-.45-1.34-.93-2.66-1.42-4-.43-1.17-.87-2.33-1.33-3.48-.53-1.31-1.07-2.61-1.63-3.9s-1-2.28-1.51-3.41l-3.41,1.52-2.67,1.18L354.38,245l-2.63,1.17-3.41,1.52-2.63,1.17c-.45-1-.9-1.92-1.37-2.87-.56-1.11-1.12-2.22-1.7-3.32q-.75-1.39-1.53-2.79c-.6-1.08-1.23-2.16-1.86-3.23-.55-.91-1.11-1.81-1.67-2.71l2.41-1.56,3.13-2,2.41-1.56c.66,1,1.3,2.08,1.93,3.13L345,233.38l-3.23,1.86c.63,1.07,1.26,2.15,1.87,3.23s1.07,1.94,1.59,2.93,1.15,2.2,1.7,3.32l3.33-1.7,2.56-1.3,3.32-1.7,2.61-1.32L362,237c-.55-1.11-1.11-2.22-1.69-3.32-.66-1.25-1.33-2.48-2-3.71s-1.23-2.16-1.87-3.23-1.45-2.41-2.21-3.59-1.34-2.1-2-3.13-1.58-2.33-2.39-3.48-1.45-2-2.2-3l-3,2.19-2.38,1.73-3,2.2-2.33,1.69-3,2.19-2.33,1.69c-.63-.84-1.28-1.68-1.93-2.52s-1.56-1.94-2.36-2.89-1.37-1.62-2.06-2.41-1.66-1.86-2.5-2.77-1.45-1.55-2.19-2.31l2-2,2.64-2.64,2-2c.86.88,1.7,1.77,2.54,2.67l-2.14,1.92-2.78,2.5c.85.91,1.68,1.84,2.5,2.77s1.46,1.68,2.17,2.53,1.58,1.92,2.35,2.9l2.9-2.35,2.24-1.81,2.9-2.35,2.28-1.85,2.9-2.35c-.77-1-1.55-1.94-2.35-2.9s-1.81-2.15-2.74-3.2-1.66-1.86-2.5-2.77-1.92-2.06-2.91-3.06-1.74-1.77-2.64-2.64-2-2-3.06-2.91-1.83-1.67-2.77-2.5L323.6,193l-2,2.19-2.5,2.77-1.92,2.14-2.5,2.77L312.78,205c-.79-.7-1.6-1.39-2.41-2.07s-1.92-1.59-2.9-2.35-1.67-1.31-2.52-1.94-2-1.48-3-2.2-1.74-1.21-2.62-1.8l1.57-2.41,2-3.13,1.57-2.42c1,.69,2,1.38,3,2.09l-1.69,2.33-2.19,3c1,.71,2,1.44,3,2.19s1.77,1.34,2.65,2,1.93,1.56,2.89,2.35l2.35-2.9,1.81-2.23,2.35-2.9,1.85-2.29,2.35-2.9c-1-.79-1.92-1.58-2.9-2.35s-2.22-1.73-3.34-2.57-2-1.48-3-2.2-2.31-1.61-3.48-2.39-2.08-1.37-3.13-2-2.39-1.49-3.6-2.21-2.14-1.26-3.23-1.87l-1.86,3.23-1.47,2.54L295,180.84l-1.44,2.5-1.87,3.23-1.44,2.49c-.92-.52-1.85-1-2.79-1.52-1.1-.58-2.2-1.15-3.32-1.7-.95-.47-1.91-.93-2.87-1.37-1.13-.53-2.26-1-3.41-1.53-1-.42-1.95-.82-2.93-1.22l1-2.69,1.34-3.48,1-2.69q1.71.69,3.39,1.41l-1.17,2.63L279,180.31c1.14.49,2.27,1,3.4,1.53s2,.94,3,1.43,2.22,1.12,3.32,1.7l1.69-3.32,1.31-2.57,1.69-3.32,1.33-2.61,1.7-3.32c-1.1-.58-2.21-1.15-3.33-1.7s-2.53-1.23-3.81-1.82-2.26-1-3.4-1.52-2.59-1.1-3.9-1.62-2.32-.91-3.48-1.34c-1.32-.49-2.65-1-4-1.41-1.18-.4-2.36-.78-3.55-1.15l-1.15,3.55-.9,2.76-1.15,3.55-.9,2.74-1.15,3.55-.89,2.74c-1-.32-2-.62-3-.91-1.19-.34-2.39-.65-3.6-1-1-.26-2.06-.51-3.1-.74-1.21-.28-2.43-.53-3.65-.77-1-.21-2.08-.4-3.13-.58l.45-2.85.59-3.68.45-2.85c1.21.21,2.41.43,3.62.67l-.6,2.82L252.1,172c1.22.24,2.44.49,3.65.77s2.17.51,3.24.78,2.41.62,3.6,1l1-3.61.75-2.78,1-3.6.75-2.8,1-3.61c-1.2-.33-2.4-.65-3.61-1-1.36-.34-2.73-.67-4.1-1-1.22-.27-2.43-.53-3.65-.77-1.38-.27-2.76-.53-4.15-.76-1.23-.21-2.46-.4-3.69-.58-1.39-.2-2.78-.38-4.18-.54-1.24-.15-2.47-.28-3.71-.39l-.39,3.71-.31,2.87-.38,3.71-.3,2.86-.4,3.71-.3,2.87c-1-.1-2.11-.18-3.17-.25-1.24-.08-2.48-.14-3.73-.19-1,0-2.1-.07-3.17-.08l-1.86,0-1.86,0c-1.07,0-2.13,0-3.18.08l-.15-2.88-.2-3.72-.15-2.88c1.22-.05,2.44-.08,3.68-.09v6.61l1.86,0,1.86,0c1.12,0,2.22,0,3.32.08,1.25.05,2.49.11,3.73.19L235,166l.15-2.88.19-3.72.15-2.88.2-3.73c-1.24-.07-2.48-.14-3.73-.19-1.4,0-2.8-.09-4.21-.11l-1.86,0-1.86,0c-1.41,0-2.82.06-4.22.11-1.25.05-2.49.12-3.73.19-1.41.1-2.81.2-4.21.33-1.24.11-2.47.24-3.7.39l.39,3.71.3,2.87.39,3.71.3,2.86.39,3.71.3,2.87c-1.06.12-2.11.26-3.16.41-1.23.18-2.46.37-3.68.58-1.05.18-2.09.37-3.13.58-1.22.24-2.44.49-3.65.77-1,.23-2.07.48-3.09.74l-.75-2.78-1-3.6-.74-2.79c1.18-.3,2.38-.58,3.58-.85l.59,2.81.78,3.65c1.21-.27,2.43-.53,3.65-.77s2.18-.42,3.28-.61,2.45-.4,3.68-.58l-.58-3.68-.45-2.85-.59-3.68-.45-2.85L204,154c-1.23.18-2.46.37-3.69.58-1.39.24-2.77.49-4.15.76-1.22.25-2.44.5-3.65.78-1.37.3-2.74.63-4.1,1-1.21.31-2.41.63-3.61,1-1.35.38-2.71.77-4.05,1.19-1.19.37-2.37.75-3.55,1.15l1.16,3.55.9,2.77,1.15,3.55.89,2.74,1.15,3.55.89,2.74c-1,.34-2,.69-3,1.06q-1.74.65-3.48,1.35c-1,.39-2,.8-2.94,1.22-1.14.49-2.27,1-3.4,1.52-1,.45-1.92.9-2.87,1.37l-1.3-2.56-1.7-3.33-1.3-2.56c1.09-.54,2.2-1.07,3.31-1.59l1.17,2.63,1.52,3.41c1.13-.52,2.26-1,3.4-1.52s2.05-.87,3.08-1.28,2.32-.92,3.48-1.35L178,174.21l-1-2.69L175.59,168l-1.05-2.72-1.33-3.49c-1.17.44-2.33.88-3.49,1.34q-2,.79-3.9,1.62c-1.14.5-2.27,1-3.4,1.52s-2.55,1.2-3.81,1.83-2.22,1.11-3.33,1.69-2.48,1.33-3.7,2-2.16,1.23-3.23,1.87l1.86,3.23,1.47,2.54,1.87,3.23,1.43,2.49,1.87,3.23,1.44,2.5c-.91.54-1.81,1.09-2.71,1.66-1.05.66-2.09,1.34-3.13,2-.88.6-1.75,1.2-2.61,1.81-1,.72-2,1.45-3,2.19s-1.69,1.29-2.52,1.94l-1.81-2.23-2.35-2.9-1.81-2.24c1-.76,1.93-1.51,2.91-2.24l1.7,2.33,2.19,3c1-.75,2-1.48,3-2.2s1.82-1.27,2.74-1.89,2.07-1.37,3.13-2l-2-3.13-1.57-2.42-2-3.13-1.6-2.46-2-3.13c-1.05.67-2.09,1.35-3.13,2s-2.33,1.57-3.48,2.39-2,1.45-3,2.19-2.24,1.7-3.35,2.58-1.94,1.55-2.89,2.35-2.15,1.81-3.21,2.74-1.86,1.65-2.77,2.5l2.5,2.77,2,2.19,2.49,2.77,1.93,2.14,2.5,2.77,1.92,2.14c-.78.72-1.54,1.45-2.3,2.19s-1.78,1.75-2.64,2.64-1.47,1.52-2.19,2.3-1.68,1.84-2.5,2.77-1.39,1.6-2.06,2.42L122.29,218l-2.9-2.35-2.24-1.81c.79-.94,1.58-1.87,2.39-2.79l2.14,1.92,2.77,2.5c.82-.94,1.66-1.86,2.5-2.77s1.52-1.62,2.29-2.42l1.31-1.33,1.33-1.3L129.24,205l-2-2-2.64-2.63-2.08-2.09-2.64-2.64q-1.34,1.3-2.64,2.64c-1,1-1.95,2-2.9,3.06s-1.68,1.84-2.5,2.77-1.85,2.12-2.75,3.21-1.57,1.92-2.35,2.9-1.73,2.21-2.57,3.34-1.47,2-2.19,3l3,2.19,2.38,1.73,3,2.19,2.33,1.69,3,2.2,2.33,1.69c-.61.86-1.22,1.73-1.81,2.61-.69,1-1.37,2.08-2,3.13s-1.12,1.8-1.67,2.71c-.63,1.07-1.26,2.14-1.87,3.23-.51.92-1,1.85-1.52,2.79l-2.56-1.3-3.33-1.7-2.56-1.31c.57-1.08,1.16-2.16,1.76-3.23l2.49,1.44,3.23,1.87c.61-1.08,1.23-2.16,1.87-3.23s1.15-1.9,1.75-2.84,1.34-2.09,2-3.12l-3.13-2-2.41-1.57-3.13-2-2.47-1.6-3.12-2c-.69,1-1.37,2.08-2,3.13s-1.48,2.39-2.2,3.6-1.26,2.14-1.87,3.23-1.36,2.46-2,3.71c-.58,1.1-1.14,2.2-1.7,3.32s-1.23,2.53-1.82,3.81c-.52,1.13-1,2.26-1.52,3.4l3.41,1.52,2.67,1.19,3.4,1.51,2.64,1.18,3.41,1.51,2.63,1.17q-.63,1.47-1.23,2.94c-.46,1.16-.91,2.31-1.34,3.48-.37,1-.72,2-1.06,3-.41,1.18-.79,2.36-1.16,3.55-.32,1-.62,2-.91,3.05l-2.78-.75-3.6-1-2.79-.75c.34-1.18.68-2.36,1-3.53l2.74.89L97,264.38c.37-1.19.75-2.37,1.16-3.55s.73-2.1,1.11-3.14.88-2.33,1.34-3.48l-3.48-1.34-2.69-1L91,250.5l-2.72-1-3.49-1.34c-.46,1.16-.9,2.32-1.34,3.49s-1,2.64-1.41,4c-.4,1.18-.78,2.36-1.15,3.55-.42,1.34-.81,2.69-1.19,4.05-.34,1.2-.66,2.4-1,3.6-.34,1.37-.67,2.73-1,4.11-.27,1.21-.52,2.43-.77,3.65l3.65.78,2.83.6,3.65.77,2.82.6,3.65.78,2.81.6c-.2,1-.39,2.08-.57,3.13-.21,1.22-.41,2.45-.58,3.68q-.23,1.57-.42,3.15c-.14,1.24-.27,2.48-.38,3.72-.1,1-.18,2.11-.25,3.17l-2.88-.15-3.72-.2L84.69,295c.08-1.23.18-2.45.29-3.67l2.86.3,3.71.4c.11-1.25.24-2.48.39-3.72s.27-2.2.43-3.3.37-2.46.58-3.68l-3.68-.59-2.85-.45-3.68-.58-2.86-.45-3.68-.59c-.21,1.22-.4,2.45-.58,3.69s-.38,2.78-.55,4.18c-.14,1.23-.27,2.47-.38,3.71-.13,1.4-.24,2.8-.33,4.21-.08,1.24-.14,2.48-.19,3.72-.06,1.41-.09,2.81-.11,4.22,0,.63,0,1.25,0,1.88s0,1.23,0,1.85H93.89c0,1.07,0,2.12.09,3.18,0,1.25.11,2.49.19,3.73.07,1.06.15,2.12.24,3.17.12,1.24.24,2.48.39,3.71.13,1.06.27,2.11.41,3.15l-2.84.46-3.69.58-2.84.45c-.17-1.21-.34-2.43-.48-3.65l2.87-.3,3.71-.39c-.15-1.23-.28-2.47-.39-3.71s-.19-2.21-.26-3.32-.14-2.48-.19-3.73l-3.73.2-2.87.15-3.73.2-2.87.15-3.73.19c0,1.25.11,2.49.19,3.73q.14,2.11.33,4.2c.11,1.25.24,2.48.38,3.72.17,1.4.35,2.79.55,4.18q.27,1.85.57,3.69c.24,1.39.49,2.77.77,4.15.24,1.22.5,2.44.77,3.65l3.65-.78,2.83-.6,3.65-.78,2.82-.6,3.65-.77,2.81-.6q.36,1.56.75,3.09c.3,1.21.62,2.42,1,3.61.29,1,.59,2,.9,3.05.37,1.19.76,2.37,1.16,3.55.34,1,.7,2,1.06,3l-2.68,1-3.49,1.33-2.69,1c-.42-1.15-.83-2.31-1.23-3.47l2.74-.89,3.55-1.15c-.4-1.18-.79-2.36-1.16-3.55s-.64-2.12-.94-3.2-.66-2.39-1-3.6l-3.61,1-2.78.74-3.61,1-2.8.75-3.6,1c.31,1.21.63,2.41,1,3.61.38,1.35.78,2.71,1.19,4.05s.76,2.37,1.16,3.55.92,2.66,1.41,4,.88,2.33,1.34,3.49c.52,1.31,1.06,2.6,1.62,3.9.49,1.14,1,2.27,1.52,3.4l3.41-1.51L94,365.06l3.4-1.52,2.64-1.17,3.4-1.52,2.63-1.17c.45,1,.91,1.92,1.38,2.87.55,1.11,1.11,2.22,1.7,3.32.49.94,1,1.87,1.52,2.79.61,1.09,1.23,2.16,1.87,3.23.54.91,1.1,1.81,1.66,2.71l-2.41,1.56-3.13,2-2.41,1.57c-.66-1-1.3-2.08-1.93-3.14l2.49-1.44,3.24-1.86c-.64-1.07-1.26-2.14-1.87-3.23s-1.08-1.94-1.6-2.92-1.14-2.21-1.7-3.32l-3.32,1.69L99,366.86l-3.32,1.69-2.61,1.33-3.32,1.69c.55,1.12,1.12,2.22,1.7,3.32.65,1.25,1.32,2.49,2,3.71s1.23,2.16,1.87,3.23,1.46,2.41,2.21,3.6,1.34,2.09,2,3.13,1.58,2.33,2.39,3.48,1.45,2,2.19,3l3-2.19,2.38-1.73,3-2.19,2.33-1.69,3-2.2,2.33-1.69c.63.85,1.28,1.69,1.93,2.52.77,1,1.56,1.94,2.36,2.89s1.36,1.62,2.06,2.42,1.66,1.86,2.5,2.77,1.45,1.55,2.19,2.31l-2,2-2.64,2.64-2,2c-.85-.88-1.69-1.76-2.53-2.67l2.14-1.92,2.78-2.49c-.85-.92-1.69-1.84-2.5-2.77s-1.46-1.68-2.17-2.54-1.58-1.91-2.35-2.89L117,390l-2.24,1.81-2.9,2.35-2.28,1.85-2.9,2.35c.77,1,1.55,1.94,2.35,2.89s1.81,2.15,2.74,3.21,1.66,1.86,2.5,2.77,1.92,2.05,2.91,3.06,1.74,1.77,2.63,2.64,2,1.95,3.06,2.91,1.84,1.67,2.77,2.49l2.5-2.77,2-2.19,2.5-2.77,1.92-2.14,2.5-2.77,1.92-2.14c.8.7,1.6,1.39,2.42,2.07s1.92,1.58,2.89,2.35,1.67,1.3,2.52,1.94c1,.75,2,1.48,3,2.2.86.61,1.74,1.21,2.62,1.8l-1.57,2.42-2,3.12-1.57,2.42c-1-.69-2-1.38-3-2.09l1.69-2.32,2.2-3c-1-.72-2-1.46-3-2.2s-1.77-1.34-2.64-2-1.94-1.56-2.89-2.36l-2.35,2.9L135.43,413l-2.35,2.9-1.85,2.29-2.35,2.9c1,.79,1.92,1.58,2.9,2.35s2.21,1.73,3.34,2.57,2,1.48,3,2.2,2.31,1.61,3.48,2.39,2.07,1.37,3.12,2,2.39,1.49,3.6,2.21,2.15,1.26,3.23,1.87l1.87-3.23L154.9,431l1.87-3.23,1.44-2.5,1.86-3.23,1.44-2.49c.93.52,1.86,1,2.79,1.52,1.1.58,2.21,1.15,3.32,1.7,1,.47,1.91.93,2.87,1.38,1.13.52,2.26,1,3.41,1.52,1,.42,1.95.83,2.94,1.22l-1,2.69L174.47,433l-1,2.69c-1.15-.45-2.28-.93-3.4-1.41l1.17-2.63,1.52-3.41c-1.15-.49-2.28-1-3.41-1.52s-2-.95-3-1.44-2.23-1.12-3.32-1.7l-1.7,3.32L160,429.5l-1.7,3.32L157,435.43l-1.7,3.33c1.1.57,2.21,1.14,3.32,1.69,1.26.63,2.53,1.23,3.81,1.82,1.13.52,2.26,1,3.41,1.52s2.59,1.1,3.9,1.62c1.15.46,2.31.91,3.48,1.34,1.32.49,2.64,1,4,1.42,1.17.39,2.36.78,3.54,1.15l1.16-3.55.89-2.76,1.16-3.55.89-2.74,1.15-3.55.89-2.74c1,.31,2,.61,3,.9,1.2.34,2.4.66,3.61,1,1,.26,2,.5,3.09.74,1.21.28,2.43.53,3.65.77,1,.21,2.08.4,3.13.58l-.45,2.85-.58,3.68-.45,2.85c-1.21-.21-2.42-.44-3.62-.67l.6-2.82.77-3.65c-1.22-.24-2.44-.5-3.65-.77s-2.16-.51-3.24-.78-2.41-.63-3.6-1l-1,3.6-.74,2.78-1,3.61-.75,2.8-1,3.6c1.19.33,2.39.66,3.6,1,1.36.35,2.73.67,4.1,1s2.43.53,3.65.78c1.38.27,2.77.52,4.16.76,1.22.21,2.45.4,3.68.58,1.39.2,2.79.38,4.19.54,1.23.15,2.47.27,3.71.39l.39-3.71.3-2.87.39-3.71.3-2.86.39-3.71.3-2.87c1.06.1,2.11.18,3.18.25,1.23.08,2.47.14,3.72.19,1.06,0,2.12.07,3.19.09l1.86,0,1.86,0c1.07,0,2.13-.05,3.19-.09l.15,2.88.19,3.73.15,2.87c-1.22.05-2.44.08-3.68.09v-6.61l-1.86,0-1.86,0c-1.12,0-2.23,0-3.34-.08s-2.49-.11-3.73-.2l-.19,3.73-.15,2.87-.2,3.73-.15,2.88-.19,3.72c1.24.08,2.48.15,3.72.2,1.41.05,2.81.09,4.23.11l1.86,0,1.86,0c1.42,0,2.82-.06,4.22-.11,1.25,0,2.49-.12,3.73-.2,1.41-.09,2.81-.19,4.21-.32,1.24-.12,2.48-.24,3.71-.39l-.39-3.71-.3-2.87-.39-3.71-.3-2.86-.39-3.71-.31-2.86c1.06-.13,2.11-.27,3.16-.42,1.24-.18,2.46-.37,3.69-.58,1-.18,2.09-.37,3.13-.58,1.22-.24,2.44-.49,3.65-.77,1-.23,2.06-.48,3.09-.74l.74,2.78,1,3.6.75,2.79c-1.19.3-2.38.58-3.58.85l-.6-2.81-.77-3.65c-1.22.28-2.43.53-3.66.77s-2.18.42-3.27.61-2.45.4-3.69.58l.58,3.68.46,2.85.58,3.68.45,2.85.58,3.69c1.24-.18,2.47-.37,3.69-.58,1.39-.24,2.78-.49,4.15-.76s2.44-.51,3.65-.78c1.38-.31,2.75-.63,4.11-1,1.2-.31,2.41-.63,3.6-1,1.36-.38,2.71-.77,4.05-1.19,1.19-.37,2.37-.75,3.55-1.15l-1.15-3.55-.9-2.77-1.16-3.55-.88-2.74L269.35,432l-.89-2.74c1-.34,2-.69,3-1.06,1.17-.43,2.33-.88,3.48-1.34q1.49-.6,2.94-1.23c1.14-.49,2.28-1,3.4-1.52,1-.45,1.92-.91,2.87-1.38l1.31,2.57,1.7,3.32,1.3,2.57c-1.1.54-2.2,1.07-3.32,1.59L284,430.16l-1.51-3.41c-1.13.52-2.27,1-3.41,1.52s-2,.87-3.08,1.28-2.31.92-3.48,1.35l1.34,3.48,1,2.69,1.34,3.48,1,2.72,1.34,3.48c1.16-.43,2.32-.87,3.48-1.33s2.61-1.07,3.9-1.63,2.28-1,3.41-1.52,2.55-1.19,3.81-1.82,2.22-1.12,3.32-1.69,2.48-1.33,3.71-2,2.16-1.23,3.23-1.87l-1.87-3.23-1.47-2.54-1.86-3.23-1.44-2.49-1.87-3.23-1.43-2.5c.9-.54,1.81-1.1,2.7-1.66,1.06-.67,2.1-1.34,3.13-2s1.75-1.19,2.62-1.8,2-1.45,3-2.2c.84-.63,1.68-1.28,2.52-1.93l1.81,2.23,2.34,2.9,1.81,2.24-2.9,2.24-1.7-2.33-2.19-3c-1,.75-2,1.48-3,2.2s-1.82,1.27-2.74,1.89-2.08,1.37-3.13,2l2,3.13,1.57,2.41,2,3.13,1.6,2.47,2,3.13c1.05-.67,2.1-1.35,3.13-2s2.33-1.58,3.48-2.39,2-1.45,3-2.2,2.24-1.7,3.34-2.57,1.94-1.56,2.9-2.35,2.15-1.82,3.2-2.75,1.86-1.65,2.77-2.49l-2.49-2.78-2-2.18-2.5-2.78L320,406l-2.5-2.78-1.92-2.13c.77-.72,1.54-1.45,2.3-2.19s1.77-1.75,2.64-2.64,1.47-1.53,2.19-2.31,1.68-1.83,2.5-2.76,1.38-1.61,2.06-2.42l2.24,1.81,2.9,2.35,2.23,1.81c-.78.94-1.58,1.87-2.39,2.79l-2.13-1.92-2.78-2.5c-.82.93-1.65,1.86-2.5,2.77s-1.51,1.62-2.29,2.41c-.43.45-.86.9-1.3,1.34l-1.33,1.3,2.63,2.64,2,2,2.63,2.64,2.09,2.08,2.64,2.64c.88-.87,1.76-1.75,2.63-2.64s1.95-2,2.91-3.06,1.67-1.83,2.5-2.77,1.84-2.12,2.74-3.2,1.58-1.92,2.35-2.9,1.73-2.22,2.58-3.35,1.47-2,2.19-3l-3-2.2-2.38-1.72-3-2.2-2.32-1.69-3-2.19-2.33-1.69c.61-.87,1.21-1.74,1.8-2.62.7-1,1.37-2.08,2-3.13.56-.89,1.12-1.8,1.66-2.71s1.26-2.14,1.87-3.22,1-1.86,1.53-2.8l2.56,1.31,3.32,1.69,2.57,1.31c-.57,1.08-1.16,2.16-1.76,3.23L346.85,372l-3.24-1.87c-.6,1.09-1.23,2.16-1.86,3.23s-1.15,1.9-1.75,2.84-1.34,2.09-2,3.13l3.13,2,2.41,1.57,3.13,2,2.46,1.6,3.13,2c.69-1,1.37-2.08,2-3.13s1.48-2.39,2.2-3.6,1.26-2.14,1.87-3.23,1.36-2.46,2-3.71c.57-1.1,1.14-2.2,1.69-3.32s1.23-2.53,1.82-3.81c.52-1.13,1-2.26,1.52-3.4L362,362.84l-2.66-1.19-3.41-1.52L353.28,359l-3.41-1.51-2.63-1.17c.42-1,.83-2,1.22-2.94q.71-1.74,1.35-3.48c.36-1,.72-2,1.06-3,.41-1.18.79-2.36,1.16-3.55.31-1,.62-2,.9-3.05l2.79.74,3.6,1,2.78.74c-.33,1.19-.68,2.36-1,3.53l-2.74-.89-3.55-1.15c-.37,1.19-.76,2.37-1.16,3.55s-.73,2.1-1.11,3.14-.88,2.33-1.35,3.48l3.49,1.34,2.68,1,3.49,1.34,2.72,1,3.48,1.34c.46-1.16.91-2.32,1.34-3.49s1-2.64,1.42-4c.39-1.17.78-2.35,1.15-3.54s.81-2.7,1.19-4.05c.33-1.2.66-2.4,1-3.61.35-1.36.67-2.73,1-4.1.27-1.22.53-2.43.77-3.65l-3.65-.78-2.82-.6-3.65-.78-2.82-.6-3.65-.77-2.82-.6c.21-1,.4-2.08.58-3.13.21-1.22.4-2.45.58-3.69.15-1,.29-2.1.41-3.15.15-1.23.28-2.47.39-3.71.09-1.05.18-2.11.25-3.17l2.87.15,3.73.19,2.87.16c-.08,1.22-.17,2.44-.29,3.66l-2.86-.3-3.71-.39c-.11,1.24-.24,2.48-.38,3.71s-.28,2.21-.44,3.3-.37,2.47-.57,3.69l3.68.58,2.84.46,3.69.58,2.85.45,3.68.58c.21-1.22.41-2.45.59-3.68.2-1.39.38-2.79.54-4.19.14-1.23.27-2.47.38-3.71s.24-2.8.33-4.2c.08-1.24.14-2.48.19-3.73s.09-2.81.11-4.22c0-.62,0-1.24,0-1.85s0-1.26,0-1.88m-3.83,7.76c-.05,1.24-.12,2.48-.2,3.72s-.19,2.68-.31,4-.24,2.48-.38,3.71-.33,2.67-.52,4l-2.85-.45-3.69-.58-2.84-.45c.17-1.16.32-2.33.46-3.5l2.86.3,3.71.39c.15-1.23.27-2.47.39-3.71s.21-2.57.3-3.86.14-2.48.19-3.73l-3.73-.19-2.87-.15-3.73-.2-2.87-.15-3.73-.19c0,1.24-.11,2.48-.19,3.72-.07,1-.14,2-.23,3-.11,1.24-.24,2.48-.39,3.71-.11,1-.24,2-.39,3q-.25,1.85-.57,3.69c-.17,1-.36,2-.55,2.93-.24,1.23-.49,2.44-.77,3.65l3.65.78,2.82.6,3.65.77,2.81.6,3.65.78,2.83.6c-.29,1.31-.6,2.62-.93,3.92s-.63,2.41-1,3.6-.75,2.58-1.14,3.86-.76,2.38-1.16,3.55-.88,2.54-1.34,3.8l-2.72-1.05-3.48-1.33-2.69-1c.41-1.11.8-2.21,1.18-3.33l2.74.89,3.55,1.15c.4-1.17.78-2.35,1.16-3.54s.74-2.47,1.09-3.72.66-2.4,1-3.6l-3.61-1-2.78-.74-3.6-1-2.78-.75-3.61-1q-.45,1.81-1,3.6c-.27,1-.56,1.92-.85,2.87-.37,1.19-.75,2.37-1.16,3.54q-.48,1.43-1,2.82c-.43,1.17-.89,2.33-1.35,3.48q-.56,1.38-1.14,2.76c-.5,1.14-1,2.27-1.53,3.4l3.41,1.52,2.63,1.17,3.41,1.52,2.63,1.17,3.41,1.52,2.67,1.18c-.57,1.22-1.15,2.44-1.74,3.64s-1.12,2.22-1.7,3.32-1.27,2.37-1.92,3.54-1.24,2.16-1.87,3.23-1.39,2.29-2.11,3.43l-2.46-1.6-3.13-2-2.41-1.57c.63-1,1.25-2,1.85-3l2.49,1.44,3.23,1.86c.64-1.07,1.26-2.14,1.87-3.23s1.25-2.26,1.85-3.4,1.15-2.21,1.7-3.32l-3.32-1.69-2.57-1.31-3.32-1.69-2.57-1.31-3.32-1.7c-.55,1.12-1.12,2.23-1.7,3.33-.47.88-.94,1.75-1.43,2.62-.61,1.08-1.23,2.16-1.87,3.23-.51.85-1,1.7-1.56,2.54-.67,1.05-1.34,2.1-2,3.13-.56.82-1.13,1.64-1.7,2.45-.72,1-1.45,2-2.2,3l3,2.19,2.32,1.69,3,2.2,2.33,1.69,3,2.19,2.38,1.73c-.81,1.08-1.63,2.14-2.46,3.19s-1.55,1.94-2.35,2.9S338.09,401,337.2,402s-1.65,1.86-2.49,2.78-1.84,2-2.78,2.92l-2.08-2.09L327.21,403l-2-2q1.23-1.26,2.43-2.55l2.13,1.92,2.78,2.5c.84-.92,1.67-1.84,2.5-2.77s1.69-2,2.51-2.94,1.59-1.92,2.36-2.9l-2.9-2.35L334.75,390l-2.9-2.35-2.23-1.81-2.9-2.34c-.77,1-1.56,1.94-2.36,2.89-.64.77-1.28,1.52-1.94,2.27-.82.93-1.65,1.85-2.49,2.77-.68.73-1.37,1.45-2.06,2.16-.43.45-.87.9-1.31,1.34s-.88.87-1.33,1.3c-.71.69-1.43,1.38-2.16,2.05-.91.85-1.84,1.68-2.77,2.5l2.5,2.78,1.92,2.13,2.5,2.78,1.92,2.13,2.5,2.78,2,2.18c-1,.89-2,1.76-3.06,2.62s-1.92,1.58-2.9,2.35-2.11,1.65-3.18,2.46-2,1.47-3,2.19-2.2,1.54-3.32,2.28l-1.6-2.46-2-3.13-1.57-2.41c1-.66,1.95-1.32,2.9-2l1.7,2.32,2.19,3c1-.72,2-1.45,3-2.19s2.05-1.57,3.06-2.36,1.94-1.56,2.9-2.36l-2.35-2.9-1.81-2.23-2.35-2.9-1.81-2.24-2.35-2.9c-.95.8-1.91,1.59-2.89,2.36-.78.61-1.57,1.22-2.37,1.81-1,.75-2,1.48-3,2.2-.82.57-1.64,1.14-2.46,1.69-1,.7-2.08,1.37-3.13,2-.84.53-1.69,1.05-2.54,1.56-1.07.64-2.14,1.26-3.23,1.87l1.87,3.23,1.44,2.5,1.86,3.23,1.44,2.49,1.87,3.23,1.46,2.54c-1.17.65-2.35,1.3-3.54,1.92s-2.2,1.15-3.32,1.7-2.41,1.17-3.63,1.74-2.26,1-3.41,1.51-2.47,1.05-3.72,1.55l-1-2.72-1.34-3.48-1-2.69c1.09-.44,2.18-.89,3.26-1.36l1.17,2.63,1.52,3.41c1.14-.49,2.27-1,3.4-1.52s2.34-1.1,3.49-1.68,2.23-1.12,3.33-1.7l-1.7-3.32-1.31-2.56-1.69-3.33L287.47,421l-1.69-3.32c-1.1.58-2.21,1.15-3.32,1.7q-1.33.66-2.7,1.29c-1.12.52-2.25,1-3.4,1.52-.91.4-1.83.78-2.76,1.15q-1.73.71-3.48,1.35c-.93.34-1.87.67-2.81,1-1.18.41-2.36.79-3.55,1.16l1.16,3.55.89,2.74,1.15,3.55.89,2.74L269,443l.9,2.76q-1.92.6-3.87,1.14-1.78.49-3.6,1c-1.3.33-2.6.64-3.91.93s-2.43.53-3.65.78-2.64.5-4,.72l-.46-2.85-.58-3.68-.45-2.85c1.16-.2,2.32-.41,3.47-.64l.6,2.82.77,3.65c1.23-.25,2.44-.5,3.65-.78s2.52-.58,3.77-.9,2.41-.63,3.61-1l-1-3.61-.74-2.78-1-3.6-.75-2.78-1-3.61c-1.2.34-2.4.66-3.61,1-1,.25-1.93.48-2.9.7-1.21.28-2.43.53-3.65.77-1,.2-2,.38-2.94.55-1.22.21-2.45.4-3.68.58-1,.14-2,.27-3,.39-1.24.14-2.47.27-3.72.38l.4,3.71.3,2.87.39,3.71.3,2.86.39,3.71.3,2.87c-1.34.12-2.67.22-4,.31s-2.48.14-3.73.19-2.68.09-4,.1l-1.86,0-1.86,0c-1.35,0-2.69-.05-4-.1l.15-2.87.19-3.73.15-2.87c1.18,0,2.36.07,3.54.08v6.61l1.86,0,1.86,0c1.3,0,2.59-.05,3.88-.09s2.49-.12,3.73-.2l-.2-3.73-.15-2.87-.2-3.73-.15-2.87-.19-3.73c-1.24.09-2.48.15-3.73.2-1,0-2,.06-3,.07l-1.86,0-1.86,0c-1,0-2,0-3-.07-1.25-.05-2.49-.11-3.73-.2-1-.06-2-.14-3-.23-1.24-.11-2.48-.24-3.71-.38l-.39,3.7-.3,2.87-.39,3.71-.3,2.86-.39,3.71-.3,2.87c-1.34-.15-2.67-.33-4-.52s-2.46-.37-3.69-.58-2.65-.46-4-.72-2.44-.5-3.65-.78-2.62-.6-3.91-.93l.75-2.8,1-3.61.75-2.78c1.14.29,2.28.57,3.43.83l-.6,2.81-.78,3.65c1.22.28,2.43.53,3.65.78s2.54.48,3.81.7,2.46.4,3.69.58l.58-3.69.45-2.84.59-3.68.45-2.85.58-3.68c-1.23-.18-2.46-.37-3.69-.58-1-.17-2-.35-2.93-.55-1.23-.24-2.44-.49-3.65-.77-1-.22-1.94-.45-2.91-.7-1.2-.3-2.41-.62-3.6-1-1-.27-1.92-.56-2.86-.85-1.2-.37-2.38-.76-3.55-1.16l-1.15,3.55-.89,2.74-1.16,3.55-.89,2.74-1.15,3.55-.9,2.77c-1.27-.43-2.54-.89-3.79-1.35s-2.33-.88-3.49-1.34-2.48-1-3.72-1.55-2.27-1-3.4-1.52-2.43-1.14-3.63-1.73l1.32-2.61,1.7-3.32,1.3-2.57,3.18,1.53-1.17,2.63-1.51,3.4c1.13.53,2.26,1,3.4,1.53s2.38,1,3.58,1.49,2.31.91,3.48,1.34l1.34-3.48,1-2.69,1.33-3.48,1-2.69,1.33-3.48q-1.76-.66-3.48-1.35c-.92-.37-1.84-.76-2.76-1.15-1.14-.49-2.27-1-3.4-1.52-.9-.42-1.8-.85-2.69-1.29-1.12-.55-2.22-1.12-3.32-1.7-.88-.47-1.75-.94-2.62-1.43-1.09-.61-2.17-1.23-3.23-1.87l-1.87,3.23-1.44,2.49L155,423.37l-1.44,2.5-1.87,3.23-1.46,2.54c-1.16-.69-2.3-1.39-3.43-2.11s-2.1-1.34-3.13-2-2.22-1.51-3.32-2.28-2-1.45-3-2.2-2.13-1.62-3.19-2.45l1.86-2.29,2.34-2.9,1.81-2.23c.92.72,1.86,1.44,2.8,2.15l-1.69,2.33-2.2,3c1,.74,2,1.47,3,2.19s2.12,1.48,3.19,2.2,2.07,1.36,3.13,2l2-3.13,1.56-2.41,2-3.13,1.56-2.42,2-3.12c-1.06-.67-2.1-1.34-3.13-2-.83-.56-1.64-1.12-2.46-1.69-1-.72-2-1.45-3-2.2-.8-.6-1.59-1.2-2.37-1.82-1-.77-1.94-1.56-2.89-2.35-.77-.64-1.52-1.29-2.27-1.94-.94-.82-1.86-1.65-2.77-2.5l-2.5,2.77-1.92,2.14-2.5,2.77-1.92,2.14-2.5,2.77-2,2.19c-1-.91-2-1.83-2.92-2.77l-1.33-1.3c-.44-.44-.87-.89-1.31-1.34-.93-1-1.86-1.93-2.77-2.92s-1.67-1.83-2.49-2.77-1.76-2-2.62-3.05l2.29-1.86,2.9-2.35,2.23-1.81c.75.91,1.52,1.8,2.3,2.68l-2.14,1.93L116.76,400c.83.94,1.66,1.86,2.5,2.77s1.77,1.89,2.67,2.81,1.74,1.77,2.63,2.64l2.64-2.64,2-2,2.64-2.63,2-2,2.64-2.64L135.22,395c-.44-.44-.88-.9-1.31-1.34-.69-.72-1.38-1.44-2-2.17-.85-.91-1.68-1.83-2.5-2.77-.66-.74-1.31-1.5-1.94-2.26-.8-1-1.59-1.92-2.36-2.9-.61-.78-1.22-1.57-1.82-2.36-.74-1-1.47-2-2.19-3l-3,2.2L115.71,382l-3,2.2-2.32,1.69-3,2.19L105,389.84c-.78-1.09-1.53-2.2-2.28-3.31s-1.37-2.08-2-3.13-1.42-2.28-2.11-3.44-1.26-2.14-1.87-3.22-1.29-2.35-1.92-3.54l2.61-1.33,3.32-1.69,2.57-1.31c.55,1,1.11,2.07,1.69,3.1l-2.5,1.44-3.23,1.86c.61,1.09,1.23,2.16,1.87,3.23s1.34,2.21,2,3.3,1.34,2.09,2,3.12l3.13-2,2.41-1.56,3.14-2,2.41-1.56,3.13-2c-.7-1-1.37-2.07-2-3.12q-.79-1.26-1.56-2.55c-.64-1.06-1.26-2.14-1.87-3.22-.49-.87-1-1.75-1.43-2.63-.58-1.09-1.15-2.2-1.7-3.32-.44-.89-.87-1.78-1.29-2.69-.52-1.13-1-2.26-1.52-3.4l-3.41,1.52-2.63,1.17L98.5,359l-2.63,1.17-3.41,1.52-2.66,1.19c-.53-1.23-1-2.47-1.55-3.72s-.91-2.31-1.34-3.48-.91-2.52-1.34-3.8-.79-2.36-1.16-3.55-.77-2.56-1.14-3.86l2.81-.75,3.6-1,2.78-.75c.32,1.13.66,2.26,1,3.38l-2.75.89-3.54,1.16c.37,1.19.75,2.37,1.15,3.54s.85,2.44,1.3,3.65.88,2.33,1.34,3.49l3.49-1.34,2.69-1,3.48-1.34,2.69-1L106.8,352c-.46-1.15-.91-2.31-1.34-3.48-.35-.94-.68-1.87-1-2.82-.4-1.17-.79-2.35-1.16-3.54-.29-1-.58-1.91-.85-2.86-.34-1.2-.65-2.4-1-3.61-.24-1-.48-1.93-.7-2.91-.27-1.2-.53-2.42-.77-3.64l-3.65.77-2.81.6-3.65.78-2.82.59-3.65.78-2.83.6c-.26-1.31-.51-2.63-.73-4s-.4-2.45-.58-3.69-.36-2.65-.52-4-.27-2.46-.38-3.7-.23-2.67-.31-4l2.87-.15,3.73-.19,2.88-.15c.07,1.17.17,2.34.27,3.51l-2.87.3-3.7.39c.11,1.24.24,2.48.38,3.71s.32,2.57.5,3.84.38,2.47.58,3.69l3.69-.58,2.84-.45,3.69-.59,2.84-.45,3.69-.58c-.21-1.22-.41-2.46-.58-3.69-.14-1-.27-2-.39-3-.15-1.23-.28-2.47-.39-3.71-.09-1-.16-2-.23-3-.08-1.23-.14-2.48-.19-3.72,0-1-.06-2-.08-3,0-.62,0-1.24,0-1.85s0-1.25,0-1.88H77.79c0-1.34,0-2.68.11-4s.11-2.49.19-3.72.19-2.68.31-4,.24-2.48.39-3.71.32-2.67.51-4l2.86.45,3.68.58,2.85.46c-.17,1.16-.32,2.32-.46,3.49l-2.87-.3-3.71-.39c-.14,1.24-.27,2.47-.38,3.71s-.22,2.57-.3,3.87-.15,2.48-.2,3.72l3.73.2,2.87.15,3.73.19,2.88.15,3.72.2c0-1.25.11-2.49.19-3.73q.1-1.48.24-3c.11-1.25.24-2.48.38-3.72.12-1,.25-2,.39-3,.18-1.23.37-2.46.58-3.68q.26-1.47.54-2.94c.25-1.22.5-2.44.78-3.65L97.15,275l-2.82-.6-3.65-.78-2.82-.6-3.65-.77-2.83-.6c.3-1.32.6-2.62.94-3.92s.62-2.41,1-3.6.74-2.59,1.14-3.87.75-2.37,1.15-3.54.88-2.54,1.35-3.8L89.63,254l3.49,1.33,2.69,1c-.41,1.1-.8,2.2-1.18,3.32l-2.74-.89-3.55-1.16c-.4,1.18-.79,2.36-1.16,3.55s-.75,2.47-1.1,3.72-.66,2.39-1,3.6l3.6,1,2.78.74,3.61,1,2.78.74,3.61,1c.3-1.21.62-2.41,1-3.61.28-.95.56-1.91.86-2.86.37-1.19.75-2.37,1.15-3.55.33-.94.66-1.88,1-2.81q.65-1.76,1.35-3.48.56-1.38,1.14-2.76c.49-1.14,1-2.27,1.53-3.4l-3.41-1.52-2.63-1.17L100,246.21,97.4,245,94,243.52l-2.67-1.18c.56-1.22,1.14-2.44,1.74-3.64s1.11-2.22,1.69-3.32S96,233,96.68,231.84s1.23-2.16,1.86-3.22,1.39-2.3,2.11-3.44l2.46,1.6,3.13,2,2.42,1.57c-.63,1-1.25,2-1.85,3L104.32,232l-3.23-1.87c-.64,1.07-1.26,2.15-1.87,3.23s-1.25,2.26-1.86,3.4-1.14,2.21-1.7,3.32L99,241.72l2.56,1.31,3.33,1.69,2.56,1.31,3.33,1.69c.55-1.11,1.12-2.22,1.7-3.31.46-.88.94-1.76,1.43-2.63.61-1.08,1.23-2.16,1.87-3.22q.77-1.29,1.56-2.55c.66-1,1.34-2.09,2-3.12.56-.83,1.12-1.65,1.7-2.46.72-1,1.45-2,2.19-3l-3-2.19-2.32-1.69-3-2.19-2.33-1.7-3-2.19-2.38-1.73c.8-1.07,1.62-2.13,2.45-3.19s1.56-1.94,2.35-2.89,1.74-2,2.62-3.06,1.66-1.86,2.5-2.77,1.84-2,2.77-2.92l2.08,2.08,2.64,2.64,2,2q-1.23,1.26-2.43,2.55L122,208.27l-2.77-2.49c-.84.91-1.68,1.83-2.5,2.77s-1.69,1.95-2.52,2.94-1.58,1.92-2.35,2.9l2.9,2.34,2.24,1.81,2.9,2.35,2.23,1.81,2.9,2.35c.77-1,1.56-1.94,2.36-2.89.63-.77,1.28-1.52,1.93-2.27.82-.94,1.66-1.86,2.5-2.77.68-.73,1.36-1.45,2.06-2.16.43-.45.86-.9,1.3-1.34l1.33-1.3c.72-.7,1.44-1.38,2.17-2.06.91-.84,1.83-1.68,2.77-2.5L139,205l-1.92-2.14-2.5-2.77-1.93-2.14-2.49-2.77-2-2.19c1-.88,2-1.76,3.06-2.61s1.91-1.58,2.89-2.35,2.12-1.66,3.19-2.46,2-1.47,3-2.19,2.2-1.54,3.32-2.28l1.6,2.46,2,3.13,1.57,2.41c-1,.66-2,1.32-2.91,2l-1.69-2.33-2.19-3c-1,.72-2,1.45-3,2.2S137,189.5,136,190.3s-1.94,1.56-2.89,2.35l2.35,2.9,1.81,2.24,2.34,2.9,1.81,2.24,2.36,2.9c1-.8,1.91-1.59,2.89-2.36l2.36-1.82c1-.74,2-1.47,3-2.19.81-.58,1.63-1.14,2.45-1.7,1-.69,2.08-1.37,3.13-2,.85-.53,1.69-1,2.55-1.56,1.06-.64,2.14-1.26,3.23-1.87l-1.87-3.23-1.44-2.5-1.86-3.23-1.44-2.49-1.87-3.23-1.46-2.54c1.16-.66,2.34-1.3,3.53-1.92s2.21-1.15,3.32-1.7,2.42-1.18,3.64-1.74,2.26-1,3.4-1.52,2.47-1,3.72-1.54l1.05,2.72,1.33,3.48,1,2.69c-1.09.44-2.17.89-3.25,1.36L170,174.28l-1.51-3.41c-1.14.49-2.28,1-3.41,1.52s-2.33,1.1-3.49,1.68-2.22,1.12-3.32,1.7l1.69,3.32,1.31,2.56L163,185l1.3,2.56,1.7,3.33c1.09-.58,2.2-1.15,3.32-1.7.89-.44,1.79-.87,2.69-1.29,1.13-.52,2.26-1,3.4-1.53l2.76-1.14q1.73-.71,3.48-1.35c.93-.34,1.87-.67,2.81-1,1.18-.41,2.36-.79,3.55-1.16l-1.15-3.55-.89-2.74-1.15-3.55-.89-2.74-1.16-3.55-.89-2.76c1.28-.4,2.56-.78,3.86-1.14s2.39-.66,3.6-1,2.61-.64,3.92-.94,2.43-.52,3.65-.77,2.63-.5,4-.72l.45,2.85.58,3.68.45,2.85c-1.16.2-2.31.41-3.47.64l-.6-2.82-.77-3.65c-1.22.25-2.44.5-3.65.78s-2.52.58-3.77.9-2.4.63-3.6,1l1,3.61.75,2.78,1,3.6.74,2.78,1,3.61c1.2-.34,2.4-.66,3.61-1,1-.25,1.93-.48,2.9-.7,1.22-.28,2.43-.53,3.65-.77,1-.2,2-.38,2.94-.55,1.23-.21,2.45-.4,3.69-.58,1-.14,2-.27,3-.39,1.23-.14,2.47-.27,3.71-.38l-.39-3.71-.3-2.87-.39-3.71-.3-2.86-.39-3.71-.3-2.87c1.33-.12,2.66-.22,4-.31s2.48-.14,3.72-.19,2.68-.09,4-.11l1.86,0,1.86,0c1.35,0,2.68.06,4,.11l-.15,2.88-.2,3.72-.15,2.88c-1.17-.05-2.34-.08-3.52-.09v-6.61l-1.86,0-1.86,0c-1.3,0-2.59,0-3.88.1s-2.49.11-3.72.19l.19,3.72.15,2.88.2,3.73.15,2.87.2,3.73c1.23-.09,2.47-.15,3.72-.19,1,0,2-.07,3-.08l1.86,0,1.86,0c1,0,2,0,3,.07,1.25.05,2.49.11,3.73.2,1,.06,2,.14,3,.23,1.25.11,2.48.24,3.71.38l.39-3.71.31-2.86.38-3.71.3-2.87.39-3.71.31-2.86q2,.23,4,.51c1.23.18,2.46.37,3.68.58s2.65.47,4,.73,2.44.5,3.65.77,2.62.61,3.92.94l-.75,2.8-1,3.6L260,169.9c-1.14-.29-2.29-.56-3.44-.82l.61-2.82.77-3.65c-1.21-.27-2.43-.53-3.65-.77s-2.53-.48-3.81-.7-2.45-.4-3.69-.58l-.58,3.68-.45,2.85-.58,3.68-.45,2.85-.59,3.68c1.24.18,2.47.37,3.69.58l2.94.54c1.22.24,2.44.5,3.65.77l2.9.7c1.21.31,2.41.62,3.6,1,1,.28,1.92.56,2.87.86,1.19.36,2.37.75,3.55,1.15l1.15-3.55.89-2.74,1.15-3.55.89-2.74,1.16-3.54.89-2.77c1.28.43,2.54.88,3.8,1.34s2.33.88,3.48,1.34,2.49,1,3.72,1.55,2.28,1,3.41,1.52,2.43,1.14,3.63,1.73l-1.33,2.61-1.69,3.32L287.14,180c-1.05-.52-2.12-1-3.18-1.52l1.17-2.63,1.52-3.41c-1.13-.52-2.27-1-3.41-1.53s-2.37-1-3.58-1.48-2.31-.91-3.47-1.35l-1.34,3.49-1,2.69-1.34,3.48-1,2.69-1.34,3.48c1.17.43,2.33.88,3.48,1.34l2.76,1.15c1.14.49,2.28,1,3.4,1.52.91.42,1.8.85,2.69,1.29,1.12.55,2.23,1.12,3.33,1.7.88.47,1.75.95,2.62,1.43,1.08.61,2.16,1.23,3.23,1.87l1.86-3.23,1.44-2.49,1.87-3.24,1.43-2.49,1.87-3.23,1.47-2.54c1.15.69,2.29,1.39,3.43,2.11s2.09,1.34,3.13,2,2.22,1.5,3.31,2.28,2,1.45,3,2.19,2.14,1.63,3.19,2.46l-1.85,2.29-2.35,2.89-1.81,2.24c-.92-.73-1.85-1.45-2.79-2.15l1.69-2.33,2.19-3c-1-.74-2-1.47-3-2.19s-2.12-1.48-3.19-2.2-2.08-1.37-3.13-2l-2,3.13-1.57,2.41-2,3.13-1.57,2.41-2,3.13c1,.67,2.1,1.34,3.13,2,.82.55,1.64,1.12,2.45,1.69,1,.72,2,1.45,3,2.2.8.59,1.58,1.2,2.37,1.81,1,.77,1.94,1.56,2.89,2.36.76.64,1.52,1.28,2.27,1.94.93.82,1.85,1.65,2.77,2.5l2.49-2.78,1.93-2.13,2.5-2.78,1.92-2.13,2.5-2.78,2-2.19c1,.92,2,1.84,2.92,2.78.45.43.9.86,1.34,1.31s.86.88,1.29,1.32c.94,1,1.87,1.94,2.78,2.92s1.67,1.84,2.49,2.77,1.76,2,2.62,3.06l-2.29,1.85-2.9,2.35-2.23,1.81c-.75-.9-1.52-1.79-2.29-2.68l2.13-1.92,2.78-2.5c-.82-.93-1.66-1.85-2.5-2.77s-1.77-1.88-2.67-2.8-1.75-1.77-2.64-2.64L324.57,203l-2,2-2.64,2.64-2,2-2.64,2.64,1.34,1.31c.44.44.87.89,1.3,1.33.69.71,1.38,1.43,2.06,2.16.84.91,1.67,1.84,2.49,2.77.66.75,1.3,1.5,1.94,2.27.8.95,1.59,1.91,2.36,2.89.61.78,1.22,1.57,1.81,2.37.75,1,1.48,2,2.2,3l3-2.19,2.33-1.69,3-2.19,2.33-1.7,3-2.19,2.37-1.73c.78,1.1,1.54,2.2,2.28,3.32s1.37,2.07,2,3.13,1.41,2.27,2.1,3.43,1.26,2.14,1.87,3.23,1.3,2.35,1.92,3.53l-2.6,1.33-3.33,1.7-2.56,1.3c-.55-1-1.12-2.07-1.69-3.09l2.49-1.44,3.23-1.87c-.61-1.08-1.23-2.16-1.87-3.23s-1.34-2.21-2-3.3-1.34-2.09-2-3.12l-3.13,2-2.41,1.57-3.13,2-2.41,1.57-3.13,2c.69,1,1.36,2.07,2,3.13.53.84,1.05,1.69,1.56,2.54.64,1.06,1.27,2.14,1.87,3.23.49.86,1,1.74,1.43,2.62.58,1.1,1.15,2.2,1.7,3.32.44.89.87,1.79,1.29,2.69.53,1.13,1,2.26,1.53,3.41l3.41-1.52,2.63-1.17,3.4-1.52,2.63-1.17,3.41-1.52,2.67-1.19c.53,1.24,1,2.47,1.54,3.72s.91,2.32,1.34,3.49.92,2.52,1.35,3.79.78,2.36,1.15,3.55.78,2.57,1.14,3.86l-2.8.75-3.6,1-2.78.74c-.33-1.13-.66-2.26-1-3.38l2.74-.89,3.55-1.15c-.37-1.19-.76-2.38-1.16-3.55s-.85-2.44-1.3-3.65-.88-2.33-1.34-3.48l-3.48,1.33-2.69,1-3.48,1.33-2.69,1L345,256.57q.7,1.73,1.35,3.48c.34.94.67,1.87,1,2.82.4,1.17.79,2.36,1.16,3.55.29.95.57,1.9.85,2.86.34,1.19.65,2.4,1,3.6.24,1,.48,1.94.7,2.91.27,1.21.53,2.42.77,3.65l3.65-.78,2.82-.6,3.65-.77,2.81-.6,3.65-.78,2.83-.6c.26,1.31.5,2.64.73,4s.4,2.45.58,3.69.36,2.65.52,4,.27,2.47.38,3.71.23,2.67.31,4l-2.87.15-3.73.2-2.87.15c-.08-1.18-.17-2.35-.28-3.52l2.86-.3,3.72-.39c-.12-1.24-.25-2.48-.39-3.71s-.32-2.57-.51-3.84-.37-2.46-.58-3.69l-3.68.59-2.84.45-3.69.58-2.84.45-3.69.58c.22,1.23.41,2.46.58,3.69.14,1,.27,2,.39,3,.15,1.23.28,2.47.39,3.71.09,1,.16,2,.23,3,.08,1.24.15,2.48.19,3.73,0,1,.06,2,.08,3,0,.62,0,1.25,0,1.88s0,1.23,0,1.85H374c0,1.35-.05,2.69-.1,4" transform="translate(-67.43 -145.83)"/>
      <path class="cls-1" d="M225.89,145.83c-87.38,0-158.46,71.08-158.46,158.46s71.08,158.46,158.46,158.47,158.46-71.09,158.46-158.47S313.27,145.84,225.89,145.83M335.25,413.65a154.49,154.49,0,1,1,45.37-109.36,154.21,154.21,0,0,1-45.37,109.36" transform="translate(-67.43 -145.83)"/>
    </g>
  </g>
</svg>
