<?xml version="1.0" encoding="UTF-8" standalone="no"?>
<svg
   xmlns:dc="http://purl.org/dc/elements/1.1/"
   xmlns:cc="http://creativecommons.org/ns#"
   xmlns:rdf="http://www.w3.org/1999/02/22-rdf-syntax-ns#"
   xmlns:svg="http://www.w3.org/2000/svg"
   xmlns="http://www.w3.org/2000/svg"
   xmlns:sodipodi="http://sodipodi.sourceforge.net/DTD/sodipodi-0.dtd"
   xmlns:inkscape="http://www.inkscape.org/namespaces/inkscape"
   sodipodi:docname="poseidon.svg"
   inkscape:version="1.0 (4035a4fb49, 2020-05-01)"
   width="256.0px"
   height="256.0px"
   viewBox="0 0 256.0 256.0"
   version="1.1"
   id="SVGRoot">
  <defs
     id="defs2213">
    <inkscape:path-effect
       fuse_tolerance="0"
       hide_knot="false"
       vertical_pattern="false"
       prop_units="false"
       tang_offset="0"
       normal_offset="0"
       spacing="0"
       scale_y_rel="false"
       prop_scale="0.15142648"
       copytype="single_stretched"
       pattern="m -3.5355339,26.213203 c 0,-2.76 2.24,-5 5,-5 2.76,0 5,2.24 5,5 0,2.76 -2.24,5 -5,5 -2.76,0 -5,-2.24 -5,-5 z"
       lpeversion="1"
       is_visible="true"
       id="path-effect2839"
       effect="skeletal" />
    <inkscape:path-effect
       end_linecap_type="zerowidth"
       scale_width="1"
       miter_limit="4"
       linejoin_type="extrp_arc"
       start_linecap_type="zerowidth"
       interpolator_beta="0.2"
       interpolator_type="CubicBezierJohan"
       sort_points="true"
       offset_points="0,0.5"
       lpeversion="1"
       is_visible="true"
       id="path-effect2835"
       effect="powerstroke" />
    <inkscape:path-effect
       end_linecap_type="zerowidth"
       scale_width="1"
       miter_limit="4"
       linejoin_type="extrp_arc"
       start_linecap_type="zerowidth"
       interpolator_beta="0.2"
       interpolator_type="CubicBezierJohan"
       sort_points="true"
       offset_points="0,0.5"
       lpeversion="1"
       is_visible="true"
       id="path-effect2831"
       effect="powerstroke" />
    <inkscape:path-effect
       end_linecap_type="zerowidth"
       scale_width="1"
       miter_limit="4"
       linejoin_type="extrp_arc"
       start_linecap_type="zerowidth"
       interpolator_beta="0.2"
       interpolator_type="CubicBezierJohan"
       sort_points="true"
       offset_points="0,0.5"
       lpeversion="1"
       is_visible="true"
       id="path-effect2827"
       effect="powerstroke" />
    <inkscape:path-effect
       end_linecap_type="zerowidth"
       scale_width="1"
       miter_limit="4"
       linejoin_type="extrp_arc"
       start_linecap_type="zerowidth"
       interpolator_beta="0.2"
       interpolator_type="CubicBezierJohan"
       sort_points="true"
       offset_points="1,0.5"
       lpeversion="1"
       is_visible="true"
       id="path-effect2823"
       effect="powerstroke" />
    <inkscape:path-effect
       end_linecap_type="zerowidth"
       scale_width="1"
       miter_limit="4"
       linejoin_type="extrp_arc"
       start_linecap_type="zerowidth"
       interpolator_beta="0.2"
       interpolator_type="CubicBezierJohan"
       sort_points="true"
       offset_points="1,0.5"
       lpeversion="1"
       is_visible="true"
       id="path-effect2819"
       effect="powerstroke" />
    <inkscape:path-effect
       effect="skeletal"
       id="path-effect2815"
       is_visible="true"
       lpeversion="1"
       pattern="m 77.284417,63.720148 c -2.749208,-0.243824 -5.178337,1.789532 -5.422161,4.53874 -0.243825,2.749209 1.78953,5.178338 4.538739,5.422162 2.74921,0.243824 5.178338,-1.789531 5.422162,-4.538741 0.243825,-2.749208 -1.789531,-5.178336 -4.53874,-5.422161 z"
       copytype="single_stretched"
       prop_scale="0.12696479"
       scale_y_rel="false"
       spacing="0"
       normal_offset="0"
       tang_offset="0"
       prop_units="false"
       vertical_pattern="false"
       hide_knot="false"
       fuse_tolerance="0" />
    <inkscape:path-effect
       fuse_tolerance="0"
       hide_knot="false"
       vertical_pattern="false"
       prop_units="false"
       tang_offset="0"
       normal_offset="0"
       spacing="0"
       scale_y_rel="false"
       prop_scale="0.12696479"
       copytype="single_stretched"
       pattern="m 49.492398,64.81775 c 0,-2.76 2.24,-5 5,-5 2.76,0 5,2.24 5,5 0,2.76 -2.24,5 -5,5 -2.76,0 -5,-2.24 -5,-5 z"
       lpeversion="1"
       is_visible="true"
       id="path-effect2796"
       effect="skeletal" />
    <inkscape:path-effect
       fuse_tolerance="0"
       hide_knot="false"
       vertical_pattern="false"
       prop_units="false"
       tang_offset="0"
       normal_offset="0"
       spacing="0"
       scale_y_rel="false"
       prop_scale="0.92214338"
       copytype="single_stretched"
       pattern="m 53.256352,66.729936 c 0,-1.582693 1.284505,-2.867198 2.867198,-2.867198 1.582694,0 2.867199,1.284505 2.867199,2.867198 0,1.582694 -1.284505,2.867199 -2.867199,2.867199 -1.582693,0 -2.867198,-1.284505 -2.867198,-2.867199 z"
       lpeversion="1"
       is_visible="true"
       id="path-effect2792"
       effect="skeletal" />
  </defs>
  <sodipodi:namedview
     inkscape:snap-global="false"
     inkscape:window-maximized="1"
     inkscape:window-y="-8"
     inkscape:window-x="-8"
     inkscape:window-height="1017"
     inkscape:window-width="1920"
     showgrid="true"
     inkscape:document-rotation="0"
     inkscape:current-layer="layer1"
     inkscape:document-units="px"
     inkscape:cy="123.2471"
     inkscape:cx="147.21482"
     inkscape:zoom="2.8284271"
     inkscape:pageshadow="2"
     inkscape:pageopacity="0.0"
     borderopacity="1.0"
     bordercolor="#666666"
     pagecolor="#ffffff"
     id="base">
    <inkscape:grid
       type="xygrid"
       id="grid2783" />
  </sodipodi:namedview>
  <metadata
     id="metadata2216">
    <rdf:RDF>
      <cc:Work
         rdf:about="">
        <dc:format>image/svg+xml</dc:format>
        <dc:type
           rdf:resource="http://purl.org/dc/dcmitype/StillImage" />
        <dc:title></dc:title>
      </cc:Work>
    </rdf:RDF>
  </metadata>
  <g
     id="layer1"
     inkscape:groupmode="layer"
     inkscape:label="Layer 1">
    <path
       sodipodi:nodetypes="cc"
       inkscape:original-d="m 84.080035,94.686421 c 0,0 109.669035,106.801829 109.669035,109.669029"
       inkscape:path-effect="#path-effect2792"
       id="path2790"
       d="m 84.085324,94.691571 c 0.01692,-0.01737 0.03889,-0.02971 0.06584,-0.0371 0.03002,-0.0039 0.06657,-0.0013 0.109574,0.0076 0,0 0,0 0,0 0.08587,0.01791 0.197431,0.06131 0.334007,0.12959 0,0 1e-6,0 1e-6,0 l 0,10e-7 c 0.272284,0.136126 0.643915,0.371092 1.109462,0.700015 l 0,0 c 0.924569,0.653236 2.218869,1.676541 3.840593,3.032017 l 0,0 c 3.186992,2.66376 7.633264,6.60582 13.017041,11.53943 l 0,0 c 10.14101,9.29305 23.6393,22.13026 38.21881,36.50967 -7.6e-4,-7.5e-4 0.549,0.54167 0.54824,0.54092 14.71647,14.52521 26.95737,27.052 36.67396,37.5314 5.22214,5.63202 8.95254,9.83476 11.85142,13.40933 1.44251,1.77862 2.4148,3.07213 3.13119,4.19732 0.35071,0.55064 0.58091,0.96669 0.72805,1.33458 0.0729,0.18176 0.11759,0.33009 0.13369,0.46057 0,0 0,0 0,0 0.0326,0.19636 -0.0204,0.3085 -0.0981,0.30849 -0.005,0 -0.18995,-0.0448 -0.25707,-0.11088 0,0 0,0 0,0 -0.0701,-0.0484 -0.21402,-0.1536 -0.33644,-0.25361 -0.19546,-0.15791 -0.71334,-0.59406 -1.10563,-0.93953 -0.63993,-0.56166 -2.48591,-2.22657 -3.82879,-3.46402 -2.43259,-2.24018 -8.35064,-7.78992 -12.9907,-12.20563 -9.19337,-8.74809 -24.02507,-23.0899 -37.61616,-36.50452 4.9e-4,4.9e-4 -0.5484,-0.54144 -0.54791,-0.54095 -14.58457,-14.40353 -27.642,-27.58652 -37.176415,-37.54175 l 0,0 c -5.047708,-5.2705 -9.097381,-9.62461 -11.836285,-12.74259 l -10e-7,0 c -1.394393,-1.587387 -2.450316,-2.855769 -3.126657,-3.762903 l 0,0 c -0.340649,-0.456891 -0.585141,-0.822313 -0.728271,-1.090902 l 0,0 c 0,0 0,-10e-7 0,-10e-7 -0.0718,-0.134738 -0.118105,-0.245123 -0.138255,-0.330479 0,0 0,-10e-7 0,-10e-7 -0.01009,-0.04274 -0.01362,-0.07922 -0.01051,-0.109326 0.0067,-0.02713 0.01843,-0.04942 0.03535,-0.06679 z"
       style="fill:#000000;stroke:none;stroke-width:0.57344px;stroke-linecap:butt;stroke-linejoin:miter;stroke-opacity:1" />
    <path
       inkscape:path-effect="#path-effect2796"
       inkscape:original-d="m 54.492398,79.81775 c 0,0 15,30 30,15"
       id="path2794"
       d="m 54.492409,79.817772 c 0.141849,-0.08214 1.250064,1.53324 2.949569,4.24344 0,0 1e-6,10e-7 1e-6,10e-7 1.559863,2.267548 3.893589,5.510201 6.874717,8.448724 0,0 1e-6,1e-6 1e-6,1e-6 0.846346,0.827607 1.766704,1.664463 2.747014,2.433926 2.141551,1.680942 4.287273,2.817513 6.532926,3.284836 1.867398,0.400072 3.675842,0.244472 5.152161,-0.201309 3.791523,-1.130307 5.609614,-3.34363 5.743601,-3.209642 0.133988,0.133987 -1.387837,2.625409 -5.442301,4.112743 -1.595454,0.579106 -3.57141,0.840709 -5.682702,0.447153 -2.474534,-0.474474 -4.83473,-1.663034 -7.092695,-3.425769 -1.035707,-0.808549 -1.984121,-1.686206 -2.839819,-2.559537 0,0 -1e-6,-2e-6 -1e-6,-2e-6 -3.064717,-3.103574 -5.298634,-6.470562 -6.721122,-8.888719 0,0 -1e-6,-10e-7 -1e-6,-10e-7 -1.513194,-2.837653 -2.36323,-4.603682 -2.221349,-4.685845 z"
       style="fill:#000000;stroke:none;stroke-width:1px;stroke-linecap:butt;stroke-linejoin:miter;stroke-opacity:1" />
    <path
       inkscape:path-effect="#path-effect2815"
       inkscape:original-d="m 72.305567,63.293971 c 0,0 2.3018,1.417922 5.226185,3.76024 7.376183,5.908035 18.713251,17.697094 7.064904,27.447599"
       sodipodi:nodetypes="csc"
       style="fill:#000000;stroke:none;stroke-width:1px;stroke-linecap:butt;stroke-linejoin:miter;stroke-opacity:1"
       d="m 88.234182,78.00362 c -2.753621,-5.175565 -7.332388,-9.00072 -10.41999,-11.321311 -2.930974,-1.981797 -4.945408,-3.2541 -5.411532,-3.387555 -0.580246,-0.166129 1.366562,1.46893 4.846625,4.131395 2.225552,1.899546 5.568533,4.832396 8.062889,8.285419 0.911562,1.261908 1.687153,2.55366 2.31758,3.892212 1.189254,2.529751 1.647212,5.01307 1.288256,7.23245 -0.702825,4.678581 -3.99688,7.051755 -4.297069,7.57186 -1.76819,3.063536 4.594102,-3.699732 5.349565,-7.383403 0.474125,-2.43579 0.08445,-5.201994 -1.20355,-7.954254 -0.16707,-0.357639 -0.34465,-0.713223 -0.532774,-1.066813 z"
       id="path2794-8" />
    <path
       inkscape:original-d="M 84.386918,94.872491 59.986865,67.323353"
       inkscape:path-effect="#path-effect2835"
       id="path2833"
       d="m 84.386918,94.872491 c 0,0 0.374298,-0.331513 0.374298,-0.331513 v 0 C 79.881206,89.03115 64.866876,72.833181 59.986865,67.323353 64.866876,72.833181 79.132609,89.694176 84.01262,95.204004 v 0 c 0,0 0.374298,-0.331513 0.374298,-0.331513 z"
       style="fill:#000000;fill-rule:nonzero;stroke:none;stroke-width:1px;stroke-linecap:butt;stroke-linejoin:miter;stroke-opacity:1" />
    <path
       inkscape:original-d="m 86.589466,97.275703 -16.0625,-18.1875"
       inkscape:path-effect="#path-effect2839"
       id="path2837"
       d="m 86.589466,97.275703 c -0.313259,0.276659 -4.165499,-3.572808 -8.59875,-8.592558 -4.433251,-5.019751 -7.777012,-9.318286 -7.463753,-9.594945 0.31326,-0.276659 4.1655,3.572808 8.598751,8.592558 4.43325,5.019751 7.777011,9.318286 7.463752,9.594945 z"
       style="fill:#000000;stroke:none;stroke-width:1px;stroke-linecap:butt;stroke-linejoin:miter;stroke-opacity:1" />
  </g>
</svg>
